<?xml version="1.0" standalone="no"?>
<!DOCTYPE svg PUBLIC "-//W3C//DTD SVG 1.1//EN" "http://www.w3.org/Graphics/SVG/1.1/DTD/svg11.dtd" >
<svg xmlns="http://www.w3.org/2000/svg" xmlns:xlink="http://www.w3.org/1999/xlink" version="1.1">
<metadata>
Created by FontForge 20170731 at Fri Mar 31 12:56:50 2023
 By Aleksey,,,
Copyright (c) 2019 by Cosimo Lorenzo Pancini. All rights reserved.
</metadata>
<defs>
<font id="LovelaceText-BoldItalic" horiz-adv-x="0" >
  <font-face 
    font-family="Lovelace Text"
    font-weight="600"
    font-style="italic"
    font-stretch="normal"
    units-per-em="2048"
    panose-1="0 0 7 0 0 0 0 0 0 0"
    ascent="1638"
    descent="-410"
    x-height="1121"
    cap-height="1434"
    bbox="-1735 -668 3247.96 2064"
    underline-thickness="102"
    underline-position="-255"
    slope="-20"
    unicode-range="U+0020-FB02"
  />
<missing-glyph horiz-adv-x="1710" 
 />
    <glyph glyph-name="f_f" unicode="ff" horiz-adv-x="1716" 
d="M1976 1581q54 0 114.5 -12t117 -34t93 -59.5t36.5 -82.5q0 -62 -84.5 -114t-181.5 -52q-13 0 -21 10t-8 23q-12 282 -176 282q-25 0 -53 -17.5t-62.5 -59.5t-71.5 -131t-69 -214l-8 -24h313l-41 -80h-301l-316 -905q-45 -131 -122 -233.5t-163.5 -161t-172 -88
t-162.5 -29.5q-84 0 -218 33.5t-208 82.5q-102 -129 -235 -195.5t-248 -66.5q-54 0 -118.5 10t-126.5 29.5t-103.5 52.5t-41.5 74q0 56 59.5 122t96.5 66q30 0 49 -43q48 -108 111 -187t133 -93q37 0 76.5 49t68.5 133l461 1350h-151l43 80h139q44 110 130 205t183 154
t192.5 92.5t168.5 33.5q119 0 210 -27.5t91 -80.5q0 -70 -85.5 -133.5t-187.5 -63.5q-14 0 -23 10.5t-9 24.5q-2 52 -4.5 82.5t-8 63t-14.5 48.5t-25 26.5t-38 10.5q-20 0 -40.5 -9.5t-48.5 -37.5t-54.5 -73t-56.5 -122.5t-56 -179.5l-7 -24h543q42 108 127.5 202t184.5 154
t199.5 94.5t180.5 34.5zM844 -188l409 1204h-542l-363 -1051q-3 -7 -8 -22.5t-8 -22.5q45 -90 165 -182.5t199 -108.5q37 0 78 50t70 133z" />
    <glyph glyph-name="f_f_i" unicode="ffi" horiz-adv-x="2508" 
d="M2347 352q10 9 31.5 -14t15.5 -31q-82 -105 -181 -197.5t-157 -123.5q-41 -22 -93.5 -8.5t-91 52.5t-57.5 95.5t7 120.5q8 24 109 313.5t110 317.5q19 67 9.5 106t-40.5 37q-37 -2 -133 -2l-2 -2h-301l-316 -905q-45 -131 -122 -233.5t-163.5 -161t-172 -88t-162.5 -29.5
q-84 0 -218 33.5t-208 82.5q-102 -129 -235 -195.5t-248 -66.5q-54 0 -118.5 10t-126.5 29.5t-103.5 52.5t-41.5 74q0 56 59.5 122t96.5 66q30 0 49 -43q48 -108 111 -187t133 -93q37 0 76.5 49t68.5 133l461 1350h-151l43 80h139q44 110 130 205t183 154t192.5 92.5
t168.5 33.5q119 0 210 -27.5t91 -80.5q0 -70 -85.5 -133.5t-187.5 -63.5q-14 0 -23 10.5t-9 24.5q-2 52 -4.5 82.5t-8 63t-14.5 48.5t-25 26.5t-38 10.5q-20 0 -40.5 -9.5t-48.5 -37.5t-54.5 -73t-56.5 -122.5t-56 -179.5l-7 -24h543q42 108 127.5 202t184.5 154t199.5 94.5
t180.5 34.5q54 0 114.5 -12t117 -34t93 -59.5t36.5 -82.5q0 -62 -84.5 -114t-181.5 -52q-13 0 -21 10t-8 23q-12 282 -176 282q-25 0 -53 -17.5t-62.5 -59.5t-71.5 -131t-69 -214l-8 -24h147q100 0 253.5 13t180.5 13q42 0 86 -36t67 -98t-1 -144l-221 -643
q-6 -28 -0.5 -39.5t18.5 -11.5q60 13 215 202zM844 -188l409 1204h-542l-363 -1051q-3 -7 -8 -22.5t-8 -22.5q45 -90 165 -182.5t199 -108.5q37 0 78 50t70 133z" />
    <glyph glyph-name="f_f_l" unicode="ffl" horiz-adv-x="2469" 
d="M2562 1544q-41 -86 -256 -672t-242 -671q-17 -54 17 -54q57 12 217 203q9 9 32 -17q19 -21 13 -28q-81 -105 -179.5 -197t-158.5 -124q-41 -22 -92 -9t-89 52t-57.5 95.5t2.5 121.5q43 132 170 480t197 529q-18 106 -93.5 168t-170.5 62q-58 0 -131 -88.5t-129 -255.5
l-15 -43l316 -2l-39 -78h-303l-314 -905q-45 -131 -122 -233.5t-163.5 -161t-172 -88t-162.5 -29.5q-84 0 -218 33.5t-208 82.5q-102 -129 -235 -195.5t-248 -66.5q-54 0 -118.5 10t-126.5 29.5t-103.5 52.5t-41.5 74q0 56 59.5 122t96.5 66q30 0 49 -43q48 -108 111 -187
t133 -93q37 0 76.5 49t68.5 133l461 1350h-151l43 80h139q44 110 130 205t183 154t192.5 92.5t168.5 33.5q119 0 210 -27.5t91 -80.5q0 -70 -85.5 -133.5t-187.5 -63.5q-14 0 -23 10.5t-9 24.5q-2 52 -4.5 82.5t-8 63t-14.5 48.5t-25 26.5t-38 10.5q-20 0 -40.5 -9.5
t-48.5 -37.5t-54.5 -73t-56.5 -122.5t-56 -179.5l-7 -24h539q35 100 98.5 183.5t137 137.5t157 91.5t158.5 54t141 16.5q74 0 179.5 -24t175.5 -64q91 45 217 88q18 1 21.5 -8.5t-3.5 -26.5zM844 -188l409 1204h-542l-363 -1051q-3 -7 -8 -22.5t-8 -22.5q45 -90 165 -182.5
t199 -108.5q37 0 78 50t70 133z" />
    <glyph glyph-name="f_i" unicode="fi" horiz-adv-x="1603" 
d="M1444 350q8 8 30 -14.5t17 -30.5q-83 -104 -182 -197t-156 -124q-41 -22 -94 -8.5t-92 52.5t-58.5 95.5t6.5 120.5q177 488 222 630q19 67 9 106.5t-40 37.5q-72 -2 -301 -2h-92l-340 -983q-38 -110 -98 -202t-126 -152t-139.5 -101.5t-140.5 -59.5t-127 -18
q-52 0 -116 11t-125.5 30.5t-102.5 53t-41 73.5q0 56 60.5 125.5t97.5 69.5q32 0 49 -41q91 -209 233 -234q43 0 91 51.5t79 141.5l428 1235h-151l39 80h139q35 100 98.5 183.5t137 137.5t157 91.5t158.5 54t141 16.5q54 0 116 -11.5t120.5 -32t97.5 -56.5t39 -80
q0 -58 -75 -102t-169 -44q-12 0 -19 9t-7 22q-4 106 -56 152.5t-147 46.5q-58 0 -130.5 -88.5t-127.5 -255.5l-15 -43l103 -2q100 0 253.5 13t180.5 13q42 0 86 -36t67 -98t-1 -144q-29 -85 -104 -305t-116 -338q-7 -28 -2 -40t19 -12q61 12 217 203z" />
    <glyph glyph-name="f_l" unicode="fl" horiz-adv-x="1611" 
d="M1704 1542q-41 -85 -257 -673t-241 -670q-17 -54 17 -54q57 14 217 205q9 7 30 -15t15 -30q-81 -105 -179.5 -197t-158.5 -124q-41 -23 -92 -10t-89 52t-57.5 96t2.5 122q45 137 173 488t194 519q-18 108 -93.5 170t-170.5 62q-58 0 -130.5 -88.5t-127.5 -255.5l-15 -43
l314 -2l-39 -78h-303l-340 -983q-38 -110 -98 -202t-126 -152t-139.5 -101.5t-140.5 -59.5t-127 -18q-52 0 -116 11t-125.5 30.5t-102.5 53t-41 73.5q0 56 60.5 125.5t97.5 69.5q32 0 49 -41q91 -209 233 -234q43 0 91 51.5t79 141.5l428 1235h-151l39 80h139
q35 100 98.5 183.5t137 137.5t157 91.5t158.5 54t141 16.5q74 0 179 -24t175 -64q89 44 218 88q31 0 18 -37z" />
    <glyph glyph-name=".notdef" horiz-adv-x="1710" 
 />
    <glyph glyph-name=".null" 
 />
    <glyph glyph-name="nonmarkingreturn" horiz-adv-x="682" 
 />
    <glyph glyph-name="space" unicode=" " horiz-adv-x="626" 
 />
    <glyph glyph-name="exclam" unicode="!" horiz-adv-x="765" 
d="M387 428q-4 -11 -60 -9q-36 2 -34 9q41 132 64 248.5t30 195t10.5 146t12.5 130t30 118.5q34 97 111 145.5t162 48.5q86 0 128.5 -48t8.5 -144q-22 -60 -59.5 -124.5t-82 -131.5t-94 -144t-110.5 -192.5t-117 -247.5zM174 -27q-85 0 -121 52.5t-10 124.5q26 70 99.5 123
t158.5 53q86 0 122.5 -53t10.5 -123q-26 -71 -100 -124t-160 -53z" />
    <glyph glyph-name="quotedbl" unicode="&#x22;" horiz-adv-x="731" 
d="M424 946h-96q36 96 57 221t47 195q14 39 50 65.5t79 26.5q45 0 62 -26.5t2 -65.5q-25 -72 -96 -197t-105 -219zM709 946h-95q36 97 57.5 222.5t45.5 193.5q15 39 51 65.5t78 26.5q46 0 62.5 -26t2.5 -66q-26 -72 -96.5 -197t-105.5 -219z" />
    <glyph glyph-name="numbersign" unicode="#" horiz-adv-x="1531" 
d="M1706 1434l-363 -500h207l-34 -94h-240l-229 -316h231l-35 -94h-264l-305 -422h-101l306 422h-473l-306 -422h-100l305 422h-205l35 94h238l229 316h-229l35 94h262l362 500h101l-363 -500h473l363 500h100zM946 524l230 316h-474l-229 -316h473z" />
    <glyph glyph-name="dollar" unicode="$" horiz-adv-x="1394" 
d="M1460 1526q3 4 18 5t29 -0.5t13 -4.5l-168 -598q-3 -6 -34 -12.5t-32 -0.5q7 106 -8 185t-51.5 129t-86 78.5t-116.5 40.5l-162 -447q48 -16 58 -20q179 -64 277.5 -155.5t98.5 -209.5q0 -101 -60 -201t-157.5 -174.5t-227 -121t-261.5 -46.5h-66l-73 -200h-95l76 207
q-46 4 -133.5 15t-130.5 11q-38 0 -65.5 -24t-61.5 -74q-3 -5 -31 -6t-28 6l174 610q2 5 18 10t29.5 5.5t15.5 -3.5q-4 -114 10.5 -195t49 -131.5t81 -78t111.5 -39.5l186 512l-36 12q-166 62 -238 140t-72 180q0 70 25.5 142.5t79.5 142t130 123.5t186.5 87.5t238.5 34.5
l71 195h95l-72 -197q61 -4 150 -17.5t118 -13.5q19 0 36 6.5t32 20.5t23 22.5t21.5 28.5t14.5 21zM780 934l154 424h-25q-85 0 -151 -24.5t-102.5 -63.5t-55 -81.5t-18.5 -84.5q0 -53 42.5 -89.5t155.5 -80.5zM1018 344q0 65 -66.5 115.5t-212.5 107.5l-178 -489
q18 -2 53 -2q107 0 188.5 25.5t126.5 66.5t67 86t22 90z" />
    <glyph glyph-name="percent" unicode="%" horiz-adv-x="2344" 
d="M688 -80h-104l1265 1555h103zM520 614q-188 0 -265.5 118t-10.5 304q67 185 231.5 303.5t351.5 118.5q185 0 263.5 -118.5t11.5 -303.5q-66 -185 -231 -303.5t-351 -118.5zM545 686q90 0 164.5 85.5t138.5 264.5q65 178 53 264t-102 86q-88 0 -161.5 -83.5t-139.5 -266.5
q-65 -183 -53.5 -266.5t100.5 -83.5zM1645 -16q-188 0 -266 118t-11 304q67 185 232 303t352 118q185 0 263 -118t11 -303q-66 -185 -230.5 -303.5t-350.5 -118.5zM1669 55q90 0 164.5 86t138.5 265q65 178 53 264t-102 86q-88 0 -161.5 -83.5t-139.5 -266.5
q-65 -183 -53.5 -267t100.5 -84z" />
    <glyph glyph-name="ampersand" unicode="&#x26;" horiz-adv-x="1771" 
d="M1769 1468q109 0 147.5 -66.5t-3.5 -176.5q-44 -121 -182.5 -240.5t-352.5 -191.5q-125 -46 -305 -101q-34 -9 -88 -28q79 11 157 5.5t141.5 -27t109 -57t59.5 -84.5t-6 -110q-29 -81 -100.5 -151.5t-163 -118.5t-198.5 -82t-208.5 -50t-191.5 -16q-82 0 -161.5 10
t-157.5 32.5t-136.5 58t-100 85.5t-47.5 116t21 149q44 120 143 218.5t223.5 160.5t249 99.5t244.5 51.5q-96 10 -165.5 28.5t-110.5 42.5t-62.5 54t-21 64.5t13.5 73.5q39 106 201.5 184t361.5 78q166 0 243.5 -59t47.5 -138q-14 -42 -51 -70t-86 -28q-44 0 -67 28t-22 70
t15 92q-59 19 -112 19q-82 0 -148 -43t-92 -113q-15 -40 -13.5 -76t7.5 -57.5t33 -50t37 -36.5t46 -33l3 -3t3 -2t3 -2q123 43 186 43q23 0 31 -10.5t4 -24.5q-12 -30 -63 -48.5t-132 -0.5q-75 -24 -144.5 -53t-146.5 -72.5t-139 -93t-114.5 -116t-79.5 -140.5
q-32 -90 -35 -160.5t19 -117.5t66.5 -77.5t102.5 -43.5t131 -13q184 0 344.5 84.5t212.5 228.5q47 127 -22.5 190.5t-201 51t-263.5 -87.5q-60 -37 -89 -74t-54 -102q-24 -68 9 -113t114 -45q77 0 147 33q18 120 76.5 187t134.5 67q45 0 56 -33t-5 -65q-25 -68 -83 -121.5
t-125.5 -81.5t-126 -42.5t-99.5 -14.5q-133 0 -180.5 71t-1.5 199q32 88 96.5 167t151.5 142t185.5 112.5t211.5 88.5q54 19 170 54t184 61q325 119 381 272q23 58 0 87.5t-90 29.5q-13 0 -57 -11q-26 -76 -90 -138t-125 -62q-34 0 -49.5 24t-4.5 54q28 80 133 143t217 63z
" />
    <glyph glyph-name="quotesingle" unicode="'" horiz-adv-x="446" 
d="M424 946h-96q36 97 58.5 225.5t45.5 190.5q14 39 50 65.5t79 26.5q45 0 62 -26.5t2 -65.5q-22 -62 -94 -190.5t-107 -225.5z" />
    <glyph glyph-name="parenleft" unicode="(" horiz-adv-x="761" 
d="M403 -408q-127 63 -211 168t-119 236t-23.5 284.5t69.5 313.5q119 326 394 600.5t620 400.5v-43q-251 -150 -419 -385t-290 -573q-82 -223 -112 -393t-2 -316.5t124 -249.5z" />
    <glyph glyph-name="parenright" unicode=")" horiz-adv-x="761" 
d="M391 1591q127 -63 211.5 -168t119 -236t23.5 -284t-69 -313q-119 -326 -394 -601t-620 -401v43q251 150 418 385t291 574q61 165 92 301t34.5 258t-30.5 222t-107 177z" />
    <glyph glyph-name="asterisk" unicode="*" horiz-adv-x="899" 
d="M674 1196l-8 160q7 50 41.5 77t83.5 27q35 0 50.5 -16.5t12 -39.5t-19.5 -48l-121 -160h-39zM461 1143q-39 0 -51.5 26t8.5 64q25 61 76 81t75 -14l76 -120l-29 -37h-155zM899 1141h-166l2 37l160 122q32 18 60 19.5t42 -22.5t2 -66q-9 -39 -36.5 -64t-63.5 -26zM391 874
q-22 30 -7.5 67t54.5 63l178 110l19 -20l-92 -179q-18 -38 -49.5 -54.5t-59.5 -11.5t-43 25zM756 870q-43 -29 -84.5 -19.5t-32.5 56.5l29 178l37 23l102 -104q24 -28 9 -68t-60 -66z" />
    <glyph glyph-name="plus" unicode="+" horiz-adv-x="940" 
d="M928 666l-35 -95h-358l-148 -401h-94l145 401h-356l33 95h358l145 399h97l-146 -399h359z" />
    <glyph glyph-name="comma" unicode="," horiz-adv-x="718" 
d="M-61 -358l-23 47q79 45 198 143.5t152 153.5q-50 -13 -92 -13q-74 0 -114 41.5t-9 128.5q25 67 95.5 118.5t156.5 51.5q78 0 115 -50.5t6 -137.5q-26 -76 -80 -150.5t-124 -135.5t-139 -109t-142 -88z" />
    <glyph glyph-name="hyphen" unicode="-" horiz-adv-x="878" 
d="M72 543l10 26h749l-10 -26h-749z" />
    <glyph glyph-name="period" unicode="." horiz-adv-x="700" 
d="M164 -27q-81 0 -116 50.5t-9 117.5q24 67 94.5 116.5t151.5 49.5q82 0 116.5 -49.5t10.5 -116.5q-26 -67 -97 -117.5t-151 -50.5z" />
    <glyph glyph-name="slash" unicode="/" horiz-adv-x="972" 
d="M-268 -340l1542 1888h104l-1542 -1888h-104z" />
    <glyph glyph-name="zero" unicode="0" horiz-adv-x="1607" 
d="M596 -27q-154 0 -266 54t-169 152t-61 235t58 303q80 218 232.5 387.5t347.5 262.5t399 93q153 0 265 -54t168.5 -152t60.5 -234.5t-58 -302.5q-79 -218 -231 -388t-347 -263t-399 -93zM631 82q172 0 325.5 162.5t266.5 472.5q112 311 78.5 473t-205.5 162
q-171 0 -323 -162.5t-265 -472.5q-113 -311 -80.5 -473t203.5 -162z" />
    <glyph glyph-name="one" unicode="1" horiz-adv-x="903" 
d="M141 0q-86 0 -213 2q-4 0 -5 22.5t1.5 45t7.5 22.5q41 -3 75 0t58 3t44 10t33.5 19.5t27 32.5t24.5 49t25 68l320 865q-154 -47 -256 -62q-14 -3 -3 44q12 45 25 48q324 53 572 265q4 4 30 5t50 -0.5t22 -4.5l-420 -1162q-18 -47 -26 -77t-1 -51t15 -31.5t42.5 -16t61 -6
t88.5 -0.5q5 0 7.5 -22.5t1.5 -45t-5 -22.5h-215h-387z" />
    <glyph glyph-name="two" unicode="2" horiz-adv-x="1445" 
d="M698 543q-264 -92 -377.5 -149t-205.5 -130q112 50 190 65t170 15q64 0 129.5 -18.5t112 -41t114.5 -41t136 -18.5q41 0 76.5 7t63.5 16.5t58.5 33.5t52 44t56 63.5t57.5 75.5t68 96q8 10 40 8q16 -2 15 -8q-65 -111 -111 -185.5t-96.5 -146.5t-92 -115t-88 -77.5
t-93.5 -49t-101 -14.5q-79 0 -152.5 26t-131.5 63.5t-114 75t-121.5 63.5t-131.5 26q-53 0 -105.5 -20t-80.5 -51q0 -11 6 -17q3 -3 10.5 -9.5t10.5 -9.5l8.5 -8.5t8 -10t6 -10t4.5 -11.5t1 -12q0 -38 -33 -66.5t-71 -28.5q-30 0 -50 21.5t-20 54.5q0 48 31 98
q38 103 200.5 210.5t524.5 281.5q133 63 233.5 132t156 126.5t90 116t44.5 98.5t10 76q0 73 -55 119.5t-164 46.5q-294 0 -289 -318v-10q0 -25 -30 -25q-104 0 -180 33t-76 88q0 61 45 121t122.5 108t191 77.5t241.5 29.5q89 0 176 -14.5t169.5 -45.5t133.5 -89t51 -135
q0 -120 -110 -237t-296 -214.5t-438 -179.5z" />
    <glyph glyph-name="three" unicode="3" horiz-adv-x="1368" 
d="M1004 1462q155 0 263.5 -32.5t154.5 -98.5t12 -157q-17 -49 -48 -91t-58.5 -72t-86.5 -62t-91 -49t-116 -45.5t-117.5 -38.5t-136.5 -40q-40 -12 -61 -18q34 5 82 12.5t66 10t46.5 5t59.5 2.5q199 0 277 -99.5t20 -260.5q-45 -123 -178.5 -227.5t-323 -166t-389.5 -61.5
q-209 0 -314.5 92.5t-58.5 223.5q19 52 71 94.5t114.5 65.5t125.5 33t109 3q-95 -97 -131 -196q-32 -88 34.5 -148.5t172.5 -60.5q141 0 252.5 84t173.5 246q50 131 -3 200.5t-173 69.5q-111 0 -170 -16q-15 -6 -47.5 -22t-58.5 -25t-52 -9q-29 0 -44.5 16.5t-8.5 43.5
q18 45 81.5 71.5t141.5 24.5q89 30 156 58t130 63.5t108.5 75.5t82 92t59.5 114q34 94 -6.5 140.5t-146.5 46.5q-98 0 -159 -25t-85 -69t-31 -103.5t3 -128.5q2 -11 -6.5 -19t-26.5 -8q-102 0 -178 33t-76 88q0 60 47 121.5t124.5 109.5t187.5 78.5t227 30.5z" />
    <glyph glyph-name="four" unicode="4" horiz-adv-x="1345" 
d="M502 0h-215q-4 0 -5 21t1.5 42t7.5 21h55t45 1.5t38 3.5t30 7t26 10.5t20.5 16t18.5 22t15.5 29.5t17 37.5t16.5 46.5l29 68h-647l-2 67l600 461q166 125 240.5 267.5t74.5 310.5q0 26 12 35.5t42 9.5q123 0 207.5 -33.5t84.5 -91.5q0 -32 -18 -65t-73.5 -89t-163.5 -141
t-281 -211l-580 -443h531l119 318q129 54 342 137h32l-168 -455h320l-27 -77h-319l-25 -80q-24 -62 -29.5 -95t18.5 -48.5t53 -18t104 -2.5q4 0 6 -20.5t1 -41t-5 -20.5h-179h-370z" />
    <glyph glyph-name="five" unicode="5" horiz-adv-x="1392" 
d="M399 -27q-51 0 -103 7t-105 23t-93.5 40.5t-70 60t-34 82t14.5 105.5q18 51 68 92.5t111.5 64.5t126.5 33t118 4q-87 -70 -139 -206q-16 -48 -3.5 -85t46 -62.5t78.5 -38.5t94 -13q157 0 282 99t187 270q121 329 -246 329q-185 0 -452 -145l-95 14l547 813l565 -94
q112 -23 174 -5.5t138 99.5q6 8 26 3q14 -4 8 -13q-50 -92 -101.5 -157.5t-113.5 -113t-132 -68.5t-156 -19t-187 30l-299 76l-311 -465q123 73 284.5 120.5t276.5 47.5q160 0 272 -51.5t154.5 -147.5t-4.5 -233q-83 -224 -331.5 -360t-594.5 -136z" />
    <glyph glyph-name="six" unicode="6" horiz-adv-x="1482" 
d="M1202 1460q132 1 242 -45t162.5 -124t21.5 -163q-16 -47 -98.5 -71.5t-169.5 0.5q-23 8 -19 33q20 82 18 139.5t-44.5 89.5t-128.5 33q-107 0 -210 -52.5t-188 -143.5t-154 -203.5t-120 -241.5l-12 -33q96 98 206.5 160t194.5 83t160 21q69 0 135.5 -16.5t127 -51.5
t97 -89t45.5 -130t-28 -174q-50 -138 -181.5 -256t-304 -185t-342.5 -67q-126 0 -225 36t-160.5 102t-91.5 154t-23 196t50 225q61 166 184.5 313.5t269.5 246.5t301 156.5t285 57.5zM883 770q-103 0 -213 -63.5t-213 -182.5q-15 -70 -19 -131t6 -120t36.5 -100.5t78 -67
t125.5 -25.5q144 0 247 82.5t161 238.5q31 87 31 155t-22.5 107t-61.5 64.5t-77.5 34t-78.5 8.5z" />
    <glyph glyph-name="seven" unicode="7" horiz-adv-x="1187" 
d="M1176 1200l-424 -72q-110 -16 -194.5 -16t-136 23.5t-69 65.5t7 110t91.5 157q8 10 41 6q12 -2 12 -6q-8 -21 -9.5 -37t3.5 -27t14 -19t25.5 -12.5t34 -6.5t43 -1.5t49 2.5t55.5 5l821 82zM627 709q324 327 913 745l-6 -74q-183 -130 -406 -321.5t-401 -372.5
q-73 -72 -120.5 -160t-64.5 -169t-23.5 -166t1.5 -152q3 -25 -9.5 -35t-43.5 -10q-78 -1 -145.5 13.5t-110.5 43.5t-43 68q0 35 13.5 71t56.5 101t140.5 169.5t248.5 248.5z" />
    <glyph glyph-name="eight" unicode="8" horiz-adv-x="1304" 
d="M1022 1460q216 0 323.5 -101.5t53.5 -254.5q-34 -90 -121.5 -178t-194.5 -156q205 -138 134 -334q-36 -99 -119 -187.5t-184.5 -147.5t-212.5 -93.5t-207 -34.5q-247 0 -369 109.5t-64 265.5q71 208 369 393q-122 122 -53 312q44 122 152 217t237.5 142.5t255.5 47.5z
M1196 1143q39 107 -15.5 166t-197.5 59q-130 0 -226 -62t-128 -153q-19 -51 -16 -90.5t43.5 -76.5t129.5 -77l156 -65q208 164 254 299zM950 303q13 37 15.5 68.5t-7.5 56.5t-25.5 44.5t-43.5 37.5t-56.5 31.5t-68.5 29.5l-186 76l-29 12q-107 -83 -175.5 -158.5
t-101.5 -162.5q-44 -122 26.5 -197t242.5 -75q145 0 261 74t148 163z" />
    <glyph glyph-name="nine" unicode="9" horiz-adv-x="1482" 
d="M1012 1460q127 0 226 -36t160.5 -101.5t91 -154t22.5 -196t-50 -224.5q-48 -133 -138 -256t-200 -215.5t-233 -162t-244 -105.5t-225 -36q-98 -1 -187.5 26.5t-149.5 72.5t-85.5 107t-1.5 126q14 47 97.5 72t170.5 0q23 -8 19 -33q-20 -82 -18.5 -139.5t43.5 -89.5
t128 -33q108 0 211 52.5t188 143.5t153.5 203.5t119.5 241.5l12 31q-74 -74 -154.5 -127.5t-154 -81.5t-135 -40.5t-115.5 -12.5q-70 0 -136.5 16.5t-127 51t-96.5 89t-45 130t28 173.5q50 138 181 255.5t303 185t342 67.5zM741 664q103 0 214 64t212 181q20 89 21 164
t-19.5 140.5t-78 103t-148.5 37.5q-288 0 -407 -322q-32 -87 -32 -155t22.5 -107t61 -64t76.5 -33.5t78 -8.5z" />
    <glyph glyph-name="colon" unicode=":" horiz-adv-x="710" 
d="M457 770q-81 0 -116 50.5t-9 117.5q24 67 94.5 116.5t151.5 49.5q82 0 116.5 -49.5t10.5 -116.5q-26 -68 -96 -118t-152 -50zM172 -27q-81 0 -116 50.5t-9 117.5q24 67 94.5 116.5t151.5 49.5q82 0 116.5 -49.5t10.5 -116.5q-26 -67 -97 -117.5t-151 -50.5z" />
    <glyph glyph-name="semicolon" unicode=";" horiz-adv-x="718" 
d="M461 770q-81 0 -116 50.5t-9 117.5q24 67 94 117.5t152 50.5t116.5 -50.5t10.5 -117.5q-26 -67 -97 -117.5t-151 -50.5zM-61 -358l-23 47q79 45 198 143.5t152 153.5q-50 -13 -92 -13q-74 0 -114 41.5t-9 128.5q25 67 95.5 118.5t156.5 51.5q78 0 115 -50.5t6 -137.5
q-26 -76 -80 -150.5t-124 -135.5t-139 -109t-142 -88z" />
    <glyph glyph-name="less" unicode="&#x3c;" horiz-adv-x="935" 
d="M948 999l47 -94l-712 -346l452 -340l-73 -84l-568 438z" />
    <glyph glyph-name="equal" unicode="=" horiz-adv-x="942" 
d="M168 805h811l-33 -94h-813zM43 459h811l-35 -94h-811z" />
    <glyph glyph-name="greater" unicode="&#x3e;" horiz-adv-x="935" 
d="M6 147l-45 95l711 346l-453 340l74 84l567 -439z" />
    <glyph glyph-name="question" unicode="?" horiz-adv-x="976" 
d="M733 1479q52 0 108.5 -16.5t113.5 -51t93.5 -88t47 -128.5t-24.5 -171q-66 -182 -206.5 -300t-334.5 -118h-67q-26 0 -39 -39l-43 -116q-5 -13 -54 -14q-45 1 -42 14l98 266q63 178 227 178h49q169 0 231.5 24t92.5 105q31 74 17.5 155t-74.5 128q-184 -91 -314 -90
q-109 1 -115 71q-2 25 9 55q28 72 90 104t137 32zM168 -27q-85 0 -121 52.5t-10 124.5q26 71 100 123.5t160 52.5t121.5 -52.5t9.5 -123.5t-100 -124t-160 -53z" />
    <glyph glyph-name="at" unicode="@" horiz-adv-x="1916" 
d="M594 -322q-131 0 -236.5 34.5t-175 98t-106 150.5t-33.5 196t47 230q71 196 206.5 368t306 294.5t373.5 193t406 70.5q150 0 264.5 -48t176 -133.5t74.5 -202t-39 -253.5q-94 -256 -287 -426t-391 -170q-113 0 -164 49t-12 156q12 36 61.5 111t101.5 136
q-152 -164 -212 -221q-229 -217 -382 -217q-19 0 -40 4.5t-45.5 15.5t-42.5 31.5t-29.5 49t-8.5 72.5t23 98q40 110 118.5 205t170.5 158.5t194 109.5t192 67t161 21q74 0 139.5 -19t102.5 -40.5t94 -61.5q-8 -10 -49 -59.5t-55 -66.5t-51.5 -63.5t-54.5 -69t-48 -63
t-47.5 -65.5t-37 -57t-33 -57t-20.5 -46q-17 -54 -4 -74t55 -20q140 0 280 138t226 374q32 94 33 176t-32.5 149.5t-91.5 116t-145 75t-192 26.5q-240 0 -474 -108.5t-413.5 -299.5t-265.5 -426q-38 -104 -40 -198t31 -169t94.5 -130t154.5 -85t209 -30q135 0 292 40
t261 101q9 -17 12 -47q-127 -81 -299 -135t-303 -54zM705 213q84 0 289 188t347 371q-11 82 -139 82q-162 0 -301.5 -133.5t-220.5 -355.5q-15 -41 -19.5 -73.5t6 -55.5t38.5 -23z" />
    <glyph glyph-name="A" unicode="A" horiz-adv-x="1667" 
d="M1501 84q3 0 4.5 -21t1.5 -42t-2 -21h-153h-375h-219q-4 0 -4.5 21t2 42t6.5 21q150 0 187 33t30 192q0 10 -1 32t-1 32h-338h-264l-76 -97q-34 -43 -52.5 -71.5t-26 -51t-1.5 -35t27.5 -21t53.5 -11t83 -2.5q4 0 6.5 -21t2 -42t-4.5 -21h-256h-108h-166q-2 0 -2 21t1 42
t3 21q103 0 172 35t159 149l758 965l-6 182q-3 19 12 23q233 29 322 39q12 3 16 -4l45 -1170q1 -42 3 -72t7.5 -54t9.5 -39t16 -26t20.5 -16t28.5 -8t34.5 -3.5t44.5 -0.5zM674 467h301q-3 113 -23 635l-501 -635h223z" />
    <glyph glyph-name="B" unicode="B" horiz-adv-x="1570" 
d="M807 0h-688h-174q-3 0 -4 21t0.5 42t5.5 21q49 0 71 0.5t49.5 6.5t39 15t27.5 30t26.5 47.5t25.5 72.5l338 924q12 32 19 55.5t7.5 42t-0.5 30.5t-12.5 20t-21 12.5t-34 6.5t-42.5 2.5t-55 0.5q-4 0 -6 21t-1.5 42t3.5 21h174h592q258 0 378 -55.5t120 -184.5
q0 -86 -45 -162t-130.5 -136.5t-219.5 -98.5t-302 -45l-4 -11q76 1 149 -5.5t152 -24.5t138 -46.5t97 -77t38 -110.5q0 -56 -23.5 -117.5t-78.5 -126.5t-134 -116t-203 -84t-272 -33zM727 791h35q114 0 204 22t148.5 59.5t97 89t54.5 107t16 117.5q0 85 -63.5 119t-182.5 34
h-92q-52 -96 -129 -307zM692 694l-102 -284q-52 -139 -71 -201.5t-27 -114.5h137q130 0 233.5 32.5t168 88.5t98.5 128t34 155q0 39 -15.5 70t-38.5 51t-60.5 35t-71.5 22.5t-82 11.5t-81 5t-79 1h-43z" />
    <glyph glyph-name="C" unicode="C" horiz-adv-x="1550" 
d="M651 -23q-109 0 -206 32t-171 92t-117.5 153.5t-43.5 208.5q0 141 55.5 285.5t158.5 271t238.5 226t308 157t353.5 57.5q77 0 158 -16.5t106 -16.5q37 0 77 29.5t68 71.5q5 7 45 4q13 -1 13 -4l-156 -658q-2 -7 -29.5 -5.5t-27.5 7.5q6 70 2.5 127t-6 103t-14.5 81.5
t-23.5 61.5t-33 45t-43 31t-52.5 19t-63 9.5t-74 2.5q-127 0 -255.5 -79t-224 -199t-155.5 -269.5t-60 -284.5q0 -164 97 -261t305 -97q272 0 571 303q7 6 21 0t23.5 -16t4.5 -15q-9 -9 -27 -28q-39 -41 -60.5 -62.5t-64.5 -63t-73.5 -66t-79 -60.5t-89.5 -57.5t-97 -47
t-109.5 -39.5t-118 -23.5t-131.5 -9.5z" />
    <glyph glyph-name="D" unicode="D" horiz-adv-x="1814" 
d="M662 0h-541h-172q-3 0 -3.5 21t1 42t4.5 21h54t42 3t34 6.5t26 13t23 20.5t18.5 31t19.5 42t20 56l336 924q13 32 20.5 55.5t8 42t-0.5 30.5t-12.5 20t-21 12.5t-34.5 6.5t-43.5 2.5t-55.5 0.5q-4 0 -6 21t-1.5 42t3.5 21h176h586q112 0 211 -18t184.5 -56t147 -94
t96.5 -136t35 -178q0 -154 -60 -299t-169 -262t-252 -205.5t-317.5 -137t-356.5 -48.5zM487 94h113q140 0 266 40.5t220 109.5t169.5 159t123.5 191t73 203t25 198q0 168 -104 255t-337 87h-96q-35 -64 -62 -129t-81 -211l-205 -561q-38 -107 -52.5 -150t-29.5 -95.5
t-23 -96.5z" />
    <glyph glyph-name="E" unicode="E" horiz-adv-x="1611" 
d="M1704 1528q4 4 18 5t26.5 -0.5t12.5 -4.5l-155 -641q-2 -5 -32.5 -11t-31.5 -2q-4 104 -10 172t-20.5 123.5t-33.5 85.5t-53.5 50.5t-77 27t-106.5 6.5h-319l-195 -532h129q106 0 177 25.5t110 71t65 118.5q3 7 26.5 9.5t45.5 0t20 -9.5l-186 -526q-3 -12 -55 -10
q-37 1 -35 10q41 118 -1.5 166.5t-201.5 48.5h-129l-223 -617h354q67 0 115.5 6.5t98.5 28t90.5 51t96.5 87.5t110 125t136 175q5 11 41 2q19 -6 17 -12l-318 -651q-2 -5 -28.5 -6t-28.5 6q-7 47 -45.5 70.5t-142.5 23.5h-844h-176q-3 0 -3.5 21t1.5 42t6 21h55t42 3
t34.5 6.5t26 13t23 20.5t19 31t19.5 42t20 56l336 924q13 32 20.5 55.5t8 42t-0.5 30.5t-12.5 20t-21 12.5t-34.5 6.5t-43.5 2.5t-55.5 0.5q-4 0 -6 21t-1.5 42t3.5 21h176h856q119 0 185.5 24t105.5 70z" />
    <glyph glyph-name="F" unicode="F" horiz-adv-x="1533" 
d="M1704 1528q4 4 18 5t26.5 -0.5t12.5 -4.5l-155 -641q-3 -7 -30.5 -12t-33.5 2q-2 82 -7 144.5t-15.5 111t-22 81.5t-33 56.5t-42 37t-55 20.5t-65.5 9t-79 2h-301l-185 -512h158q160 1 242.5 54t122.5 163q3 7 27.5 9.5t47.5 0t21 -9.5l-193 -526q-3 -12 -57 -10
q-39 1 -37 10q42 118 -1.5 166.5t-207.5 48.5h-155l-170 -471q-18 -45 -26 -74t-0.5 -49.5t16.5 -30.5t45.5 -15.5t64.5 -6t94 -0.5q5 0 7.5 -21.5t1.5 -43t-5 -21.5h-227h-385h-176q-3 0 -3.5 21t1.5 42t6 21h55t42 3t34.5 6.5t26 13t23 20.5t19 31t19.5 42t20 56l336 924
q13 32 20.5 55.5t8 42t-0.5 30.5t-12.5 20t-21 12.5t-34.5 6.5t-43.5 2.5t-55.5 0.5q-4 0 -6 21t-1.5 42t3.5 21h176h875q195 0 272 94z" />
    <glyph glyph-name="G" unicode="G" horiz-adv-x="1753" 
d="M666 -23q-267 0 -411 131.5t-144 350.5q0 119 41 241t113 232.5t177 207.5t227 167.5t268 111.5t296 41q96 0 199.5 -16.5t132.5 -16.5q41 0 82.5 28.5t70.5 72.5q2 3 17 4t28.5 0t12.5 -4l-156 -658q-1 -5 -15.5 -7.5t-29 -1.5t-14.5 7q0 184 -39 290.5t-116.5 151
t-209.5 44.5q-100 0 -199 -45t-180.5 -121t-151.5 -176.5t-118 -209.5t-75.5 -222t-27.5 -213q0 -139 78 -213t232 -74q90 0 199.5 35.5t199.5 91.5l78 239q16 45 22.5 74.5t-3 49.5t-21 30.5t-52 15.5t-73 6t-105.5 1q-6 0 -8.5 21t-1.5 42t6 21h256h357h157q3 0 3.5 -21
t-1.5 -42t-6 -21q-44 0 -63.5 -0.5t-44.5 -6.5t-35 -14.5t-25.5 -30t-25.5 -47.5t-25 -71l-178 -492q-3 -7 -32 -7t-29 7q0 5 1 24t0.5 29.5t-3 27t-9 25.5t-19 16t-30.5 7q-24 0 -108 -28t-211.5 -56.5t-257.5 -28.5z" />
    <glyph glyph-name="H" unicode="H" horiz-adv-x="1929" 
d="M2105 1434q4 0 5 -21t-1 -42t-6 -21h-55t-42 -3t-34.5 -6.5t-26 -13t-23 -20.5t-19 -31t-19.5 -42t-20 -56l-338 -924q-12 -32 -19 -55.5t-7.5 -42t0.5 -30.5t13 -20t21.5 -12.5t34 -6.5t43 -2.5t55.5 -0.5q4 0 6 -21t1 -42t-5 -21h-174h-377h-176q-3 0 -3.5 21t1.5 42
t6 21q37 0 55 0.5t42.5 3t34.5 6t26 13t23 20.5t18.5 30.5t20 42t20.5 56.5l157 434h-305h-350l-158 -436q-17 -43 -25 -71t-3.5 -47.5t12 -29.5t34.5 -15t50 -6t72 -1q4 0 6 -21t1.5 -42t-3.5 -21h-176h-377h-176q-3 0 -3.5 21t1.5 42t6 21h55t42 3t34.5 6.5t26 13t23 20.5
t19 31t19.5 42t20 56l336 924q13 32 20.5 55.5t8 42t-0.5 30.5t-12.5 20t-21 12.5t-34.5 6.5t-43.5 2.5t-55.5 0.5q-4 0 -6 21t-1.5 42t3.5 21h176h377h174q4 0 5 -21t-1 -42t-6 -21q-37 0 -55 -0.5t-42.5 -3t-34.5 -6t-26 -13t-23 -20.5t-18.5 -30.5t-20 -42t-20.5 -56.5
l-143 -394h348h307l144 396q17 43 25 71t3.5 47.5t-12 29.5t-34.5 15t-50 6t-72 1q-4 0 -6 21t-1.5 42t3.5 21h176h377h174z" />
    <glyph glyph-name="I" unicode="I" horiz-adv-x="931" 
d="M934 1434h174q4 0 5 -21t-1 -42t-6 -21q-37 0 -55 -0.5t-42.5 -3t-34.5 -6t-26 -13t-23 -20.5t-18.5 -30.5t-20 -42t-20.5 -56.5l-336 -924q-17 -43 -25 -71t-3.5 -47.5t12 -29.5t34.5 -15t50 -6t72 -1q4 0 6 -21t1.5 -42t-3.5 -21h-176h-377h-176q-3 0 -3.5 21t1.5 42
t6 21h55t42 3t34.5 6.5t26 13t23 20.5t19 31t19.5 42t20 56l336 924q13 32 20.5 55.5t8 42t-0.5 30.5t-12.5 20t-21 12.5t-34.5 6.5t-43.5 2.5t-55.5 0.5q-4 0 -6 21t-1.5 42t3.5 21h176h377z" />
    <glyph glyph-name="J" unicode="J" horiz-adv-x="919" 
d="M-231 -272q-7 -2 -11 11q-11 31 -4 65q3 9 6 12q16 8 47 22.5t49 23.5t48.5 25t50 29t47.5 33.5t47.5 40.5t43.5 47.5t42.5 57.5t37.5 67.5t34 79.5l330 917q18 47 26.5 77.5t0 52t-18 32t-47.5 16t-67.5 6t-98.5 0.5q-6 0 -8.5 22.5t-1.5 45.5t6 23h239h389h213
q4 0 5 -23t-1 -45.5t-6 -22.5h-55t-44.5 -1.5t-38.5 -3.5t-30 -7t-26.5 -11t-20.5 -17t-19.5 -23t-16.5 -31t-17.5 -40t-17.5 -50l-287 -774q-36 -100 -85.5 -184t-102 -144.5t-119.5 -110.5t-125.5 -82.5t-133.5 -60.5t-130.5 -43t-128.5 -32z" />
    <glyph glyph-name="K" unicode="K" horiz-adv-x="1736" 
d="M1903 1434q3 0 3 -23t-1.5 -45.5t-3.5 -22.5q-128 0 -217.5 -25.5t-213.5 -113.5l-608 -440q127 53 225 53q323 0 314 -360l2 -17q-2 -81 0.5 -136.5t11 -96.5t20.5 -64.5t35 -37.5t48 -18t65 -5q3 0 5 -20.5t2 -41t-3 -20.5h-190h-199q-45 7 -74 31.5t-42 65t-16.5 85.5
t-0.5 105l2 119q2 66 -5.5 111.5t-30 84.5t-67.5 58.5t-114 19.5q-85 0 -186 -64l-129 -352q-10 -27 -17 -47.5t-9.5 -37.5t-3.5 -29.5t4 -22.5t9.5 -16.5t17.5 -11t23 -6.5t31.5 -3.5t36.5 -1.5h45q4 0 6 -22t1.5 -44t-3.5 -22h-174h-379h-176q-3 0 -3.5 21t1.5 42t6 21h55
t42 3t34.5 6.5t26 13t23 20.5t19 31t19.5 42t20 56l334 924q13 32 20.5 55.5t8 42t-0.5 30.5t-12.5 20t-21 12.5t-34.5 6.5t-43.5 2.5t-55.5 0.5q-4 0 -6 21t-1.5 42t3.5 21h176h377h188q4 0 5 -22t-1 -44t-6 -22q-40 0 -59.5 -0.5t-46 -3t-38 -6.5t-28.5 -14t-24.5 -21.5
t-19.5 -32.5t-21 -44t-21 -59l-149 -413l602 436q37 27 61 45.5t41 35.5t23.5 27t3 18.5t-15 13t-36.5 7.5t-55 3.5t-77 0.5q-4 0 -7 23.5t-3 47.5t5 24h306h145h197z" />
    <glyph glyph-name="L" unicode="L" horiz-adv-x="1552" 
d="M477 94h160h80q59 1 105.5 -0.5t90.5 5.5t80.5 17t77 34t79.5 56.5t88 85t103 118.5t123 157q7 11 42 4q20 -5 18 -12l-318 -653q-5 -8 -29.5 -8.5t-29.5 8.5q-2 20 -10.5 35t-18 25t-28.5 17t-32.5 10t-39.5 5t-38.5 2h-41.5h-16h-793h-174q-4 0 -5 21t1 42t6 21
q37 0 55 0.5t42.5 3t35 6t26.5 13t23 20.5t18.5 30.5t20 42t19.5 56.5l335 922q13 32 20 55.5t7.5 42t-0.5 30.5t-13.5 20t-22.5 12.5t-35.5 6.5t-44.5 2.5t-58 0.5q-4 0 -6 21t-1.5 42t3.5 21h182l385 2h258q5 0 6 -22t-1.5 -44t-8.5 -22q-73 -1 -104.5 -1.5t-73 -7
t-56.5 -17t-37 -33.5t-34 -52.5t-29 -79.5z" />
    <glyph glyph-name="M" unicode="M" horiz-adv-x="2174" 
d="M152 0h-220q-3 3 -3 21.5t2.5 40.5t5.5 22q130 0 194.5 44.5t116.5 184.5l307 858q10 27 16.5 47.5t8.5 37.5t3 30t-5.5 22.5t-12 16t-21 11t-27 7t-36.5 4t-43.5 1.5h-52.5q-4 0 -6 21.5t-1.5 43t3.5 21.5h203h428l151 -725l740 725h272h205q4 0 5 -22t-1.5 -44
t-7.5 -22q-42 0 -63.5 -0.5t-49.5 -3t-40.5 -6.5t-30.5 -14t-26 -21.5t-20.5 -32.5t-21.5 -44t-21 -59l-327 -899q-13 -33 -20.5 -57.5t-8.5 -43.5t0 -31.5t13 -21t21.5 -13t34.5 -6.5t43.5 -2.5t55.5 -0.5q3 0 4.5 -22t1 -44t-3.5 -22h-174l-383 -2h-203q-4 0 -5 21.5t1 43
t6 21.5q57 1 82.5 1.5t58 7t45.5 16t31.5 31.5t30 50.5t27.5 75.5l340 928l-578 -571q-45 -46 -137 -137.5t-137 -137.5q-9 -9 -12.5 -8t-6.5 10l-213 920l-348 -953q-28 -76 -33 -120t17.5 -71t67.5 -35.5t128 -8.5q5 0 8 -21t2.5 -42t-4.5 -21h-278h-98z" />
    <glyph glyph-name="N" unicode="N" horiz-adv-x="1867" 
d="M1317 0l-647 1212l-322 -880q-28 -79 -33.5 -125t16.5 -73.5t67 -36.5t128 -9q4 0 6.5 -22t2 -44t-4.5 -22h-278h-98h-226q-4 0 -4.5 21t2 42t6.5 21q135 0 201.5 44.5t118.5 184.5l309 865q10 26 16.5 46t8.5 37t3 29t-6 22t-12.5 16t-21.5 10.5t-28 6.5t-38 3.5
t-44 1.5h-54q-4 0 -6 21t-1 42t5 21h207h407l494 -957l229 637q27 76 30.5 120.5t-21.5 71t-73.5 35.5t-137.5 9q-5 0 -8 21t-3 42t4 21h299h99h196q3 0 3 -21t-2 -42t-5 -21q-115 0 -176 -45t-113 -183l-405 -1118q-5 -14 -42 -15.5t-48 11.5z" />
    <glyph glyph-name="O" unicode="O" horiz-adv-x="1818" 
d="M700 -27q-277 0 -434 130.5t-157 351.5q0 137 56 281t161 272.5t242 230t313 161.5t360 60q275 0 432.5 -131t157.5 -352q0 -138 -56 -282.5t-161 -272.5t-242 -229t-312.5 -160.5t-359.5 -59.5zM737 82q109 0 212.5 47.5t184.5 126.5t149.5 180.5t114 210t70.5 214.5
t25 194q0 143 -74 220t-217 77q-94 0 -184 -35.5t-164 -96.5t-139.5 -141t-114 -170.5t-83.5 -184t-53 -182.5t-18 -165q0 -142 74.5 -218.5t216.5 -76.5z" />
    <glyph glyph-name="P" unicode="P" horiz-adv-x="1605" 
d="M1210 1434q261 0 404 -84t143 -228q0 -48 -16 -101.5t-50.5 -110t-83.5 -110t-119.5 -101t-153.5 -83t-190.5 -56.5t-225.5 -21h-281l-90 -252q-19 -49 -27 -81.5t2 -55t22 -33.5t55.5 -17t79 -7t114.5 -1q6 0 8.5 -23t1.5 -46t-6 -23h-279h-393h-176q-3 0 -3.5 21
t1.5 42t6 21q37 0 55 0.5t42.5 3t34.5 6t26 13t23 20.5t18.5 30.5t20 42t20.5 56.5l335 924q13 32 20 55.5t8 42t-0.5 30.5t-13.5 20t-22 12.5t-35 6.5t-43.5 2.5t-56.5 0.5q-4 0 -6 21t-1 42t5 21h178h649zM813 633q129 0 242.5 45t188.5 116t118 159t43 175q0 105 -92 158
t-264 53h-105q-3 -5 -12 -22t-16 -31.5t-18.5 -38.5t-25 -57t-28.5 -74l-172 -483h141z" />
    <glyph glyph-name="Q" unicode="Q" horiz-adv-x="1818" 
d="M2605 -199l51 -26q-67 -83 -111.5 -134t-97.5 -104t-94.5 -81t-88.5 -46t-95 -18q-159 0 -422.5 60t-493 131.5t-449.5 131.5t-304 60q-16 0 -121 -54q-20 -145 -162 -145q-40 0 -43 38q-6 50 54 109q29 30 71 54l262 207q-214 31 -333 156t-119 315q0 137 56 281
t161 272.5t242 230t313 161.5t360 60q275 0 432.5 -131t157.5 -352q0 -138 -56 -282.5t-161 -272.5t-242 -229t-312.5 -160.5t-359.5 -59.5h-32l-197 -147q3 1 94 43.5t125 42.5q89 0 332.5 -48.5t490.5 -107t486 -107t319 -48.5q61 0 120 41.5t167 158.5zM446 377
q0 -142 74.5 -218.5t216.5 -76.5q109 0 212.5 47.5t184.5 126.5t149.5 180.5t114 210t70.5 214.5t25 194q0 143 -74 220t-217 77q-94 0 -184 -35.5t-164 -96.5t-139.5 -141t-114 -170.5t-83.5 -184t-53 -182.5t-18 -165z" />
    <glyph glyph-name="R" unicode="R" horiz-adv-x="1820" 
d="M1784 1161q0 -70 -37.5 -143.5t-108.5 -143.5t-188 -130.5t-264 -98.5q229 -49 237 -209l9 -112q5 -90 12.5 -135.5t35 -68.5t55 -26.5t97.5 -3.5q3 0 5 -22.5t2 -45t-3 -22.5h-184h-219q-21 2 -39 8t-31 12t-23.5 17.5t-17 19.5t-11.5 25t-8 26t-4.5 30t-2 29.5t-1.5 32
t-1 31.5l-7 113q-3 54 -16.5 94.5t-40 67t-57.5 43.5t-78.5 25t-93 11t-111.5 3h-24l-113 -316q-11 -28 -18 -49.5t-8.5 -39.5t-2.5 -31t8 -23.5t15.5 -17t26 -11t33.5 -7t45 -4t53 -1.5h65q5 0 7.5 -22t1.5 -44t-5 -22h-250h-395q-37 0 -182 8q-4 0 -4 21.5t3 43t7 21.5
q39 -2 57.5 -2.5t44.5 1t36.5 4.5t27.5 12t24.5 20t19.5 31t21 42.5t21 57.5l332 914q10 26 16.5 46.5t9 37.5t3.5 29.5t-5 22t-10.5 16t-19 11t-25 6.5t-33.5 3.5t-39.5 1.5h-48.5q-4 0 -6 21.5t-1.5 43t3.5 21.5h186h668q263 0 406 -69t143 -204zM768 682q133 0 246 29.5
t189 78t130 111.5t78.5 129.5t24.5 132.5q0 103 -83 139.5t-284 36.5h-117q-55 -107 -98 -223l-156 -434h70z" />
    <glyph glyph-name="S" unicode="S" horiz-adv-x="1394" 
d="M590 -27q-129 0 -257 16.5t-165 16.5q-38 0 -65.5 -24t-61.5 -74q-3 -5 -31 -6t-28 6l174 610q2 5 18 10t29.5 5.5t15.5 -3.5q-4 -115 12.5 -197t47.5 -131.5t84 -78t111 -38t140 -9.5q107 0 188.5 25.5t126.5 66.5t67 86t22 90q0 76 -92.5 134.5t-304.5 131.5
q-166 62 -238 140t-72 180q0 71 25.5 144t80.5 142.5t132 123.5t189 87t243 33q92 0 209 -16.5t143 -16.5q19 0 36 6.5t32 20.5t23 22.5t21.5 28.5t14.5 21q3 4 18 5t29 -0.5t13 -4.5l-168 -598q-3 -6 -34 -12.5t-32 -0.5q9 127 -14.5 215.5t-77 137t-122.5 69.5t-163 21
q-85 0 -151 -24.5t-102.5 -63.5t-55 -81.5t-18.5 -84.5q0 -64 67.5 -107t270.5 -116q179 -64 277.5 -155.5t98.5 -209.5q0 -101 -60 -201t-157.5 -174.5t-227 -121t-261.5 -46.5z" />
    <glyph glyph-name="T" unicode="T" horiz-adv-x="1572" 
d="M446 0h-256q-5 0 -6 24t2 48t9 24h66t53 1.5t46 3.5t35.5 7.5t31 12t24 18.5t22.5 25t18.5 34t19.5 43t19 54l385 1044h-67q-94 0 -170 -33.5t-179 -135.5t-245 -296q-6 -8 -39 3q-15 6 -14 10l311 641q3 6 29 7t28 -5q6 -56 61 -76t208 -20h573q147 0 213 21t111 73
q5 5 19.5 6.5t26.5 -0.5t11 -6l-156 -641q0 -4 -16 -9t-29.5 -6t-15.5 2q0 146 -14 238t-47.5 142t-77.5 67.5t-115 17.5h-70l-377 -1048q-19 -50 -28 -82.5t-0.5 -55t18 -33.5t48.5 -16.5t69 -6.5t100 -1q5 0 7.5 -24t1.5 -48t-5 -24h-243h-396z" />
    <glyph glyph-name="U" unicode="U" horiz-adv-x="1769" 
d="M760 -18q-87 0 -160.5 12.5t-142 41t-113 79t-68 121t-12.5 173.5t58 230l194 541q12 32 19 55.5t7.5 42t-0.5 30.5t-13 20t-21.5 12.5t-34 6.5t-43 2.5t-55.5 0.5q-4 0 -6 21t-1 42t5 21h174h377h176q3 0 3.5 -21t-1.5 -42t-6 -21q-37 0 -55 -0.5t-42.5 -3t-34.5 -6
t-26 -13t-23 -20.5t-18.5 -30.5t-20 -42t-20.5 -56.5l-192 -521q-23 -63 -38.5 -115t-28 -113.5t-13 -109t12 -94.5t40.5 -77t79.5 -49t123.5 -19q215 0 381 158.5t262 420.5l162 441q29 80 34 126.5t-20 74t-73 36.5t-138 9q-4 0 -7 22t-2.5 44t5.5 22h297h100h176
q2 0 2 -20t-1.5 -40t-4.5 -20q-104 0 -158 -41t-102 -170l-182 -500q-35 -95 -90 -188t-132.5 -179t-167 -151t-199 -104t-222.5 -39z" />
    <glyph glyph-name="V" unicode="V" horiz-adv-x="1804" 
d="M2054 1434q2 0 2 -21t-1.5 -42t-4.5 -21q-101 0 -172 -35t-164 -144l-700 -837l-307 -361h-11l-143 1155q-5 42 -9.5 72.5t-13 54.5t-14.5 39t-20.5 26t-24 16t-33.5 8t-40 3.5t-50 0.5q-3 0 -5 21.5t-2 43t3 21.5h174h379h227q4 0 4.5 -22t-2 -44t-6.5 -22
q-36 0 -54.5 -0.5t-44.5 -2t-37.5 -4.5t-28.5 -9t-23 -14.5t-14 -21.5t-9.5 -29.5t-2.5 -39.5t1.5 -50t7.5 -63l84 -666l580 689q33 40 52.5 67.5t32 50.5t10.5 37t-11 24.5t-34.5 15.5t-57.5 7t-82 2q-4 0 -7 23.5t-2.5 47.5t5.5 24h289h114h166z" />
    <glyph glyph-name="W" unicode="W" horiz-adv-x="2557" 
d="M2808 1434q2 0 2 -21t-1.5 -42t-4.5 -21q-101 0 -171.5 -35t-162.5 -146l-680 -833l-303 -363h-12l-89 854l-391 -485l-305 -369h-10l-109 1059q-9 88 -20.5 145t-27 94t-41.5 55t-55 24.5t-77 7.5q-3 0 -5 19t-2 38t3 19h191h1155h235q4 0 4.5 -22t-2.5 -44t-8 -22
q-49 -1 -80 -6t-57.5 -20.5t-39 -41t-19 -70t-4 -105t11.5 -149.5l47 -497l555 676q37 47 58 77.5t29 55t2 37.5t-30 22t-59.5 11.5t-93.5 2.5q-4 0 -7.5 24.5t-3.5 45.5t4 25h291h117h166zM985 461l391 483l-33 311q-16 50 -73 74.5t-133 26.5q-90 -2 -151.5 -27t-74.5 -76
z" />
    <glyph glyph-name="X" unicode="X" horiz-adv-x="1849" 
d="M2005 1434q3 0 3 -22t-1.5 -44t-3.5 -22q-105 0 -183 -30t-184 -128l-471 -436l152 -439q12 -34 21.5 -60.5t21 -48.5t19 -37.5t20.5 -28t21 -20.5t25 -13.5t27 -8.5t33 -4.5t37 -1.5h45q4 0 6.5 -22.5t2 -45t-4.5 -22.5h-188h-395h-228q-4 0 -4.5 22.5t2 45t6.5 22.5
q61 0 86 1t57.5 7.5t39 19.5t10.5 39t-6 63t-31 95l-109 312l-421 -377q-36 -32 -57.5 -54t-36 -41t-13.5 -30t9 -19.5t33 -12.5t56.5 -5.5t81.5 -1.5q5 0 8 -21.5t2.5 -43t-4.5 -21.5h-288h-133h-164q-3 0 -3.5 21.5t1 43t4.5 21.5q105 0 182.5 29.5t185.5 126.5l529 469
l-141 409q-29 86 -50 129.5t-56.5 65.5t-64.5 25t-102 3q-3 0 -5 22.5t-1.5 45.5t4.5 23h188h394h229q4 0 4 -23t-3 -45.5t-7 -22.5q-60 0 -85 -1t-57 -7.5t-38.5 -19.5t-10.5 -39t6 -63t31 -95l97 -280l358 329q43 41 67.5 67t34.5 47t4.5 32t-31 18.5t-63 9.5t-100.5 2
q-5 0 -8 22.5t-2.5 45.5t4.5 23h309h131h166z" />
    <glyph glyph-name="Y" unicode="Y" horiz-adv-x="1710" 
d="M1958 1434q3 0 3 -21t-1.5 -42t-3.5 -21q-109 0 -183 -33.5t-169 -142.5l-564 -652l-82 -231q-19 -50 -27.5 -82.5t0 -55t18 -33.5t48.5 -16.5t68.5 -6.5t99.5 -1q6 0 8.5 -24t1.5 -48t-6 -24h-241h-398h-272q-5 0 -6 24t1.5 48t8.5 24q78 0 110.5 0.5t77 7t60 17t39 35
t36.5 55.5t31 84l78 203l-121 628q-8 43 -15 73.5t-17 54.5t-17 39.5t-22.5 26.5t-25.5 16t-33.5 8t-40 3.5t-50.5 0.5q-3 0 -5 21.5t-2 43t3 21.5h174h389h228q4 0 4.5 -21t-2 -42t-6.5 -21q-45 0 -67 -0.5t-51 -3.5t-41 -8.5t-27 -17t-18.5 -26.5t-6 -39.5t1 -55
t10.5 -73.5l80 -505l465 534q37 43 58 71.5t29 51t3 35t-27 20.5t-55.5 10.5t-87.5 2.5q-4 0 -6.5 22t-2 44t4.5 22h268h119h174z" />
    <glyph glyph-name="Z" unicode="Z" horiz-adv-x="1490" 
d="M381 94h330q81 0 142.5 8.5t120.5 39.5t98 57t100.5 95.5t100 118.5t122.5 160q6 3 18.5 1.5t25 -6t11.5 -7.5l-320 -655q-3 -4 -28 -3.5t-27 3.5q-9 48 -53 71t-141 23h-963q-3 0 2 16.5t12.5 34t10.5 19.5l1304 1269h-153q-101 0 -147.5 -2t-114 -16.5t-106 -40.5
t-102 -81t-124.5 -130t-152 -195q-6 -8 -42 4q-13 6 -13 9l313 641q5 5 29.5 4.5t26.5 -4.5q7 -49 58 -71.5t154 -22.5h844q3 0 -9 -32t-15 -38z" />
    <glyph glyph-name="bracketleft" unicode="[" horiz-adv-x="739" 
d="M-170 -406l729 2001h551l-12 -32h-248l-707 -1942h248l-10 -27h-551z" />
    <glyph glyph-name="backslash" unicode="\" horiz-adv-x="972" 
d="M614 -340h-106l-166 1888h107z" />
    <glyph glyph-name="bracketright" unicode="]" horiz-adv-x="739" 
d="M942 1587l-729 -2001h-553l12 33h250l705 1942h-248l10 26h553z" />
    <glyph glyph-name="asciicircum" unicode="^" horiz-adv-x="1173" 
d="M223 741l692 693h17l188 -693h-24l-181 658l-659 -658h-33z" />
    <glyph glyph-name="underscore" unicode="_" horiz-adv-x="1306" 
d="M-211 -139l10 26h1245l-8 -26h-1247z" />
    <glyph glyph-name="grave" unicode="`" horiz-adv-x="1146" 
d="M924 1288q8 -5 -2.5 -20.5t-27 -28.5t-24.5 -10q-353 144 -299 291q15 43 49 65.5t78 22.5q38 0 58 -17t30 -49t20.5 -69.5t40 -88.5t77.5 -96z" />
    <glyph glyph-name="a" unicode="a" horiz-adv-x="1472" 
d="M1315 350q6 6 18.5 -3.5t21.5 -23t5 -18.5q-82 -104 -180.5 -196.5t-157.5 -124.5q-41 -22 -92.5 -10.5t-90.5 49.5t-59.5 94t0.5 123l58 180h-13q-136 -203 -291 -327t-270 -124q-77 0 -144 62.5t-67 136.5q0 110 60 245.5t154 257t200.5 225t209.5 165t171 61.5
q24 0 44.5 -2t48.5 -9.5t44.5 -12.5t61 -20t69.5 -23q27 57 29 61q10 11 126 5q131 -8 124 -27q-246 -644 -324 -895q-8 -27 1 -39.5t26 -12.5q61 12 217 203zM438 180q45 0 107 44t121 110.5t115 143t96.5 143.5t58.5 110l55 133q-61 55 -133.5 97.5t-101.5 42.5
q-58 0 -127.5 -73t-126 -180.5t-95 -241t-38.5 -245.5q0 -36 25 -60t44 -24z" />
    <glyph glyph-name="b" unicode="b" horiz-adv-x="1361" 
d="M190 63q-109 -103 -110 -104q-8 0 -25 2t-33.5 8t-15.5 13q86 228 264.5 729.5t182.5 513.5q58 165 79 198q-10 1 -24.5 1t-43 -0.5t-54.5 -0.5q-7 -1 -9 15.5t1.5 34t9.5 18.5q267 67 460 88q34 3 21 -35q-30 -65 -70.5 -171t-124 -334.5t-135.5 -368.5h10
q154 221 301.5 336.5t276.5 115.5q70 0 132.5 -64t62.5 -161q0 -99 -59.5 -227.5t-153 -248.5t-200 -223.5t-210 -166t-172.5 -62.5q-55 0 -154.5 26t-206.5 68zM963 911q-45 0 -108.5 -43.5t-124.5 -109.5t-118 -140t-96.5 -139t-52.5 -102l-55 -150q69 -62 137 -100.5
t102 -38.5q73 0 163.5 116t155 292t66.5 331q0 36 -25 60t-44 24z" />
    <glyph glyph-name="c" unicode="c" horiz-adv-x="1214" 
d="M432 -27q-169 0 -281 92t-112 267q0 118 51 238.5t134 217.5t184 173.5t207 118.5t196 42q149 0 243.5 -56t94.5 -142q0 -67 -85.5 -126t-172.5 -59q-43 0 -43 31q0 134 -37 193t-117 59q-71 0 -151.5 -95t-135.5 -247t-55 -299q0 -120 55 -186t168 -66q71 0 162 38.5
t205.5 131.5t214.5 227q7 7 19 2.5t22 -16t6 -18.5q-182 -244 -383.5 -382.5t-388.5 -138.5z" />
    <glyph glyph-name="d" unicode="d" horiz-adv-x="1488" 
d="M1552 1579q20 1 25 -9.5t-4 -25.5q-38 -77 -246.5 -636.5t-253.5 -710.5q-6 -20 2 -35t23 -15q62 13 217 203q6 6 18.5 -3.5t21.5 -23t5 -18.5q-80 -101 -181.5 -197t-156.5 -126q-34 -18 -75.5 -12.5t-76.5 30t-62.5 62t-34 84.5t8.5 96q14 39 60 178h-11
q-137 -200 -295.5 -325.5t-273.5 -125.5q-72 0 -140.5 62.5t-68.5 134.5q0 109 60 244.5t154 257.5t200.5 226t208.5 166t168 62q77 0 235 -45q11 31 32.5 88.5t25.5 67.5q57 161 75 190q-9 1 -18.5 1t-41 -0.5t-71.5 -0.5q-7 -1 -9.5 15t0 33t9.5 18q283 71 471 90z
M440 180q44 0 105.5 46t121.5 114.5t116.5 145.5t96 143t54.5 102l53 131q-65 63 -131 102.5t-104 39.5q-55 0 -123.5 -73.5t-125 -182t-95.5 -241.5t-39 -243q0 -35 26.5 -59.5t44.5 -24.5z" />
    <glyph glyph-name="e" unicode="e" horiz-adv-x="1214" 
d="M1169 539q9 8 27.5 -9t11.5 -26q-40 -60 -95 -126t-135 -139.5t-165.5 -130.5t-189.5 -95t-203 -38q-181 0 -281 100t-100 259q0 108 45.5 223t125 214.5t178.5 179t213.5 125.5t221.5 46q143 0 235.5 -66t92.5 -147q0 -44 -19.5 -83.5t-64.5 -76.5t-105.5 -71
t-154.5 -72t-199 -74.5t-252 -82.5q-4 -46 -4 -66q0 -70 20 -121.5t53 -79t69 -40.5t75 -13q287 0 600 410zM717 1022q-74 0 -147.5 -75t-124.5 -184.5t-76 -227.5q173 66 271.5 109.5t150 82t64.5 67t13 74.5q0 154 -151 154z" />
    <glyph glyph-name="f" unicode="f" horiz-adv-x="854" 
d="M-258 -500q-52 0 -116 11t-125.5 30.5t-102.5 53t-41 73.5q0 56 60.5 125.5t97.5 69.5q32 0 49 -41q91 -209 233 -234q43 0 91 51.5t79 141.5l428 1235h-151l39 80h139q35 100 98.5 183.5t137 137.5t157 91.5t158.5 54t141 16.5q53 0 113 -12.5t115 -35.5t91.5 -61.5
t36.5 -83.5q0 -63 -85.5 -115t-182.5 -52q-13 0 -20.5 8.5t-7.5 21.5q-5 124 -39 179t-121 55q-58 0 -130.5 -88.5t-127.5 -255.5l-15 -43l314 -2l-39 -78h-303l-340 -983q-38 -110 -98 -202t-126 -152t-139.5 -101.5t-140.5 -59.5t-127 -18z" />
    <glyph glyph-name="g" unicode="g" horiz-adv-x="1331" 
d="M1157 1116q10 8 127 3q137 -5 129 -25q-290 -720 -387 -1108q-24 -99 -72 -180.5t-112.5 -138t-139 -98.5t-157 -66t-160 -35t-154.5 -11q-88 0 -157.5 13.5t-111 34t-69 49t-37.5 56t-10 56.5q0 37 23 73t55.5 64t88.5 60.5t101.5 54.5t115.5 55q16 7 24 11
q-71 14 -128.5 70t-57.5 120q0 137 92 309t219.5 310.5t267.5 233.5t232 95q73 0 256 -65q12 27 22 59zM963 715l57 149q-61 61 -136.5 100.5t-117.5 39.5q-57 0 -125.5 -72t-125 -179t-94.5 -239.5t-38 -243.5q0 -36 30.5 -56.5t53.5 -20.5q45 0 107.5 42.5t123 107
t116.5 137t95.5 136t53.5 99.5zM707 -106q34 171 67 282.5t92 251.5h-12q-115 -166 -236 -275.5t-229 -150.5q-18 -14 -60.5 -45.5t-55.5 -41.5t-41 -34t-36.5 -36.5t-22 -33t-17.5 -40t-4 -43.5q0 -81 73 -126.5t199 -45.5q122 0 186.5 81t96.5 257z" />
    <glyph glyph-name="h" unicode="h" horiz-adv-x="1490" 
d="M1331 350q4 3 11 0.5t13.5 -8.5t13 -13.5t8 -14t-0.5 -9.5q-79 -103 -179.5 -197t-156.5 -124q-42 -22 -93 -9t-88.5 52.5t-57 96.5t1.5 122q33 105 75.5 222t86.5 249q55 158 0 184q-82 -12 -245 -185t-241 -321q-59 -135 -119 -329q-5 -16 -12 -24t-24 -15
q-115 -47 -291 -47q-23 0 -26.5 7t5.5 29q38 90 122.5 322.5t180.5 500.5t127 351q13 36 29 78t23.5 63.5t16 43t13 32.5t8.5 16q-10 1 -18.5 1t-37.5 -0.5t-66 -0.5q-7 -1 -9 15.5t1.5 34t9.5 18.5q14 4 69.5 17.5t72 17.5t63 14t76 15t76 11.5t95.5 12.5q18 1 24.5 -13.5
t-1.5 -31.5q-14 -29 -27.5 -62.5t-38.5 -100.5t-52.5 -142t-85.5 -232t-120 -325h12q139 176 263 286t256 154q55 19 108 -3.5t85 -73t42.5 -118t-20.5 -139.5q-63 -150 -211 -579q-17 -52 16 -52q61 12 217 203z" />
    <glyph glyph-name="i" unicode="i" horiz-adv-x="841" 
d="M594 1229q-79 0 -113.5 46.5t-9.5 117.5q27 70 95 116.5t149 46.5q78 0 112.5 -45.5t8.5 -117.5q-26 -74 -92.5 -119t-149.5 -45zM154 244q13 38 114 329t109 314q7 23 2 40.5t-19 16.5q-48 -13 -172 -143q-4 -5 -15.5 2.5t-20.5 19.5t-5 19q171 206 308 268
q34 18 80.5 5.5t83.5 -49t54.5 -94t-5.5 -130.5q-32 -94 -105.5 -311t-113.5 -332q-8 -28 -2.5 -40t18.5 -12q61 12 217 203q8 8 30 -14.5t17 -30.5q-83 -104 -182 -197t-156 -124q-33 -18 -73.5 -13t-74.5 29t-61.5 61.5t-34.5 84.5t7 98z" />
    <glyph glyph-name="j" unicode="j" horiz-adv-x="718" 
d="M635 1229q-79 0 -113.5 46.5t-9.5 117.5q27 70 95 116.5t149 46.5q78 0 112.5 -45.5t8.5 -117.5q-26 -74 -92.5 -119t-149.5 -45zM463 1110q34 18 81 5.5t84.5 -49.5t55 -94.5t-7.5 -129.5q-84 -236 -297 -817q-82 -230 -259.5 -377.5t-375.5 -147.5q-24 0 -77 8
t-123.5 25.5t-121.5 53t-51 81.5q0 34 20 71t47 63t53 43.5t38 17.5q7 0 15.5 -8t21 -31t20 -37.5t25.5 -52.5q86 -140 203 -140q106 0 192 238q53 150 146.5 410.5t157.5 439.5t71 201q10 28 6.5 44.5t-18.5 16.5q-51 -16 -172 -143q-5 -5 -16.5 2.5t-20 19.5t-4.5 19
q170 204 307 268z" />
    <glyph glyph-name="k" unicode="k" horiz-adv-x="1396" 
d="M1171 807q-9 0 -14 3t-7 11.5t-2 14.5t0.5 20t0.5 21q0 71 -36.5 107t-100.5 36q-70 0 -201 -141q135 -443 256 -697q10 -25 15.5 -35.5t17 -20t28.5 -9.5q44 36 75.5 68t65 73t46.5 55q8 7 18 0t17.5 -21t3.5 -20q-30 -44 -85.5 -108t-131 -125.5t-121.5 -61.5
q-130 0 -191 152q-84 193 -188 530q-99 -137 -201 -307q-18 -49 -50 -148.5t-50 -148.5q-8 -22 -33 -30q-90 -37 -299 -41q-10 -2 -13 0.5t1 19.5q46 117 138 375t186.5 531t97.5 280q72 200 92 235q-1 0 -34 -1t-89 -1q-7 -1 -7.5 15t3.5 33t10 18q270 69 457 90
q36 3 20 -35q-86 -194 -301 -811q-15 -42 -22 -63h14q87 121 154.5 199t141.5 138.5t150 87.5t164 27q81 0 138.5 -13t86 -35t40.5 -44.5t12 -48.5q0 -61 -90 -117.5t-183 -56.5z" />
    <glyph glyph-name="l" unicode="l" horiz-adv-x="786" 
d="M393 201q-17 -54 17 -54q62 13 217 203q10 8 31 -14.5t16 -30.5q-84 -106 -181.5 -197.5t-156.5 -123.5q-41 -22 -92.5 -9t-89.5 52t-58 95.5t2 121.5q52 153 166.5 472t175.5 474q15 40 30 81t22.5 62t15 41t13 31t11.5 18q-10 1 -18.5 1t-37.5 -0.5t-66 -0.5
q-7 -1 -9 15.5t1.5 34t9.5 18.5q146 36 240 55t220 33q34 3 21 -35q-23 -45 -103 -257t-161 -434.5t-156.5 -431.5t-79.5 -220z" />
    <glyph glyph-name="m" unicode="m" horiz-adv-x="2203" 
d="M2044 350q4 3 11 0.5t13.5 -8.5t13 -13.5t8 -14t-0.5 -9.5q-82 -105 -179.5 -197.5t-154.5 -123.5q-42 -22 -93 -9t-88.5 52.5t-57 96.5t1.5 122q27 81 78 229t81 242q30 99 28 136t-30 48q-79 -12 -244 -195.5t-268 -404.5q-15 -45 -41.5 -126.5t-36.5 -113.5
q-7 -24 -34 -34q-131 -51 -289 -47q-23 0 -27.5 7t4.5 29q64 144 254 703q31 103 27.5 139t-33.5 43q-70 -11 -225.5 -179.5t-235.5 -326.5q-46 -95 -123 -336q-9 -23 -32 -32q-128 -51 -293 -47q-22 0 -26 7.5t5 26.5q135 322 318 871q10 25 5.5 42t-22.5 17
q-46 -11 -172 -143q-4 -4 -15 4t-19 19.5t-5 17.5q166 200 306 270q35 18 81 6t83 -48.5t55 -94.5t-4 -133l-56 -170h11q97 122 165 196.5t160 142.5t191 101q53 19 103 -3.5t78.5 -72t36.5 -117t-22 -139.5q-1 -4 -17.5 -45.5t-23.5 -62.5h11q162 206 267 298t253 142
q54 19 103.5 -3.5t78 -72t36.5 -117.5t-22 -141q-28 -71 -51 -132.5t-37.5 -103.5t-50.5 -148t-67 -195q-8 -25 -4 -38.5t18 -13.5q36 7 88.5 59.5t126.5 143.5z" />
    <glyph glyph-name="n" unicode="n" horiz-adv-x="1538" 
d="M1378 350q4 3 11 0.5t13.5 -8.5t13 -13.5t8 -14t-0.5 -9.5q-82 -105 -179.5 -196.5t-156.5 -124.5q-42 -22 -93.5 -9t-89 52.5t-57 96.5t2.5 122q70 214 162 471q59 165 0 186q-62 -10 -154.5 -89t-175 -184t-131.5 -198q-68 -122 -150 -375q-7 -21 -30 -30
q-112 -47 -291 -47q-23 0 -27.5 6t4.5 28q144 361 318 871q9 26 5 43.5t-18 15.5q-47 -11 -176 -143q-4 -5 -15 2.5t-19.5 19.5t-4.5 19q170 205 306 268q35 18 82 6t84 -48.5t55 -94.5t-4 -131l-60 -170h13q140 177 263 286.5t255 153.5q45 15 89 3t75 -44.5t52.5 -79
t20.5 -100.5t-22 -109q-90 -222 -211 -583q-16 -52 16 -52q61 12 217 203z" />
    <glyph glyph-name="o" unicode="o" horiz-adv-x="1228" 
d="M420 -27q-183 0 -286 90.5t-103 245.5q0 85 30 179t82.5 184t128.5 172t164 143.5t193.5 98t212.5 36.5q184 0 287.5 -90.5t103.5 -247.5q0 -102 -41.5 -216t-118.5 -218.5t-176 -189.5t-224.5 -136t-252.5 -51zM469 47q82 2 169 93t151 220t105.5 270.5t41.5 243.5
q0 178 -145 175q-80 -3 -165.5 -93t-149 -217.5t-105 -270t-41.5 -249.5q0 -175 139 -172z" />
    <glyph glyph-name="p" unicode="p" horiz-adv-x="1406" 
d="M1198 1122q69 0 130 -64t61 -161q0 -89 -44.5 -196.5t-115 -208t-159 -197.5t-176.5 -168t-168 -114.5t-132 -43.5q-66 0 -229 51l-64 -178q-27 -89 -53 -144.5t-70 -129.5q94 -4 144 -4q6 1 7.5 -13.5t-2 -30t-10.5 -16.5q-26 -5 -50.5 -9t-52 -7.5t-46 -6t-50 -5
t-45.5 -4t-50 -4t-46.5 -3t-52.5 -3t-51 -3.5q-6 -2 -12.5 1.5t-9 13t5.5 26.5q55 128 65 160q36 99 219 588.5t234 634.5q9 26 5 43.5t-18 17.5q-53 -16 -174 -143q-4 -5 -15.5 2.5t-20.5 19.5t-5 19q171 205 308 268q35 18 83 5t86 -50.5t55.5 -94.5t-9.5 -126
q-10 -27 -30.5 -84.5t-33.5 -89.5h10q320 452 582 452zM696 88q51 0 118.5 74t124.5 182.5t96.5 242.5t39.5 242q0 34 -23 58t-42 24q-56 0 -139.5 -66.5t-158 -156.5t-133 -177.5t-75.5 -133.5l-51 -150q59 -58 134 -98.5t109 -40.5z" />
    <glyph glyph-name="q" unicode="q" horiz-adv-x="1341" 
d="M262 -31q-74 0 -141.5 62.5t-67.5 136.5q0 110 60 245.5t154 257t201 225t210.5 165t171.5 61.5q37 0 82.5 -10t80.5 -21t103 -36q10 15 18 34t13 27q12 3 69 4t120.5 -6.5t58.5 -19.5q-60 -162 -214.5 -588.5t-240.5 -659.5q-60 -164 -125 -278q47 -2 143 -2
q7 0 8.5 -15t-1.5 -30.5t-9 -16.5q-55 -10 -117.5 -17.5t-100.5 -11t-118 -9t-110 -7.5q-7 -2 -13.5 2t-8.5 13.5t6 25.5q42 93 65 160q27 73 119.5 327.5t159.5 432.5h-11q-146 -208 -294.5 -329.5t-270.5 -121.5zM438 180q55 0 136 68t153 160.5t128.5 180.5t76.5 136
l59 139q-61 60 -131.5 100t-105.5 40q-74 0 -165.5 -119t-155.5 -295t-64 -326q0 -36 25 -60t44 -24z" />
    <glyph glyph-name="r" unicode="r" horiz-adv-x="1245" 
d="M1137 1122q58 0 103.5 -20t70 -52t37 -66t12.5 -69q0 -61 -88 -117.5t-174 -56.5q-17 0 -28 12t-11 25q0 146 -101 146q-48 0 -135.5 -91t-171.5 -216t-137 -236q-42 -88 -117 -322q-10 -23 -32 -32q-118 -47 -293 -47q-21 0 -24.5 7t5.5 29q115 277 312 867
q7 19 7.5 33.5t-4 21.5t-12.5 6q-48 -12 -170 -143q-5 -5 -16 2.5t-19 19.5t-4 19q164 203 306 268q34 18 79 6.5t80 -48t51 -94t-6 -130.5q-8 -24 -19.5 -62.5t-35.5 -115.5h10q285 456 525 456z" />
    <glyph glyph-name="s" unicode="s" horiz-adv-x="1064" 
d="M412 -27q-100 0 -189.5 24t-150 74t-60.5 115q0 52 63 99t148 47q16 0 21.5 -6.5t5.5 -22.5q6 -59 17 -97.5t35.5 -72t69 -49.5t111.5 -16q84 0 138 40t55 107q0 52 -36 89.5t-120 88.5l-69 45q-4 3 -35 21.5t-37.5 23t-33.5 22.5t-35.5 25.5t-30 25.5t-29 29.5t-22 30.5
t-20 36t-10.5 38t-5 43q-2 98 67.5 188t187.5 145.5t250 55.5q93 0 175.5 -23t137 -69t54.5 -106q0 -52 -63.5 -99t-147.5 -47q-27 0 -27 25q-5 59 -16 97.5t-35 68.5t-64.5 43.5t-101.5 13.5q-64 0 -114 -37t-50 -98q-3 -98 144 -191l90 -53q59 -38 98 -67.5t77 -67
t57 -78.5t20 -86q1 -118 -72.5 -205t-190 -128.5t-257.5 -41.5z" />
    <glyph glyph-name="t" unicode="t" horiz-adv-x="888" 
d="M428 199q-9 -28 -4 -40t20 -12q63 13 218 203q10 9 30.5 -14t14.5 -31q-82 -105 -179.5 -197t-156.5 -124q-41 -22 -93.5 -9t-91 52t-58 96t4.5 121q66 176 139 400t127 374h-149l29 76q178 45 312 142.5t249 246.5q6 9 44 6q16 -2 15 -6l-139 -387h305l-35 -78h-305
q-67 -170 -160 -436.5t-137 -382.5z" />
    <glyph glyph-name="u" unicode="u" horiz-adv-x="1536" 
d="M1147 207q-8 -25 -4.5 -43.5t18.5 -18.5q24 6 84 61t133 142q6 6 28.5 -13t16.5 -28q-84 -106 -178 -199t-166 -128q-34 -17 -81.5 -3.5t-86 51t-58 94.5t2.5 128q11 29 29.5 88.5t27.5 85.5h-10q-138 -172 -263.5 -285t-256.5 -155q-44 -15 -88 -4t-75.5 43t-53 78.5
t-20.5 101t22 110.5q31 77 209 578q8 28 3 40.5t-20 12.5q-29 -7 -63.5 -37t-106.5 -106q-10 -9 -28 13t-12 32q120 151 282 258q33 20 74 17t75.5 -26.5t62 -61t34 -85.5t-7.5 -100q-98 -300 -160 -471q-30 -88 -29.5 -130.5t31.5 -53.5q61 10 153.5 88.5t175 182.5
t130.5 195q78 144 149 377q10 23 33 33q125 49 293 45q22 2 25.5 -4t-5.5 -31q-158 -376 -319 -872z" />
    <glyph glyph-name="v" unicode="v" horiz-adv-x="1323" 
d="M1176 1122q57 0 105 -52.5t48 -145.5q0 -89 -36 -195t-98.5 -211.5t-153.5 -204.5t-195 -174.5t-230 -121.5t-251 -46q-29 0 -62 16t-64.5 45t-52 79.5t-20.5 111.5q0 56 20.5 151t43.5 172.5t57.5 188t44.5 144.5q16 65 -13 65q-44 -12 -169 -143q-4 -5 -16 4.5
t-21.5 22.5t-6.5 18q164 200 302 264q34 19 81.5 8t85.5 -47.5t56.5 -95t-4.5 -133.5q-107 -339 -128 -432q-22 -92 -22 -150q0 -68 33.5 -106.5t97.5 -38.5q72 4 157 58.5t156 138t118.5 196t47.5 221.5q0 68 -26.5 116t-83.5 89q-19 11 -19 31q0 19 35 56.5t88 69t95 31.5
z" />
    <glyph glyph-name="w" unicode="w" horiz-adv-x="1875" 
d="M1737 1122q52 0 97.5 -50t45.5 -138q0 -87 -32 -192t-89 -212t-141.5 -208t-183 -179t-220.5 -125t-247 -47q-56 0 -115 59.5t-66 162.5q-87 -116 -194.5 -169t-259.5 -53q-21 0 -48 15.5t-54.5 44t-46.5 79t-19 111.5q0 86 28.5 201t76 257t61.5 195q19 70 -8 70
q-51 -13 -172 -143q-5 -5 -16.5 4t-20 22t-4.5 19q149 189 303 266q33 18 79.5 6.5t84 -48t55 -95t-7.5 -135.5q-84 -258 -116 -391.5t-32 -219.5q0 -46 29 -80t67 -34q56 0 119 46.5t103 131.5q15 103 58.5 244.5t107 313t67.5 183.5q10 26 35 35q103 40 270 47q2 0 4.5 -2
t5 -8.5t-1.5 -18.5q-21 -64 -72.5 -217.5t-72.5 -218t-51 -164t-41.5 -155t-11.5 -90.5q0 -64 29.5 -95.5t80.5 -31.5q95 2 196.5 95t169.5 240t68 291q0 64 -25.5 108.5t-74.5 82.5q-18 15 -18 33q0 32 79 94.5t142 62.5z" />
    <glyph glyph-name="x" unicode="x" horiz-adv-x="1396" 
d="M1260 1118q88 0 156 -64.5t67 -150.5q-2 -46 -61 -90.5t-142 -44.5q-25 0 -25 20q0 193 -61 193q-46 0 -112 -58t-208 -239q30 -241 80 -489q3 -16 5 -23t6 -18.5t10 -16t14 -4.5q29 10 98.5 71.5t124.5 133.5q11 11 31 -10t12 -31q-76 -100 -179 -193t-165 -120
q-64 -30 -144 17t-93 140l-39 238q-176 -218 -284 -308.5t-181 -90.5q-80 0 -151 64.5t-70 150.5q0 41 63.5 88t137.5 47q24 0 24 -21q0 -192 62 -192q48 0 133 76t252 288q-40 287 -66 426q-10 56 -37 56q-27 -10 -94.5 -68t-126.5 -133q-12 -9 -30.5 10.5t-14.5 28.5
q74 99 183.5 195t162.5 116q27 16 65 10.5t74.5 -23t65 -56t35.5 -87.5q17 -122 22 -165q144 176 235.5 251.5t164.5 75.5z" />
    <glyph glyph-name="y" unicode="y" horiz-adv-x="1355" 
d="M1202 1122q61 0 107.5 -55.5t46.5 -142.5q0 -136 -58 -274t-154.5 -252.5t-217 -208t-250.5 -154.5q-135 -62 -206 -122t-71 -134q0 -35 17 -65t39.5 -49.5t59 -38t62.5 -28t62 -20.5q25 -5 25 -31q0 -37 -61.5 -97t-131.5 -60q-85 0 -159 65.5t-74 163.5q0 116 61 206.5
t174 166.5q-43 13 -86.5 39t-87.5 67.5t-71.5 106t-26.5 139.5q1 60 10 107t22.5 85.5t42.5 134t58 212.5q16 61 -15 61q-50 -15 -172 -143q-4 -5 -15.5 3.5t-20 20.5t-5.5 17q172 204 308 268q35 19 82.5 7.5t85.5 -48t55.5 -95.5t-8.5 -134q-133 -390 -133 -580
q0 -68 37 -114t100 -60q21 12 47 25q206 95 320 264t114 352q0 137 -115 207q-18 12 -18 33q0 20 32.5 56.5t86.5 67.5t102 31z" />
    <glyph glyph-name="z" unicode="z" horiz-adv-x="1122" 
d="M772 158q18 0 31.5 13t13.5 34q0 19 -25 57.5t-57 69.5q-21 21 2 47q81 84 160 84q39 0 69.5 -37t30.5 -94q0 -61 -39 -130.5t-94.5 -122.5t-117.5 -88.5t-107 -35.5q-54 0 -143.5 32t-186 64.5t-166.5 32.5q-20 0 -30.5 -14t-10.5 -25q0 -13 21 -51q5 -7 5.5 -16
t-7.5 -15q-53 -39 -101 -39q-18 0 -29 21.5t-11 52.5q0 55 67.5 129.5t159.5 116.5l614 555q-30 -6 -49 -6q-54 0 -183.5 53t-185.5 53q-18 0 -30.5 -12.5t-12.5 -30.5t24.5 -54t53.5 -65q4 -5 6 -10t2 -9t-3 -10t-5 -8.5t-7 -9.5t-7 -10q-22 -27 -62.5 -51.5t-70.5 -24.5
q-51 0 -81 35t-30 84q0 57 46 128t110 128t132.5 96t111.5 39q78 0 247.5 -54t210.5 -54q9 0 13 2l127 114q5 4 20.5 -5t27.5 -21.5t7 -18.5l-868 -798q62 -3 148 -33t157.5 -59t101.5 -29z" />
    <glyph glyph-name="braceleft" unicode="{" horiz-adv-x="813" 
d="M1040 1542q-218 0 -303 -235q-25 -69 -30 -141.5t1.5 -124t3.5 -120t-26 -130.5q-27 -74 -109.5 -127.5t-205.5 -71.5q112 -18 155 -71t17 -126q-23 -63 -69.5 -132t-91 -120.5t-92.5 -124t-73 -141.5q-24 -66 -24.5 -113t20.5 -72.5t54.5 -36.5t82.5 -11h78l-18 -47h-78
q-145 0 -249.5 32t-152 100.5t-12.5 164.5q25 70 93.5 163.5t137.5 187.5t95 165q9 25 13.5 45t2.5 41.5t-13 35.5t-36.5 23.5t-63.5 9.5l21 53q47 0 83.5 13t60 38t37.5 49t26 56q21 57 26 129t0.5 130t0 130t24.5 129q35 94 131 162t224.5 101.5t275.5 33.5h78l-17 -47
h-78z" />
    <glyph glyph-name="bar" unicode="|" horiz-adv-x="583" 
d="M-88 -365l686 1883h94l-686 -1883h-94z" />
    <glyph glyph-name="braceright" unicode="}" horiz-adv-x="813" 
d="M-197 -360q218 0 303 235q25 69 30.5 141.5t-1.5 124t-3.5 120t26.5 130.5q27 73 109.5 127t205.5 72q-112 18 -155 70t-17 126q23 62 70 131t91.5 121t92 125t72.5 142q88 233 -131 233h-78l16 47h78q146 0 250.5 -32t151.5 -100.5t12 -164.5q-25 -70 -93.5 -163.5
t-137.5 -187.5t-95 -165q-12 -32 -15 -56.5t3 -48.5t33 -37.5t75 -13.5l-20 -53q-47 0 -83.5 -13t-60 -37.5t-37.5 -48.5t-26 -56q-21 -57 -26 -129t-0.5 -130.5t0 -130.5t-24.5 -129q-35 -94 -131 -162.5t-224.5 -101.5t-275.5 -33h-78l17 48h77z" />
    <glyph glyph-name="asciitilde" unicode="~" horiz-adv-x="1046" 
d="M1014 760q-61 -98 -161 -176t-194 -78q-57 0 -131 22l-94 27q-70 18 -135 18q-30 0 -51 -5.5t-49.5 -31t-53.5 -73.5l-28 8q64 97 163.5 174.5t192.5 77.5q41 0 129 -23l96 -24q75 -21 133 -21q29 0 51 6t50.5 32.5t52.5 74.5z" />
    <glyph glyph-name="exclamdown" unicode="&#xa1;" horiz-adv-x="704" 
d="M573 1071q86 0 122 -53t10 -123q-26 -71 -100 -123.5t-159 -52.5q-86 0 -122.5 52t-10.5 124q26 70 100.5 123t159.5 53zM457 616q-49 -161 -73.5 -300t-27 -217t-13.5 -164.5t-38 -159.5q-34 -95 -111 -143t-161 -48q-85 0 -128 49t-7 146q25 67 77 151.5t106.5 163.5
t132.5 220t146 302q3 6 28 8t48 0t21 -8z" />
    <glyph glyph-name="cent" unicode="&#xa2;" horiz-adv-x="1214" 
d="M1157 526q7 7 19 2.5t22 -16t6 -18.5q-182 -244 -383.5 -382.5t-388.5 -138.5h-24l-123 -338h-95l127 351q-126 28 -202 115t-76 231q0 109 43 219.5t114.5 202t160.5 168t186 126t186 66.5l148 404h94l-144 -396q142 -3 232 -58.5t90 -139.5q0 -67 -85.5 -126
t-172.5 -59q-43 0 -43 31q0 176 -68 227l-309 -850q43 -18 104 -18q71 0 162 38.5t205.5 131.5t214.5 227zM352 381q0 -113 47 -174l297 815h-2q-71 0 -151.5 -95t-135.5 -247t-55 -299z" />
    <glyph glyph-name="sterling" unicode="&#xa3;" horiz-adv-x="1406" 
d="M1090 1460q81 0 165.5 -25.5t150 -68.5t96.5 -106.5t7 -131.5q-20 -50 -61 -79t-88 -29q-52 0 -82 23.5t-39 65t-10 96.5t4 118q-52 31 -141 31q-256 0 -318 -170q-20 -49 -13.5 -104.5t23 -94t31 -92t10.5 -98.5h443l-35 -97h-434q-35 -79 -92 -136.5t-127.5 -93.5
t-141 -64.5t-154.5 -68t-145 -85.5q123 54 201 74t158 20q54 0 99 -12.5t78 -30t67 -34.5t81 -29.5t103 -12.5q135 0 236 76t184 211h20q-148 -291 -266 -415t-273 -124q-67 0 -126 19t-98.5 48t-81.5 62t-77.5 62t-84 48t-101.5 19q-49 0 -100.5 -21.5t-77.5 -49.5
q4 -11 26 -30.5t36.5 -39.5t7.5 -39q-13 -37 -42.5 -57.5t-62.5 -20.5q-32 0 -52 16t-25 52.5t16 95.5q18 47 61.5 90.5t96 81.5t107 81t105.5 108t80 145q13 40 15 55h-353l35 97h315q-5 26 -16.5 59.5t-20.5 60.5t-16 58.5t-5 66t15 70.5q42 112 147 192.5t243.5 119
t296.5 38.5z" />
    <glyph glyph-name="currency" unicode="&#xa4;" horiz-adv-x="1056" 
d="M989 909l-127 -88q43 -84 2 -198q-48 -125 -157 -207l65 -92l-20 -19l-64 96q-123 -86 -242 -86q-112 0 -172 76l-122 -88l-15 25l123 84q-53 88 -6 211q44 120 154 204l-58 82l21 19l57 -84q122 84 244 84q121 0 178 -86l129 92zM836 623q41 115 -6.5 195.5t-159.5 80.5
q-117 0 -232.5 -81.5t-154.5 -194.5q-43 -116 5 -197.5t161 -81.5q114 0 229.5 82.5t157.5 196.5z" />
    <glyph glyph-name="yen" unicode="&#xa5;" horiz-adv-x="1710" 
d="M1958 1434q3 0 3 -21t-1.5 -42t-3.5 -21q-109 0 -183 -33.5t-169 -142.5l-527 -609h373l-29 -78h-393l-47 -133h391l-26 -80h-394q-16 -45 -22.5 -75t3 -50.5t19.5 -30.5t48.5 -15.5t67.5 -6t97 -0.5q6 0 8.5 -24t1.5 -48t-6 -24h-241h-398h-272q-5 0 -6 24t1.5 48
t8.5 24h68t55.5 1.5t48 3.5t37.5 6.5t33.5 10.5t25.5 16.5t23.5 22.5t19 30t19.5 38.5t18 48.5h-366l26 80h369l51 133h-371l29 78h334l-109 561q-8 43 -15 73.5t-17 54.5t-17 39.5t-22.5 26.5t-25.5 16t-33.5 8t-40 3.5t-50.5 0.5q-3 0 -5 21.5t-2 43t3 21.5h174h389h228
q4 0 4.5 -21t-2 -42t-6.5 -21q-45 0 -67 -0.5t-51 -3.5t-41 -8.5t-27 -17t-18.5 -26.5t-6 -39.5t1 -55t10.5 -73.5l80 -505l465 534q37 43 58 71.5t29 51t3 35t-27 20.5t-55.5 10.5t-87.5 2.5q-4 0 -6.5 22t-2 44t4.5 22h268h119h174z" />
    <glyph glyph-name="brokenbar" unicode="&#xa6;" horiz-adv-x="581" 
d="M340 809l238 653h94l-240 -653h-92zM-88 -365l240 654h92l-240 -654h-92z" />
    <glyph glyph-name="section" unicode="&#xa7;" horiz-adv-x="1286" 
d="M236 -215q-141 0 -207.5 61t-32.5 154q22 61 72.5 99t97.5 38q72 0 96.5 -49t-4.5 -121q-28 -85 -86 -153q40 -11 88 -11q55 0 107.5 17.5t97 57t65.5 95.5q10 28 12.5 57.5t-6 63.5t-17 60.5t-29.5 68t-34 65t-41 71.5t-40 69q-38 64 -60.5 111.5t-43 110t-19.5 125
t24 124.5q43 115 120 216.5t179 178.5t232.5 121.5t269.5 44.5q148 0 218 -60.5t34 -160.5q-23 -60 -70.5 -95.5t-99.5 -35.5q-49 0 -76 27t-27.5 69.5t15.5 93.5q29 77 82 136q-20 6 -61 6q-91 0 -163 -46.5t-102 -129.5q-13 -35 -12.5 -72.5t7 -64.5t29.5 -68.5
t36.5 -61.5t48 -67.5t45.5 -63.5q44 -65 70.5 -114t48.5 -116t17.5 -141.5t-34.5 -156.5t-81 -159.5t-127.5 -149.5t-170 -125.5t-215 -86t-253.5 -32.5zM666 -98q82 38 145 104t88 139q14 39 17.5 82t0.5 80t-18.5 85t-28.5 81t-41 85.5t-44 80t-49 83t-46 77.5
q-22 37 -39 68t-36.5 78t-28.5 88.5t-8.5 90.5t16.5 93q28 75 102 135q-81 -36 -146 -103.5t-91 -136.5q-17 -48 -16.5 -105t9.5 -101.5t33.5 -105t38.5 -89t41 -80.5q22 -41 59 -105t59.5 -103t47.5 -95t35 -98.5t9 -94t-19 -100.5q-34 -88 -90 -133z" />
    <glyph glyph-name="dieresis" unicode="&#xa8;" horiz-adv-x="1146" 
d="M682 1223q-64 0 -92 38t-10 89q18 49 73 87t119 38q65 0 94 -38t11 -87q-18 -51 -73.5 -89t-121.5 -38zM1108 1223q-64 0 -91.5 38t-8.5 89q18 50 72.5 87.5t119.5 37.5q63 0 92 -37.5t13 -87.5q-19 -51 -75.5 -89t-121.5 -38z" />
    <glyph glyph-name="copyright" unicode="&#xa9;" horiz-adv-x="1644" 
d="M618 -14q-118 0 -215.5 36.5t-162.5 104t-99.5 157t-31 200.5t46.5 229q71 196 229.5 363t361.5 264.5t400 97.5q118 0 215 -36.5t161.5 -104t99.5 -156.5t31.5 -199.5t-46.5 -228.5q-71 -197 -229.5 -364.5t-361.5 -265t-399 -97.5zM649 74q129 0 265.5 51t253 137
t210.5 204t142 247q37 103 40 200t-27.5 175.5t-87.5 137.5t-142.5 91.5t-188.5 32.5q-172 0 -350.5 -85.5t-318 -232.5t-201.5 -319q-37 -104 -40.5 -201.5t27 -176t87 -137.5t142 -91.5t189.5 -32.5zM721 268q-197 0 -281.5 114t-11.5 314q48 133 161 238t247 159t262 54
q130 0 211 -73t49 -161q-15 -40 -54.5 -66t-80.5 -26q-25 0 -42.5 6.5t-29 23t-19 32t-11.5 46t-5.5 51.5t-3.5 62.5t-4 65.5q-13 16 -51 16q-92 0 -181 -82.5t-141 -220.5q-61 -170 -13.5 -266t189.5 -96q101 0 193.5 37t198.5 112l8 -6q-104 -144 -265.5 -239t-324.5 -95z
" />
    <glyph glyph-name="ordfeminine" unicode="&#xaa;" horiz-adv-x="874" 
d="M1004 1030q4 4 11.5 -2t12.5 -14.5t2 -12.5q-52 -64 -112.5 -119t-90.5 -71q-28 -16 -63 -8.5t-61.5 32.5t-41 63t0.5 83q0 1 7.5 29t12.5 43h-8q-70 -113 -154.5 -181.5t-146.5 -68.5q-46 0 -87.5 39t-41.5 86q0 81 57.5 179.5t134.5 174.5t154.5 128t118.5 52
q16 0 30.5 -2.5t25 -5.5t37.5 -11.5t50 -15.5q1 3 4.5 11.5t7.5 21.5q11 3 52.5 3.5t85.5 -6t40 -15.5q-37 -93 -103.5 -280t-78.5 -216q5 -16 8.5 -21.5t12.5 -6.5q10 1 22 9t31.5 28t30 31.5t39.5 43.5zM498 950q36 0 89 60t90.5 122t57.5 105l27 61q-27 33 -65 59.5
t-52 26.5q-38 0 -80.5 -61t-71 -153.5t-28.5 -176.5q0 -20 12 -31.5t21 -11.5zM821 649h-655l29 78h657z" />
    <glyph glyph-name="guillemotleft" unicode="&#xab;" horiz-adv-x="1175" 
d="M444 66l-383 411l19 55l686 412l12 -20l-432 -439l125 -399zM907 66l-383 411l19 55l686 412l12 -20l-432 -439l125 -399z" />
    <glyph glyph-name="logicalnot" unicode="&#xac;" horiz-adv-x="1040" 
d="M113 657h858l-178 -485h-95l144 391h-764z" />
    <glyph glyph-name="uni00AD" unicode="&#xad;" horiz-adv-x="878" 
d="M72 543l10 26h749l-10 -26h-749z" />
    <glyph glyph-name="registered" unicode="&#xae;" horiz-adv-x="1101" 
d="M903 1460q99 0 175.5 -38.5t116.5 -104.5t48 -154t-31 -188q-48 -133 -154.5 -246t-242.5 -178.5t-268 -65.5q-99 0 -175.5 38.5t-116.5 105t-48 156t31 190.5q74 200 269 342.5t396 142.5zM1137 975q32 83 24 157t-42 130t-98.5 89t-146.5 33q-168 0 -333.5 -121.5
t-225.5 -287.5q-32 -84 -25.5 -159t40.5 -131.5t98 -89t147 -32.5q168 0 333.5 121t228.5 291zM854 1266q110 0 158 -37t24 -107q-18 -50 -71 -85t-127 -50q68 -30 71 -98v-49q1 -18 2.5 -28t6.5 -21t16 -16t29 -5h4l-15 -35h-123q-10 0 -18.5 1.5t-14 6t-10 7.5t-7 11
t-4.5 11.5t-2.5 13.5t-0.5 12.5v13v11.5v39q0 59 -27.5 87t-74.5 28h-19l-33 -92q-27 -75 -15 -99t71 -24l-8 -29q-38 0 -71 1t-42 1h-117q-5 0 -26 -1t-45 -1l10 29q38 0 60 21.5t46 86.5l86 240q29 82 24.5 105.5t-44.5 23.5l12 29q24 0 45.5 -1t26.5 -1h223zM899 1124
q20 56 -10 79.5t-98 23.5h-46q-11 -19 -32 -80l-49 -137h45q64 0 116 28t74 86z" />
    <glyph glyph-name="macron" unicode="&#xaf;" horiz-adv-x="1148" 
d="M1284 1309h-655l28 80h658z" />
    <glyph glyph-name="degree" unicode="&#xb0;" horiz-adv-x="669" 
d="M487 915q-112 0 -162.5 80t-9.5 193t149 192.5t220 79.5q113 0 164 -80t10 -192q-41 -113 -150 -193t-221 -80zM496 944q100 0 199 72.5t134 171.5q37 100 -9 173t-146 73t-198.5 -73t-133.5 -173q-37 -100 8.5 -172t145.5 -72z" />
    <glyph glyph-name="plusminus" unicode="&#xb1;" horiz-adv-x="940" 
d="M573 678h359l-35 -96h-358l-146 -400h-96l145 400h-356l35 96h356l146 399h96zM-139 -35l35 96h811l-33 -96h-813z" />
    <glyph glyph-name="uni00B2" unicode="&#xb2;" horiz-adv-x="909" 
d="M653 1159q-156 -49 -221 -80t-115 -71q115 49 244 49q57 0 144.5 -32t134.5 -32q42 0 70 7t54 28t46 45t55 72q10 15 16 22q7 9 29 6q6 -2 6 -4q-112 -197 -186.5 -273.5t-159.5 -76.5q-47 0 -93 16.5t-82.5 39.5t-72 46t-75.5 39.5t-78 16.5q-32 0 -67 -13.5t-42 -31.5
q-3 -9 2 -12q29 -29 29 -46q0 -22 -20.5 -38.5t-43.5 -16.5q-19 0 -31 13.5t-12 33.5q0 28 23 64q25 66 125.5 132t294.5 155q74 34 130.5 73.5t86.5 72.5t49 66.5t24 53.5t5 35q0 73 -115 73q-26 0 -48 -5.5t-37.5 -14t-27.5 -21t-19 -25.5t-12 -28t-7 -28t-2.5 -26.5
t0 -22t0.5 -16.5l1 -7q0 -17 -20 -17q-73 0 -126.5 20.5t-53.5 59.5q0 82 108 141.5t258 59.5q60 0 117.5 -9t109 -26.5t83.5 -49t32 -71.5q0 -90 -131 -182.5t-379 -163.5z" />
    <glyph glyph-name="uni00B3" unicode="&#xb3;" horiz-adv-x="843" 
d="M831 1663q147 0 221 -43.5t48 -116.5q-8 -21 -20 -40t-23 -33.5t-33 -30t-35 -25t-44 -23t-45.5 -19.5t-54 -19t-55 -18t-63.5 -19t-65 -19q27 4 57 9t43 7t30.5 3.5t36.5 1.5q121 0 166.5 -55.5t14.5 -141.5q-42 -114 -204 -188t-353 -74q-122 0 -184.5 51t-35.5 123
q15 42 70.5 70.5t111.5 37.5t95 5q-33 -33 -47.5 -58t-26.5 -61q-13 -38 19 -68t80 -30q68 0 131.5 47t95.5 131q29 72 0.5 103.5t-94.5 31.5q-62 0 -95 -8q-7 -3 -23.5 -13t-31.5 -15t-33 -5q-17 0 -27.5 9t-4.5 28q12 29 52.5 46.5t86.5 15.5q132 53 195.5 103t93.5 130
q36 98 -82 98q-89 0 -113 -45t-12 -149q2 -7 -4 -12t-17 -5q-73 0 -125.5 20.5t-52.5 59.5q0 54 51.5 101.5t133.5 74.5t171 27z" />
    <glyph glyph-name="acute" unicode="&#xb4;" horiz-adv-x="1146" 
d="M688 1288q80 45 147 96t105 88.5t72 69.5t66 49t69 17q45 0 62.5 -22.5t0.5 -65.5q-54 -148 -512 -291q-9 -3 -16.5 10t-6.5 28.5t13 20.5z" />
    <glyph glyph-name="uni00B5" unicode="&#xb5;" horiz-adv-x="1536" 
d="M1147 207q-8 -25 -4.5 -43.5t18.5 -18.5q24 6 84 61t133 142q6 6 28.5 -13t16.5 -28q-84 -106 -178 -199t-166 -128q-34 -17 -81.5 -3.5t-86 51t-58 94.5t2.5 128q11 29 29.5 88.5t27.5 85.5h-10q-138 -172 -263.5 -285t-256.5 -155q-44 -15 -88 -4t-75.5 43t-53 78.5
t-20.5 101t22 110.5q31 77 209 578q8 28 3 40.5t-20 12.5q-29 -7 -63.5 -37t-106.5 -106q-10 -9 -28 13t-12 32q120 151 282 258q33 20 74 17t75.5 -26.5t62 -61t34 -85.5t-7.5 -100q-98 -300 -160 -471q-30 -88 -29.5 -130.5t31.5 -53.5q61 10 153.5 88.5t175 182.5
t130.5 195q78 144 149 377q10 23 33 33q125 49 293 45q22 2 25.5 -4t-5.5 -31q-158 -376 -319 -872z" />
    <glyph glyph-name="paragraph" unicode="&#xb6;" horiz-adv-x="1437" 
d="M338 1018q64 175 229 295.5t351 120.5h516h215q4 0 5 -23t-1.5 -45.5t-7.5 -22.5h-55t-44.5 -1.5t-38.5 -3.5t-30.5 -7t-26.5 -11t-20.5 -17t-19.5 -23t-16.5 -31t-18 -40t-17.5 -50l-324 -878q-50 -137 -125.5 -247t-180.5 -194.5t-247.5 -130t-312.5 -45.5
q-65 0 -117.5 13.5t-84 35.5t-52 51t-21.5 60.5t7 62.5q24 62 77.5 99t106.5 37q64 0 98.5 -40.5t38 -97.5t-5.5 -110.5t-27 -87.5q44 -5 81 7.5t65 37t55 68.5t47.5 91t46.5 117l213 586h-84q-188 0 -264.5 121.5t-9.5 302.5zM680 70q-25 -68 -53 -121t-68 -106t-96.5 -92
t-126.5 -62q84 15 154 49t117.5 75.5t87.5 98.5t64 107.5t48 115.5l467 1282h-105z" />
    <glyph glyph-name="periodcentered" unicode="&#xb7;" horiz-adv-x="638" 
d="M326 526q-60 0 -86.5 34.5t-6.5 88.5q21 55 72 90t113 35q60 0 86 -35t6 -90q-20 -56 -70.5 -89.5t-113.5 -33.5z" />
    <glyph glyph-name="cedilla" unicode="&#xb8;" horiz-adv-x="1226" 
d="M188 -483q-76 0 -128 28t-37 68q9 26 33.5 44.5t52.5 18.5q21 0 32.5 -14.5t16.5 -32.5t27.5 -32.5t64.5 -14.5q43 0 71.5 20.5t40.5 51.5q7 13 3.5 28t-17.5 30t-54.5 35.5t-107.5 45.5l213 197l64 -8l-103 -103q93 -36 123.5 -70.5t12.5 -87.5q-28 -76 -119.5 -140
t-188.5 -64z" />
    <glyph glyph-name="uni00B9" unicode="&#xb9;" horiz-adv-x="624" 
d="M309 836h-151q-4 0 -5 19t1 38.5t6 19.5q43 3 64.5 6t50 12.5t45 26.5t35 48t34.5 77l133 357q-12 -3 -37.5 -9.5t-53.5 -13t-58 -10.5q-5 2 -4 17.5t7.5 34.5t12.5 20q203 26 383 168q12 6 61 2l11 -2l-201 -566q-13 -35 -19.5 -58t-10.5 -41.5t1 -29.5t10 -18.5
t22.5 -11t32 -5.5t44.5 -4q4 0 6 -19.5t1.5 -38.5t-3.5 -19h-154h-264z" />
    <glyph glyph-name="ordmasculine" unicode="&#xba;" horiz-adv-x="724" 
d="M467 807q-113 0 -176.5 52.5t-63.5 139.5q0 73 39.5 154.5t103 150t154 113.5t183.5 45q113 0 176 -52t63 -142q0 -74 -39 -156t-103 -149.5t-154 -111.5t-183 -44zM502 854q50 1 107 91t93.5 203.5t36.5 186.5q0 86 -67 80q-49 -2 -106 -89t-93.5 -200.5t-36.5 -193.5
q0 -43 15 -62t51 -16zM737 653h-655l29 78h655z" />
    <glyph glyph-name="guillemotright" unicode="&#xbb;" horiz-adv-x="1173" 
d="M225 915l385 -411l-20 -55l-684 -412l-12 20l430 439l-125 399zM688 915l385 -411l-20 -55l-686 -412l-11 20l430 439l-124 399z" />
    <glyph glyph-name="questiondown" unicode="&#xbf;" horiz-adv-x="976" 
d="M825 1063q85 0 121 -52t10 -124q-26 -71 -100 -123.5t-160 -52.5t-121.5 52.5t-9.5 123.5t100 123.5t160 52.5zM260 -440q-52 0 -108.5 16t-113.5 50.5t-93.5 87.5t-47 127.5t24.5 170.5q66 182 206.5 300t334.5 118h67q26 0 39 39l43 117q5 13 55 14q44 -1 42 -14
l-99 -267q-63 -178 -227 -178h-49q-169 0 -231.5 -24t-92.5 -105q-18 -53 -20 -104t17.5 -98.5t60.5 -77.5q184 91 315 89q107 -1 113 -71q2 -24 -9 -55q-52 -135 -227 -135z" />
    <glyph glyph-name="Agrave" unicode="&#xc0;" horiz-adv-x="1667" 
d="M1432 1612q-196 69 -283.5 131t-87.5 127q0 31 21.5 48t56.5 17q27 0 47 -16t40.5 -45.5t45 -63.5t71.5 -77.5t109 -79.5q9 -5 7.5 -16t-10.5 -20t-17 -5zM1501 84q3 0 4.5 -21t1.5 -42t-2 -21h-153h-375h-219q-4 0 -4.5 21t2 42t6.5 21q150 0 187 33t30 192q0 10 -1 32
t-1 32h-338h-264l-76 -97q-34 -43 -52.5 -71.5t-26 -51t-1.5 -35t27.5 -21t53.5 -11t83 -2.5q4 0 6.5 -21t2 -42t-4.5 -21h-256h-108h-166q-2 0 -2 21t1 42t3 21q103 0 172 35t159 149l758 965l-6 182q-3 19 12 23q233 29 322 39q12 3 16 -4l45 -1170q1 -42 3 -72t7.5 -54
t9.5 -39t16 -26t20.5 -16t28.5 -8t34.5 -3.5t44.5 -0.5zM674 467h301q-3 113 -23 635l-501 -635h223z" />
    <glyph glyph-name="Aacute" unicode="&#xc1;" horiz-adv-x="1667" 
d="M1040 1620q-9 -2 -15.5 9t-5 24.5t12.5 17.5q71 39 130.5 84.5t93.5 79.5t64 63t58 44.5t60 15.5q84 0 57 -80q-51 -131 -455 -258zM1501 84q3 0 4.5 -21t1.5 -42t-2 -21h-153h-375h-219q-4 0 -4.5 21t2 42t6.5 21q150 0 187 33t30 192q0 10 -1 32t-1 32h-338h-264
l-76 -97q-34 -43 -52.5 -71.5t-26 -51t-1.5 -35t27.5 -21t53.5 -11t83 -2.5q4 0 6.5 -21t2 -42t-4.5 -21h-256h-108h-166q-2 0 -2 21t1 42t3 21q103 0 172 35t159 149l758 965l-6 182q-3 19 12 23q233 29 322 39q12 3 16 -4l45 -1170q1 -42 3 -72t7.5 -54t9.5 -39t16 -26
t20.5 -16t28.5 -8t34.5 -3.5t44.5 -0.5zM674 467h301q-3 113 -23 635l-501 -635h223z" />
    <glyph glyph-name="Acircumflex" unicode="&#xc2;" horiz-adv-x="1667" 
d="M1573 1655q6 -6 -12 -24.5t-27 -16.5q-27 24 -106 93t-121 108l-375 -201q-7 -1 -12 7t-4.5 18.5t8.5 15.5q41 35 114.5 99t134.5 116.5t115 97.5h148q25 -54 70.5 -160t66.5 -153zM1501 84q3 0 4.5 -21t1.5 -42t-2 -21h-153h-375h-219q-4 0 -4.5 21t2 42t6.5 21
q150 0 187 33t30 192q0 10 -1 32t-1 32h-338h-264l-76 -97q-34 -43 -52.5 -71.5t-26 -51t-1.5 -35t27.5 -21t53.5 -11t83 -2.5q4 0 6.5 -21t2 -42t-4.5 -21h-256h-108h-166q-2 0 -2 21t1 42t3 21q103 0 172 35t159 149l758 965l-6 182q-3 19 12 23q233 29 322 39q12 3 16 -4
l45 -1170q1 -42 3 -72t7.5 -54t9.5 -39t16 -26t20.5 -16t28.5 -8t34.5 -3.5t44.5 -0.5zM674 467h301q-3 113 -23 635l-501 -635h223z" />
    <glyph glyph-name="Atilde" unicode="&#xc3;" horiz-adv-x="1667" 
d="M1661 1909q7 13 50 7q31 -6 28 -15q-56 -89 -167.5 -167.5t-201.5 -78.5q-47 0 -119 20l-90 25q-56 18 -125 18q-26 0 -41.5 -5t-38 -29t-45.5 -72q-7 -13 -50 -7q-29 6 -27 15q56 89 168 167.5t202 78.5q44 0 119 -21l88 -24q65 -19 125 -19q39 0 65 19t60 88zM1501 84
q3 0 4.5 -21t1.5 -42t-2 -21h-153h-375h-219q-4 0 -4.5 21t2 42t6.5 21q150 0 187 33t30 192q0 10 -1 32t-1 32h-338h-264l-76 -97q-34 -43 -52.5 -71.5t-26 -51t-1.5 -35t27.5 -21t53.5 -11t83 -2.5q4 0 6.5 -21t2 -42t-4.5 -21h-256h-108h-166q-2 0 -2 21t1 42t3 21
q103 0 172 35t159 149l758 965l-6 182q-3 19 12 23q233 29 322 39q12 3 16 -4l45 -1170q1 -42 3 -72t7.5 -54t9.5 -39t16 -26t20.5 -16t28.5 -8t34.5 -3.5t44.5 -0.5zM674 467h301q-3 113 -23 635l-501 -635h223z" />
    <glyph glyph-name="Adieresis" unicode="&#xc4;" horiz-adv-x="1667" 
d="M1030 1645q-64 0 -92.5 38t-9.5 89q18 49 73 86.5t119 37.5t93.5 -37.5t11.5 -86.5q-19 -51 -75 -89t-120 -38zM1548 1896q64 0 92.5 -37.5t10.5 -86.5q-18 -51 -73.5 -89t-121.5 -38q-64 0 -91.5 38t-8.5 89q18 50 72.5 87t119.5 37zM1501 84q3 0 4.5 -21t1.5 -42
t-2 -21h-153h-375h-219q-4 0 -4.5 21t2 42t6.5 21q150 0 187 33t30 192q0 10 -1 32t-1 32h-338h-264l-76 -97q-34 -43 -52.5 -71.5t-26 -51t-1.5 -35t27.5 -21t53.5 -11t83 -2.5q4 0 6.5 -21t2 -42t-4.5 -21h-256h-108h-166q-2 0 -2 21t1 42t3 21q103 0 172 35t159 149
l758 965l-6 182q-3 19 12 23q233 29 322 39q12 3 16 -4l45 -1170q1 -42 3 -72t7.5 -54t9.5 -39t16 -26t20.5 -16t28.5 -8t34.5 -3.5t44.5 -0.5zM674 467h301q-3 113 -23 635l-501 -635h223z" />
    <glyph glyph-name="Aring" unicode="&#xc5;" horiz-adv-x="1667" 
d="M1239 1620q-83 0 -121.5 56.5t-9.5 135.5q29 80 108.5 136.5t163.5 56.5q79 0 114.5 -56.5t6.5 -136.5t-106 -136t-156 -56zM1182 1815q-19 -52 4.5 -88.5t79.5 -36.5q51 0 99 37t67 88q19 48 -3.5 84t-74.5 36q-54 0 -104.5 -35t-67.5 -85zM1501 84q3 0 4.5 -21t1.5 -42
t-2 -21h-153h-375h-219q-4 0 -4.5 21t2 42t6.5 21q150 0 187 33t30 192q0 10 -1 32t-1 32h-338h-264l-76 -97q-34 -43 -52.5 -71.5t-26 -51t-1.5 -35t27.5 -21t53.5 -11t83 -2.5q4 0 6.5 -21t2 -42t-4.5 -21h-256h-108h-166q-2 0 -2 21t1 42t3 21q103 0 172 35t159 149
l758 965l-6 182q-3 19 12 23q233 29 322 39q12 3 16 -4l45 -1170q1 -42 3 -72t7.5 -54t9.5 -39t16 -26t20.5 -16t28.5 -8t34.5 -3.5t44.5 -0.5zM674 467h301q-3 113 -23 635l-501 -635h223z" />
    <glyph glyph-name="AE" unicode="&#xc6;" horiz-adv-x="2451" 
d="M2310 1528q3 4 17.5 5t27.5 -0.5t12 -4.5l-30 -641q-2 -5 -31.5 -11t-30.5 -2q-24 104 -43 172t-44 123.5t-50.5 85.5t-64 50.5t-82 27t-107.5 6.5h-319l-90 -522h53l164 -2q103 0 155 57t78 179q2 11 35 10q26 -1 25 -10l-121 -574q-2 -8 -18 -11t-30.5 0t-13.5 11
q29 125 0.5 179.5t-131.5 54.5h-215l-104 -617h354q67 0 114 6.5t93.5 28t81 51t79 87.5t85.5 125t102 175q4 11 40 2q22 -6 21 -12l-192 -651q-3 -5 -28.5 -6t-30.5 6q-15 47 -58 70.5t-147 23.5h-871h-213q-4 0 -5 22.5t1 45t6 22.5h55t45 1.5t39 3.5t30 7.5t25.5 12
t18.5 18t16 25t11.5 33.5t11 42.5t8.5 53.5l13 71h-361h-262l-74 -77q-40 -43 -62.5 -71.5t-31 -51t-1.5 -35t33 -20.5t64.5 -10.5t100.5 -2.5q4 0 7 -22.5t2.5 -45t-5.5 -22.5h-307h-115h-184q-3 0 -3 22.5t1.5 45t3.5 22.5q116 0 196.5 34.5t186.5 145.5l954 1018
q-12 38 -55.5 46.5t-157.5 8.5q-4 0 -6 22.5t-1 45.5t5 23h213h842q119 0 180 24t90 70zM1090 537l73 419l31 193q1 3 2 9t2 9l-678 -716h211h342z" />
    <glyph glyph-name="Ccedilla" unicode="&#xc7;" horiz-adv-x="1550" 
d="M1636 1528q5 7 45 4q13 -1 13 -4l-156 -658q-2 -7 -29.5 -5.5t-27.5 7.5q6 70 2.5 127t-6 103t-14.5 81.5t-23.5 61.5t-33 45t-43 31t-52.5 19t-63 9.5t-74 2.5q-127 0 -255.5 -79t-224 -199t-155.5 -269.5t-60 -284.5q0 -164 97 -261t305 -97q272 0 571 303q7 6 21 0
t23.5 -16t4.5 -15q-9 -9 -27 -28q-39 -41 -60.5 -62.5t-64.5 -63t-73.5 -66t-79 -60.5t-89.5 -57.5t-97 -47t-109.5 -39.5t-118 -23.5t-131.5 -9.5h-6l-80 -79q92 -36 122.5 -70.5t12.5 -87.5q-28 -76 -119 -140.5t-188 -64.5q-76 0 -128.5 28t-37.5 68q9 26 33.5 45
t52.5 19q18 0 28 -9.5t15.5 -23.5t14 -28t29.5 -23.5t55 -9.5q43 0 71.5 20.5t40.5 50.5q7 13 3.5 28t-17.5 30.5t-54.5 36.5t-107.5 45l184 170q-201 21 -331.5 147.5t-130.5 333.5q0 141 55.5 285.5t158.5 271t238.5 226t308 157t353.5 57.5q77 0 158 -16.5t106 -16.5
q37 0 77 29.5t68 71.5z" />
    <glyph glyph-name="Egrave" unicode="&#xc8;" horiz-adv-x="1611" 
d="M1319 1579q-196 69 -283.5 131t-87.5 127q0 31 21.5 48.5t56.5 17.5q27 0 47 -16t40.5 -45.5t45 -63.5t71.5 -78t109 -80q9 -5 7.5 -16t-10.5 -20t-17 -5zM1704 1528q4 4 18 5t26.5 -0.5t12.5 -4.5l-155 -641q-2 -5 -32.5 -11t-31.5 -2q-4 104 -10 172t-20.5 123.5
t-33.5 85.5t-53.5 50.5t-77 27t-106.5 6.5h-319l-195 -532h129q106 0 177 25.5t110 71t65 118.5q3 7 26.5 9.5t45.5 0t20 -9.5l-186 -526q-3 -12 -55 -10q-37 1 -35 10q41 118 -1.5 166.5t-201.5 48.5h-129l-223 -617h354q67 0 115.5 6.5t98.5 28t90.5 51t96.5 87.5t110 125
t136 175q5 11 41 2q19 -6 17 -12l-318 -651q-2 -5 -28.5 -6t-28.5 6q-7 47 -45.5 70.5t-142.5 23.5h-844h-176q-3 0 -3.5 21t1.5 42t6 21h55t42 3t34.5 6.5t26 13t23 20.5t19 31t19.5 42t20 56l336 924q13 32 20.5 55.5t8 42t-0.5 30.5t-12.5 20t-21 12.5t-34.5 6.5
t-43.5 2.5t-55.5 0.5q-4 0 -6 21t-1.5 42t3.5 21h176h856q119 0 185.5 24t105.5 70z" />
    <glyph glyph-name="Eacute" unicode="&#xc9;" horiz-adv-x="1611" 
d="M928 1587q-9 -2 -15.5 9t-5 24.5t12.5 17.5q86 48 156 105t103 94t70 62.5t76 25.5q84 0 57 -80q-51 -131 -454 -258zM1704 1528q4 4 18 5t26.5 -0.5t12.5 -4.5l-155 -641q-2 -5 -32.5 -11t-31.5 -2q-4 104 -10 172t-20.5 123.5t-33.5 85.5t-53.5 50.5t-77 27t-106.5 6.5
h-319l-195 -532h129q106 0 177 25.5t110 71t65 118.5q3 7 26.5 9.5t45.5 0t20 -9.5l-186 -526q-3 -12 -55 -10q-37 1 -35 10q41 118 -1.5 166.5t-201.5 48.5h-129l-223 -617h354q67 0 115.5 6.5t98.5 28t90.5 51t96.5 87.5t110 125t136 175q5 11 41 2q19 -6 17 -12
l-318 -651q-2 -5 -28.5 -6t-28.5 6q-7 47 -45.5 70.5t-142.5 23.5h-844h-176q-3 0 -3.5 21t1.5 42t6 21h55t42 3t34.5 6.5t26 13t23 20.5t19 31t19.5 42t20 56l336 924q13 32 20.5 55.5t8 42t-0.5 30.5t-12.5 20t-21 12.5t-34.5 6.5t-43.5 2.5t-55.5 0.5q-4 0 -6 21t-1.5 42
t3.5 21h176h856q119 0 185.5 24t105.5 70z" />
    <glyph glyph-name="Ecircumflex" unicode="&#xca;" horiz-adv-x="1611" 
d="M819 1581q-7 -1 -12 7t-4.5 18.5t8.5 15.5q321 276 365 313h147q25 -54 70.5 -160t66.5 -153q6 -6 -12 -24.5t-27 -16.5q-27 24 -106 93t-121 108zM1704 1528q4 4 18 5t26.5 -0.5t12.5 -4.5l-155 -641q-2 -5 -32.5 -11t-31.5 -2q-4 104 -10 172t-20.5 123.5t-33.5 85.5
t-53.5 50.5t-77 27t-106.5 6.5h-319l-195 -532h129q106 0 177 25.5t110 71t65 118.5q3 7 26.5 9.5t45.5 0t20 -9.5l-186 -526q-3 -12 -55 -10q-37 1 -35 10q41 118 -1.5 166.5t-201.5 48.5h-129l-223 -617h354q67 0 115.5 6.5t98.5 28t90.5 51t96.5 87.5t110 125t136 175
q5 11 41 2q19 -6 17 -12l-318 -651q-2 -5 -28.5 -6t-28.5 6q-7 47 -45.5 70.5t-142.5 23.5h-844h-176q-3 0 -3.5 21t1.5 42t6 21h55t42 3t34.5 6.5t26 13t23 20.5t19 31t19.5 42t20 56l336 924q13 32 20.5 55.5t8 42t-0.5 30.5t-12.5 20t-21 12.5t-34.5 6.5t-43.5 2.5
t-55.5 0.5q-4 0 -6 21t-1.5 42t3.5 21h176h856q119 0 185.5 24t105.5 70z" />
    <glyph glyph-name="Edieresis" unicode="&#xcb;" horiz-adv-x="1611" 
d="M918 1612q-64 0 -93 38t-10 89q18 49 73.5 87t119.5 38t93 -38t11 -87q-19 -51 -74.5 -89t-119.5 -38zM1343 1612q-64 0 -91.5 38t-8.5 89q18 50 73 87.5t120 37.5q64 0 92 -38t10 -87q-18 -51 -73.5 -89t-121.5 -38zM1704 1528q4 4 18 5t26.5 -0.5t12.5 -4.5l-155 -641
q-2 -5 -32.5 -11t-31.5 -2q-4 104 -10 172t-20.5 123.5t-33.5 85.5t-53.5 50.5t-77 27t-106.5 6.5h-319l-195 -532h129q106 0 177 25.5t110 71t65 118.5q3 7 26.5 9.5t45.5 0t20 -9.5l-186 -526q-3 -12 -55 -10q-37 1 -35 10q41 118 -1.5 166.5t-201.5 48.5h-129l-223 -617
h354q67 0 115.5 6.5t98.5 28t90.5 51t96.5 87.5t110 125t136 175q5 11 41 2q19 -6 17 -12l-318 -651q-2 -5 -28.5 -6t-28.5 6q-7 47 -45.5 70.5t-142.5 23.5h-844h-176q-3 0 -3.5 21t1.5 42t6 21h55t42 3t34.5 6.5t26 13t23 20.5t19 31t19.5 42t20 56l336 924
q13 32 20.5 55.5t8 42t-0.5 30.5t-12.5 20t-21 12.5t-34.5 6.5t-43.5 2.5t-55.5 0.5q-4 0 -6 21t-1.5 42t3.5 21h176h856q119 0 185.5 24t105.5 70z" />
    <glyph glyph-name="Igrave" unicode="&#xcc;" horiz-adv-x="931" 
d="M1055 1620q9 -5 7 -16t-11 -20t-17 -5q-196 69 -283 131t-87 127q0 31 21 48.5t56 17.5q27 0 47.5 -16t41 -45.5t45 -63.5t71.5 -78t109 -80zM934 1434h174q4 0 5 -21t-1 -42t-6 -21q-37 0 -55 -0.5t-42.5 -3t-34.5 -6t-26 -13t-23 -20.5t-18.5 -30.5t-20 -42
t-20.5 -56.5l-336 -924q-17 -43 -25 -71t-3.5 -47.5t12 -29.5t34.5 -15t50 -6t72 -1q4 0 6 -21t1.5 -42t-3.5 -21h-176h-377h-176q-3 0 -3.5 21t1.5 42t6 21h55t42 3t34.5 6.5t26 13t23 20.5t19 31t19.5 42t20 56l336 924q13 32 20.5 55.5t8 42t-0.5 30.5t-12.5 20t-21 12.5
t-34.5 6.5t-43.5 2.5t-55.5 0.5q-4 0 -6 21t-1.5 42t3.5 21h176h377z" />
    <glyph glyph-name="Iacute" unicode="&#xcd;" horiz-adv-x="931" 
d="M635 1638q86 48 156 105t103 94t70 62.5t76 25.5q40 0 55.5 -20.5t2.5 -59.5q-51 -131 -455 -258q-9 -2 -15.5 9t-5 24.5t12.5 17.5zM934 1434h174q4 0 5 -21t-1 -42t-6 -21q-37 0 -55 -0.5t-42.5 -3t-34.5 -6t-26 -13t-23 -20.5t-18.5 -30.5t-20 -42t-20.5 -56.5
l-336 -924q-17 -43 -25 -71t-3.5 -47.5t12 -29.5t34.5 -15t50 -6t72 -1q4 0 6 -21t1.5 -42t-3.5 -21h-176h-377h-176q-3 0 -3.5 21t1.5 42t6 21h55t42 3t34.5 6.5t26 13t23 20.5t19 31t19.5 42t20 56l336 924q13 32 20.5 55.5t8 42t-0.5 30.5t-12.5 20t-21 12.5t-34.5 6.5
t-43.5 2.5t-55.5 0.5q-4 0 -6 21t-1.5 42t3.5 21h176h377z" />
    <glyph glyph-name="Icircumflex" unicode="&#xce;" horiz-adv-x="931" 
d="M1137 1581q-29 26 -108 94.5t-120 106.5l-374 -201q-7 -1 -12 7t-5 18.5t8 15.5q322 276 365 313h147q25 -55 71 -161t67 -152q6 -6 -12 -24.5t-27 -16.5zM934 1434h174q4 0 5 -21t-1 -42t-6 -21q-37 0 -55 -0.5t-42.5 -3t-34.5 -6t-26 -13t-23 -20.5t-18.5 -30.5
t-20 -42t-20.5 -56.5l-336 -924q-17 -43 -25 -71t-3.5 -47.5t12 -29.5t34.5 -15t50 -6t72 -1q4 0 6 -21t1.5 -42t-3.5 -21h-176h-377h-176q-3 0 -3.5 21t1.5 42t6 21h55t42 3t34.5 6.5t26 13t23 20.5t19 31t19.5 42t20 56l336 924q13 32 20.5 55.5t8 42t-0.5 30.5t-12.5 20
t-21 12.5t-34.5 6.5t-43.5 2.5t-55.5 0.5q-4 0 -6 21t-1.5 42t3.5 21h176h377z" />
    <glyph glyph-name="Idieresis" unicode="&#xcf;" horiz-adv-x="931" 
d="M633 1612q-64 0 -93 38t-10 89q18 49 73.5 87t119.5 38t93 -38t11 -87q-19 -51 -74.5 -89t-119.5 -38zM1059 1612q-64 0 -92 38t-9 89q18 50 73 87.5t120 37.5q64 0 92 -38t10 -87q-18 -51 -73.5 -89t-120.5 -38zM934 1434h174q4 0 5 -21t-1 -42t-6 -21q-37 0 -55 -0.5
t-42.5 -3t-34.5 -6t-26 -13t-23 -20.5t-18.5 -30.5t-20 -42t-20.5 -56.5l-336 -924q-17 -43 -25 -71t-3.5 -47.5t12 -29.5t34.5 -15t50 -6t72 -1q4 0 6 -21t1.5 -42t-3.5 -21h-176h-377h-176q-3 0 -3.5 21t1.5 42t6 21h55t42 3t34.5 6.5t26 13t23 20.5t19 31t19.5 42t20 56
l336 924q13 32 20.5 55.5t8 42t-0.5 30.5t-12.5 20t-21 12.5t-34.5 6.5t-43.5 2.5t-55.5 0.5q-4 0 -6 21t-1.5 42t3.5 21h176h377z" />
    <glyph glyph-name="Eth" unicode="&#xd0;" horiz-adv-x="1814" 
d="M1143 1434q112 0 211 -18t184.5 -56t147 -94t96.5 -136t35 -178q0 -154 -60 -299t-169 -262t-252 -205.5t-317.5 -137t-356.5 -48.5h-541h-172q-3 0 -3.5 21t1 42t4.5 21h54t42 3t34 6.5t26 13t23 20.5t18.5 31t19.5 42t20 56l150 412h-162l35 96h162l151 416
q13 32 20.5 55.5t8 42t-0.5 30.5t-12.5 20t-21 12.5t-34.5 6.5t-43.5 2.5t-55.5 0.5q-4 0 -6 21t-1.5 42t3.5 21h176h586zM600 94q140 0 266 40.5t220 109.5t169.5 159t123.5 191t73 203t25 198q0 168 -104 255t-337 87h-96q-35 -64 -62 -129t-81 -211l-86 -233h114l-34 -96
h-115l-84 -232q-38 -107 -52.5 -150t-29.5 -95.5t-23 -96.5h113z" />
    <glyph glyph-name="Ntilde" unicode="&#xd1;" horiz-adv-x="1867" 
d="M1851 1868q-57 -90 -167.5 -168t-200.5 -78q-47 0 -119 20l-90 25q-59 19 -125 19q-25 0 -41 -5.5t-38.5 -29.5t-45.5 -72q-7 -13 -51 -6q-29 6 -27 14q56 89 168.5 167.5t202.5 78.5q44 0 119 -21l88 -24q65 -19 125 -19q39 0 65 19t60 88q7 13 50 7q30 -6 27 -15z
M1317 0l-647 1212l-322 -880q-28 -79 -33.5 -125t16.5 -73.5t67 -36.5t128 -9q4 0 6.5 -22t2 -44t-4.5 -22h-278h-98h-226q-4 0 -4.5 21t2 42t6.5 21q135 0 201.5 44.5t118.5 184.5l309 865q10 26 16.5 46t8.5 37t3 29t-6 22t-12.5 16t-21.5 10.5t-28 6.5t-38 3.5t-44 1.5
h-54q-4 0 -6 21t-1 42t5 21h207h407l494 -957l229 637q27 76 30.5 120.5t-21.5 71t-73.5 35.5t-137.5 9q-5 0 -8 21t-3 42t4 21h299h99h196q3 0 3 -21t-2 -42t-5 -21q-115 0 -176 -45t-113 -183l-405 -1118q-5 -14 -42 -15.5t-48 11.5z" />
    <glyph glyph-name="Ograve" unicode="&#xd2;" horiz-adv-x="1818" 
d="M1501 1620q9 -5 7.5 -16t-10.5 -20t-17 -5q-196 69 -283.5 131t-87.5 127q0 31 21.5 48.5t56.5 17.5q27 0 47 -16t40.5 -45.5t45 -63.5t71.5 -78t109 -80zM700 -27q-277 0 -434 130.5t-157 351.5q0 137 56 281t161 272.5t242 230t313 161.5t360 60q275 0 432.5 -131
t157.5 -352q0 -138 -56 -282.5t-161 -272.5t-242 -229t-312.5 -160.5t-359.5 -59.5zM737 82q109 0 212.5 47.5t184.5 126.5t149.5 180.5t114 210t70.5 214.5t25 194q0 143 -74 220t-217 77q-94 0 -184 -35.5t-164 -96.5t-139.5 -141t-114 -170.5t-83.5 -184t-53 -182.5
t-18 -165q0 -142 74.5 -218.5t216.5 -76.5z" />
    <glyph glyph-name="Oacute" unicode="&#xd3;" horiz-adv-x="1818" 
d="M1081 1638q71 39 130.5 84.5t93.5 79.5t64 63t58 44.5t60 15.5q84 0 57 -80q-51 -131 -454 -258q-9 -2 -15.5 9t-5.5 24.5t12 17.5zM700 -27q-277 0 -434 130.5t-157 351.5q0 137 56 281t161 272.5t242 230t313 161.5t360 60q275 0 432.5 -131t157.5 -352
q0 -138 -56 -282.5t-161 -272.5t-242 -229t-312.5 -160.5t-359.5 -59.5zM737 82q109 0 212.5 47.5t184.5 126.5t149.5 180.5t114 210t70.5 214.5t25 194q0 143 -74 220t-217 77q-94 0 -184 -35.5t-164 -96.5t-139.5 -141t-114 -170.5t-83.5 -184t-53 -182.5t-18 -165
q0 -142 74.5 -218.5t216.5 -76.5z" />
    <glyph glyph-name="Ocircumflex" unicode="&#xd4;" horiz-adv-x="1818" 
d="M1585 1581q-27 24 -106 93t-121 108l-375 -201q-7 -1 -12 7t-4.5 18.5t8.5 15.5q41 35 114.5 99t134.5 116.5t115 97.5h148q25 -54 70.5 -160t66.5 -153q6 -6 -12 -24.5t-27 -16.5zM700 -27q-277 0 -434 130.5t-157 351.5q0 137 56 281t161 272.5t242 230t313 161.5
t360 60q275 0 432.5 -131t157.5 -352q0 -138 -56 -282.5t-161 -272.5t-242 -229t-312.5 -160.5t-359.5 -59.5zM737 82q109 0 212.5 47.5t184.5 126.5t149.5 180.5t114 210t70.5 214.5t25 194q0 143 -74 220t-217 77q-94 0 -184 -35.5t-164 -96.5t-139.5 -141t-114 -170.5
t-83.5 -184t-53 -182.5t-18 -165q0 -142 74.5 -218.5t216.5 -76.5z" />
    <glyph glyph-name="Otilde" unicode="&#xd5;" horiz-adv-x="1818" 
d="M1790 1868q-56 -89 -167.5 -167.5t-201.5 -78.5q-46 0 -118 20l-91 25q-59 19 -125 19q-38 0 -64 -19t-60 -88q-7 -13 -51 -6q-29 6 -27 14q56 89 168 167.5t202 78.5q44 0 119 -21l88 -24q65 -19 125 -19q39 0 65 19t60 88q7 13 50 7q31 -6 28 -15zM700 -27
q-277 0 -434 130.5t-157 351.5q0 137 56 281t161 272.5t242 230t313 161.5t360 60q275 0 432.5 -131t157.5 -352q0 -138 -56 -282.5t-161 -272.5t-242 -229t-312.5 -160.5t-359.5 -59.5zM737 82q109 0 212.5 47.5t184.5 126.5t149.5 180.5t114 210t70.5 214.5t25 194
q0 143 -74 220t-217 77q-94 0 -184 -35.5t-164 -96.5t-139.5 -141t-114 -170.5t-83.5 -184t-53 -182.5t-18 -165q0 -142 74.5 -218.5t216.5 -76.5z" />
    <glyph glyph-name="Odieresis" unicode="&#xd6;" horiz-adv-x="1818" 
d="M1081 1612q-64 0 -92.5 38t-9.5 89q18 49 73 87t119 38t93.5 -38t11.5 -87q-19 -51 -75 -89t-120 -38zM1507 1612q-64 0 -91.5 38t-8.5 89q18 50 72.5 87.5t119.5 37.5q64 0 92.5 -38t10.5 -87q-18 -51 -73.5 -89t-121.5 -38zM700 -27q-277 0 -434 130.5t-157 351.5
q0 137 56 281t161 272.5t242 230t313 161.5t360 60q275 0 432.5 -131t157.5 -352q0 -138 -56 -282.5t-161 -272.5t-242 -229t-312.5 -160.5t-359.5 -59.5zM737 82q109 0 212.5 47.5t184.5 126.5t149.5 180.5t114 210t70.5 214.5t25 194q0 143 -74 220t-217 77
q-94 0 -184 -35.5t-164 -96.5t-139.5 -141t-114 -170.5t-83.5 -184t-53 -182.5t-18 -165q0 -142 74.5 -218.5t216.5 -76.5z" />
    <glyph glyph-name="multiply" unicode="&#xd7;" horiz-adv-x="792" 
d="M842 831l-375 -274l149 -235l-71 -54l-150 236l-334 -244l-43 66l334 245l-172 273l72 53l174 -274l373 274z" />
    <glyph glyph-name="Oslash" unicode="&#xd8;" horiz-adv-x="1818" 
d="M1669 1333q162 -131 162 -356q0 -138 -56 -282.5t-161 -272.5t-242 -229t-312.5 -160.5t-359.5 -59.5q-216 0 -368 84l-219 -209l-78 15l244 231q-170 129 -170 361q0 137 56 281t161 272.5t242 230t313 161.5t360 60q221 0 373 -90l215 205l78 -14zM446 377
q0 -59 15 -109l997 953q-70 131 -256 131q-94 0 -184 -35.5t-164 -96.5t-139.5 -141t-114 -170.5t-83.5 -184t-53 -182.5t-18 -165zM737 82q109 0 212.5 47.5t184.5 126.5t149.5 180.5t114 210t70.5 214.5t25 194q0 48 -10 100l-998 -950q72 -123 252 -123z" />
    <glyph glyph-name="Ugrave" unicode="&#xd9;" horiz-adv-x="1769" 
d="M1522 1620q9 -5 7 -16t-11 -20t-17 -5q-196 69 -283.5 131t-87.5 127q0 31 21.5 48.5t56.5 17.5q27 0 47.5 -16t41 -45.5t45 -63.5t71.5 -78t109 -80zM760 -18q-87 0 -160.5 12.5t-142 41t-113 79t-68 121t-12.5 173.5t58 230l194 541q12 32 19 55.5t7.5 42t-0.5 30.5
t-13 20t-21.5 12.5t-34 6.5t-43 2.5t-55.5 0.5q-4 0 -6 21t-1 42t5 21h174h377h176q3 0 3.5 -21t-1.5 -42t-6 -21q-37 0 -55 -0.5t-42.5 -3t-34.5 -6t-26 -13t-23 -20.5t-18.5 -30.5t-20 -42t-20.5 -56.5l-192 -521q-23 -63 -38.5 -115t-28 -113.5t-13 -109t12 -94.5
t40.5 -77t79.5 -49t123.5 -19q215 0 381 158.5t262 420.5l162 441q29 80 34 126.5t-20 74t-73 36.5t-138 9q-4 0 -7 22t-2.5 44t5.5 22h297h100h176q2 0 2 -20t-1.5 -40t-4.5 -20q-104 0 -158 -41t-102 -170l-182 -500q-35 -95 -90 -188t-132.5 -179t-167 -151t-199 -104
t-222.5 -39z" />
    <glyph glyph-name="Uacute" unicode="&#xda;" horiz-adv-x="1769" 
d="M1102 1638q86 48 156 105t103 94t70 62.5t76 25.5q40 0 55.5 -20.5t2.5 -59.5q-51 -131 -455 -258q-9 -2 -15.5 9t-5 24.5t12.5 17.5zM760 -18q-87 0 -160.5 12.5t-142 41t-113 79t-68 121t-12.5 173.5t58 230l194 541q12 32 19 55.5t7.5 42t-0.5 30.5t-13 20t-21.5 12.5
t-34 6.5t-43 2.5t-55.5 0.5q-4 0 -6 21t-1 42t5 21h174h377h176q3 0 3.5 -21t-1.5 -42t-6 -21q-37 0 -55 -0.5t-42.5 -3t-34.5 -6t-26 -13t-23 -20.5t-18.5 -30.5t-20 -42t-20.5 -56.5l-192 -521q-23 -63 -38.5 -115t-28 -113.5t-13 -109t12 -94.5t40.5 -77t79.5 -49
t123.5 -19q215 0 381 158.5t262 420.5l162 441q29 80 34 126.5t-20 74t-73 36.5t-138 9q-4 0 -7 22t-2.5 44t5.5 22h297h100h176q2 0 2 -20t-1.5 -40t-4.5 -20q-104 0 -158 -41t-102 -170l-182 -500q-35 -95 -90 -188t-132.5 -179t-167 -151t-199 -104t-222.5 -39z" />
    <glyph glyph-name="Ucircumflex" unicode="&#xdb;" horiz-adv-x="1769" 
d="M1604 1581q-29 26 -108 94.5t-120 106.5l-375 -201q-7 -1 -12 7t-4.5 18.5t8.5 15.5q321 276 365 313h147q25 -54 70.5 -160t66.5 -153q6 -6 -11.5 -24.5t-26.5 -16.5zM760 -18q-87 0 -160.5 12.5t-142 41t-113 79t-68 121t-12.5 173.5t58 230l194 541q12 32 19 55.5
t7.5 42t-0.5 30.5t-13 20t-21.5 12.5t-34 6.5t-43 2.5t-55.5 0.5q-4 0 -6 21t-1 42t5 21h174h377h176q3 0 3.5 -21t-1.5 -42t-6 -21q-37 0 -55 -0.5t-42.5 -3t-34.5 -6t-26 -13t-23 -20.5t-18.5 -30.5t-20 -42t-20.5 -56.5l-192 -521q-23 -63 -38.5 -115t-28 -113.5
t-13 -109t12 -94.5t40.5 -77t79.5 -49t123.5 -19q215 0 381 158.5t262 420.5l162 441q29 80 34 126.5t-20 74t-73 36.5t-138 9q-4 0 -7 22t-2.5 44t5.5 22h297h100h176q2 0 2 -20t-1.5 -40t-4.5 -20q-104 0 -158 -41t-102 -170l-182 -500q-35 -95 -90 -188t-132.5 -179
t-167 -151t-199 -104t-222.5 -39z" />
    <glyph glyph-name="Udieresis" unicode="&#xdc;" horiz-adv-x="1769" 
d="M1102 1612q-64 0 -93 38t-10 89q18 49 73.5 87t119.5 38t93 -38t11 -87q-19 -51 -74.5 -89t-119.5 -38zM1528 1612q-64 0 -92 38t-9 89q18 50 73 87.5t120 37.5q64 0 92 -38t10 -87q-18 -51 -73.5 -89t-120.5 -38zM760 -18q-87 0 -160.5 12.5t-142 41t-113 79t-68 121
t-12.5 173.5t58 230l194 541q12 32 19 55.5t7.5 42t-0.5 30.5t-13 20t-21.5 12.5t-34 6.5t-43 2.5t-55.5 0.5q-4 0 -6 21t-1 42t5 21h174h377h176q3 0 3.5 -21t-1.5 -42t-6 -21q-37 0 -55 -0.5t-42.5 -3t-34.5 -6t-26 -13t-23 -20.5t-18.5 -30.5t-20 -42t-20.5 -56.5
l-192 -521q-23 -63 -38.5 -115t-28 -113.5t-13 -109t12 -94.5t40.5 -77t79.5 -49t123.5 -19q215 0 381 158.5t262 420.5l162 441q29 80 34 126.5t-20 74t-73 36.5t-138 9q-4 0 -7 22t-2.5 44t5.5 22h297h100h176q2 0 2 -20t-1.5 -40t-4.5 -20q-104 0 -158 -41t-102 -170
l-182 -500q-35 -95 -90 -188t-132.5 -179t-167 -151t-199 -104t-222.5 -39z" />
    <glyph glyph-name="Yacute" unicode="&#xdd;" horiz-adv-x="1710" 
d="M1071 1587q-9 -2 -15.5 9t-5 24.5t12.5 17.5q86 48 156 105t103 94t70 62.5t76 25.5q40 0 55.5 -20.5t2.5 -59.5q-51 -131 -455 -258zM1958 1434q3 0 3 -21t-1.5 -42t-3.5 -21q-109 0 -183 -33.5t-169 -142.5l-564 -652l-82 -231q-19 -50 -27.5 -82.5t0 -55t18 -33.5
t48.5 -16.5t68.5 -6.5t99.5 -1q6 0 8.5 -24t1.5 -48t-6 -24h-241h-398h-272q-5 0 -6 24t1.5 48t8.5 24q78 0 110.5 0.5t77 7t60 17t39 35t36.5 55.5t31 84l78 203l-121 628q-8 43 -15 73.5t-17 54.5t-17 39.5t-22.5 26.5t-25.5 16t-33.5 8t-40 3.5t-50.5 0.5q-3 0 -5 21.5
t-2 43t3 21.5h174h389h228q4 0 4.5 -21t-2 -42t-6.5 -21q-45 0 -67 -0.5t-51 -3.5t-41 -8.5t-27 -17t-18.5 -26.5t-6 -39.5t1 -55t10.5 -73.5l80 -505l465 534q37 43 58 71.5t29 51t3 35t-27 20.5t-55.5 10.5t-87.5 2.5q-4 0 -6.5 22t-2 44t4.5 22h268h119h174z" />
    <glyph glyph-name="Thorn" unicode="&#xde;" horiz-adv-x="1611" 
d="M1116 1159q318 0 459.5 -110.5t71.5 -303.5q-72 -194 -281.5 -299.5t-515.5 -105.5h-242l-24 -68q-18 -47 -26 -77t-1 -51t15 -31.5t42.5 -16t61 -6t88.5 -0.5q4 0 6 -22.5t1 -45t-5 -22.5h-213h-389q-86 0 -213 2q-4 0 -5 22.5t1.5 45t7.5 22.5q41 -3 74.5 0t57.5 3
t44 9.5t33.5 20t27.5 33t25 48.5t25 68l323 887q18 47 26 77t1 51t-15 31.5t-42.5 16t-61 6t-88.5 0.5q-4 0 -6 22.5t-1 45.5t5 23h213h389q86 0 213 -2q4 0 5 -23t-1.5 -45.5t-7.5 -22.5q-41 3 -75 0t-58 -3t-44 -10t-33.5 -19.5t-27 -32.5t-24.5 -49t-25 -68h209z
M1288 748q61 167 -27 242t-309 75h-80l-229 -631h102q212 0 346 71.5t197 242.5z" />
    <glyph glyph-name="germandbls" unicode="&#xdf;" horiz-adv-x="1583" 
d="M977 -27q-96 0 -184.5 24t-149.5 74t-61 115q0 52 62 99t147 47q17 0 22.5 -6.5t7.5 -22.5q4 -49 12.5 -88t27 -77.5t46.5 -63.5t72 -40.5t102 -15.5q68 0 117 44.5t49 111.5q0 71 -54 127t-177 131q-116 74 -152 104q-106 89 -106 193q0 69 29 136.5t75.5 123
t102.5 108.5t112.5 100.5t103 91.5t76 88.5t29.5 84.5q-3 59 -35.5 84t-105.5 25q-74 0 -134.5 -30t-114 -95.5t-99 -152.5t-99.5 -218l-366 -1061q-38 -110 -98 -201.5t-126 -151.5t-139.5 -101.5t-140.5 -59.5t-127 -18q-52 0 -116 11t-125.5 30.5t-102.5 53t-41 73.5
q0 57 61 124.5t99 67.5q30 0 49 -43q47 -110 107.5 -190t129.5 -94q36 0 76 55t74 151l467 1301h-107l19 74h125q132 252 369 405.5t505 153.5q118 0 184 -41.5t66 -126.5q0 -79 -37.5 -147t-94.5 -114t-128.5 -88t-135 -69t-119.5 -56.5t-77 -51.5q-9 -34 12 -75
t62.5 -79.5t76.5 -65.5t72 -51q159 -98 211 -142q110 -92 117 -199v-15q0 -112 -75.5 -196t-192.5 -124.5t-254 -40.5z" />
    <glyph glyph-name="agrave" unicode="&#xe0;" horiz-adv-x="1472" 
d="M1233 1282q9 -5 7 -16t-11 -20t-17 -5q-196 69 -283 131t-87 127q0 31 21.5 48.5t56.5 17.5q27 0 47 -16t40.5 -45.5t45 -63.5t71.5 -78t109 -80zM1315 350q6 6 18.5 -3.5t21.5 -23t5 -18.5q-82 -104 -180.5 -196.5t-157.5 -124.5q-41 -22 -92.5 -10.5t-90.5 49.5
t-59.5 94t0.5 123l58 180h-13q-136 -203 -291 -327t-270 -124q-77 0 -144 62.5t-67 136.5q0 110 60 245.5t154 257t200.5 225t209.5 165t171 61.5q24 0 44.5 -2t48.5 -9.5t44.5 -12.5t61 -20t69.5 -23q27 57 29 61q10 11 126 5q131 -8 124 -27q-246 -644 -324 -895
q-8 -27 1 -39.5t26 -12.5q61 12 217 203zM438 180q45 0 107 44t121 110.5t115 143t96.5 143.5t58.5 110l55 133q-61 55 -133.5 97.5t-101.5 42.5q-58 0 -127.5 -73t-126 -180.5t-95 -241t-38.5 -245.5q0 -36 25 -60t44 -24z" />
    <glyph glyph-name="aacute" unicode="&#xe1;" horiz-adv-x="1472" 
d="M813 1300q71 39 130.5 84.5t93.5 79.5t64 63t58 44.5t60 15.5q84 0 57 -80q-51 -131 -455 -258q-9 -2 -15.5 9t-5 24.5t12.5 17.5zM1315 350q6 6 18.5 -3.5t21.5 -23t5 -18.5q-82 -104 -180.5 -196.5t-157.5 -124.5q-41 -22 -92.5 -10.5t-90.5 49.5t-59.5 94t0.5 123
l58 180h-13q-136 -203 -291 -327t-270 -124q-77 0 -144 62.5t-67 136.5q0 110 60 245.5t154 257t200.5 225t209.5 165t171 61.5q24 0 44.5 -2t48.5 -9.5t44.5 -12.5t61 -20t69.5 -23q27 57 29 61q10 11 126 5q131 -8 124 -27q-246 -644 -324 -895q-8 -27 1 -39.5t26 -12.5
q61 12 217 203zM438 180q45 0 107 44t121 110.5t115 143t96.5 143.5t58.5 110l55 133q-61 55 -133.5 97.5t-101.5 42.5q-58 0 -127.5 -73t-126 -180.5t-95 -241t-38.5 -245.5q0 -36 25 -60t44 -24z" />
    <glyph glyph-name="acircumflex" unicode="&#xe2;" horiz-adv-x="1472" 
d="M1315 1243q-29 26 -108 94.5t-120 106.5l-374 -201q-7 -1 -12 7t-4.5 18.5t8.5 15.5q41 35 114.5 99t134.5 116.5t115 97.5h148q25 -54 70.5 -160t66.5 -153q6 -6 -12 -24.5t-27 -16.5zM1315 350q6 6 18.5 -3.5t21.5 -23t5 -18.5q-82 -104 -180.5 -196.5t-157.5 -124.5
q-41 -22 -92.5 -10.5t-90.5 49.5t-59.5 94t0.5 123l58 180h-13q-136 -203 -291 -327t-270 -124q-77 0 -144 62.5t-67 136.5q0 110 60 245.5t154 257t200.5 225t209.5 165t171 61.5q24 0 44.5 -2t48.5 -9.5t44.5 -12.5t61 -20t69.5 -23q27 57 29 61q10 11 126 5
q131 -8 124 -27q-246 -644 -324 -895q-8 -27 1 -39.5t26 -12.5q61 12 217 203zM438 180q45 0 107 44t121 110.5t115 143t96.5 143.5t58.5 110l55 133q-61 55 -133.5 97.5t-101.5 42.5q-58 0 -127.5 -73t-126 -180.5t-95 -241t-38.5 -245.5q0 -36 25 -60t44 -24z" />
    <glyph glyph-name="atilde" unicode="&#xe3;" horiz-adv-x="1472" 
d="M1520 1530q-56 -89 -167.5 -167.5t-201.5 -78.5q-44 0 -119 21l-90 24q-59 19 -125 19q-25 0 -41 -5.5t-38.5 -29.5t-45.5 -72q-7 -13 -51 -6q-29 6 -27 14q56 89 168.5 167.5t202.5 78.5q48 0 119 -20l88 -25q62 -18 125 -18q39 0 65 18.5t60 87.5q7 13 50 7
q31 -6 28 -15zM1315 350q6 6 18.5 -3.5t21.5 -23t5 -18.5q-82 -104 -180.5 -196.5t-157.5 -124.5q-41 -22 -92.5 -10.5t-90.5 49.5t-59.5 94t0.5 123l58 180h-13q-136 -203 -291 -327t-270 -124q-77 0 -144 62.5t-67 136.5q0 110 60 245.5t154 257t200.5 225t209.5 165
t171 61.5q24 0 44.5 -2t48.5 -9.5t44.5 -12.5t61 -20t69.5 -23q27 57 29 61q10 11 126 5q131 -8 124 -27q-246 -644 -324 -895q-8 -27 1 -39.5t26 -12.5q61 12 217 203zM438 180q45 0 107 44t121 110.5t115 143t96.5 143.5t58.5 110l55 133q-61 55 -133.5 97.5t-101.5 42.5
q-58 0 -127.5 -73t-126 -180.5t-95 -241t-38.5 -245.5q0 -36 25 -60t44 -24z" />
    <glyph glyph-name="adieresis" unicode="&#xe4;" horiz-adv-x="1472" 
d="M813 1274q-64 0 -92.5 38t-9.5 89q18 49 73 87t119 38t93.5 -38t11.5 -87q-19 -51 -75 -89t-120 -38zM1239 1274q-64 0 -91.5 38t-8.5 89q18 50 72.5 87.5t119.5 37.5q64 0 92.5 -38t10.5 -87q-18 -51 -73.5 -89t-121.5 -38zM1315 350q6 6 18.5 -3.5t21.5 -23t5 -18.5
q-82 -104 -180.5 -196.5t-157.5 -124.5q-41 -22 -92.5 -10.5t-90.5 49.5t-59.5 94t0.5 123l58 180h-13q-136 -203 -291 -327t-270 -124q-77 0 -144 62.5t-67 136.5q0 110 60 245.5t154 257t200.5 225t209.5 165t171 61.5q24 0 44.5 -2t48.5 -9.5t44.5 -12.5t61 -20t69.5 -23
q27 57 29 61q10 11 126 5q131 -8 124 -27q-246 -644 -324 -895q-8 -27 1 -39.5t26 -12.5q61 12 217 203zM438 180q45 0 107 44t121 110.5t115 143t96.5 143.5t58.5 110l55 133q-61 55 -133.5 97.5t-101.5 42.5q-58 0 -127.5 -73t-126 -180.5t-95 -241t-38.5 -245.5
q0 -36 25 -60t44 -24z" />
    <glyph glyph-name="aring" unicode="&#xe5;" horiz-adv-x="1472" 
d="M1020 1249q-83 0 -121.5 56.5t-9.5 136.5t108.5 136t163.5 56q79 0 114.5 -56t6.5 -136t-106 -136.5t-156 -56.5zM1135 1565q-54 0 -104.5 -35.5t-67.5 -85.5q-19 -52 4.5 -88.5t79.5 -36.5q50 0 98 36.5t67 88.5q19 48 -3 84.5t-74 36.5zM1315 350q6 6 18.5 -3.5
t21.5 -23t5 -18.5q-82 -104 -180.5 -196.5t-157.5 -124.5q-41 -22 -92.5 -10.5t-90.5 49.5t-59.5 94t0.5 123l58 180h-13q-136 -203 -291 -327t-270 -124q-77 0 -144 62.5t-67 136.5q0 110 60 245.5t154 257t200.5 225t209.5 165t171 61.5q24 0 44.5 -2t48.5 -9.5
t44.5 -12.5t61 -20t69.5 -23q27 57 29 61q10 11 126 5q131 -8 124 -27q-246 -644 -324 -895q-8 -27 1 -39.5t26 -12.5q61 12 217 203zM438 180q45 0 107 44t121 110.5t115 143t96.5 143.5t58.5 110l55 133q-61 55 -133.5 97.5t-101.5 42.5q-58 0 -127.5 -73t-126 -180.5
t-95 -241t-38.5 -245.5q0 -36 25 -60t44 -24z" />
    <glyph glyph-name="ae" unicode="&#xe6;" horiz-adv-x="2035" 
d="M1991 539q9 8 27.5 -9t11.5 -26q-40 -60 -95 -126t-135.5 -139.5t-166 -130.5t-189.5 -95t-203 -38q-181 0 -281 100t-100 259q0 54 12 110h-12q-133 -200 -306.5 -337.5t-289.5 -137.5q-77 0 -144 62.5t-67 136.5q0 110 60 245.5t154 257t200.5 225t209.5 165t171 61.5
q34 0 109.5 -16t193 -45t164.5 -39q168 100 330 100q143 0 235 -66t92 -147q0 -45 -19.5 -84t-64 -76t-105 -71t-154.5 -72t-199 -74.5t-252 -82.5q-4 -46 -4 -66q0 -70 20 -121.5t53 -79t69 -40.5t75 -13q287 0 600 410zM1538 1022q-74 0 -147.5 -75t-124.5 -184.5
t-76 -227.5q139 53 228.5 91.5t145.5 68.5t82.5 59.5t35 53.5t8.5 60q0 154 -152 154zM438 180q45 0 107 44t121 110.5t115 143t96.5 143.5t58.5 110l55 133q-61 55 -133.5 97.5t-101.5 42.5q-58 0 -127.5 -73t-126 -180.5t-95 -241t-38.5 -245.5q0 -36 25 -60t44 -24z" />
    <glyph glyph-name="ccedilla" unicode="&#xe7;" horiz-adv-x="1214" 
d="M1157 526q7 7 19 2.5t22 -16t6 -18.5q-182 -244 -383.5 -382.5t-388.5 -138.5h-22l-76 -75q92 -36 122.5 -70.5t12.5 -87.5q-28 -76 -119 -140.5t-188 -64.5q-76 0 -128.5 28t-37.5 68q9 26 33.5 45t52.5 19q21 0 32.5 -14.5t16.5 -32.5t27.5 -32.5t64.5 -14.5
q43 0 72.5 20.5t40.5 50.5q7 13 3.5 28t-17.5 30.5t-54.5 36.5t-107.5 45l182 168q-136 23 -219.5 112t-83.5 240q0 118 51 238.5t134 217.5t184 173.5t207 118.5t196 42q149 0 243.5 -56t94.5 -142q0 -67 -85.5 -126t-172.5 -59q-43 0 -43 31q0 134 -37 193t-117 59
q-71 0 -151.5 -95t-135.5 -247t-55 -299q0 -120 55 -186t168 -66q71 0 162 38.5t205.5 131.5t214.5 227z" />
    <glyph glyph-name="egrave" unicode="&#xe8;" horiz-adv-x="1214" 
d="M1090 1241q-196 69 -283.5 131t-87.5 127q0 31 21.5 48.5t56.5 17.5q27 0 47 -16t40.5 -45.5t45 -63.5t71.5 -78t109 -80q9 -5 7.5 -16t-10.5 -20t-17 -5zM1169 539q9 8 27.5 -9t11.5 -26q-40 -60 -95 -126t-135 -139.5t-165.5 -130.5t-189.5 -95t-203 -38
q-181 0 -281 100t-100 259q0 108 45.5 223t125 214.5t178.5 179t213.5 125.5t221.5 46q143 0 235.5 -66t92.5 -147q0 -44 -19.5 -83.5t-64.5 -76.5t-105.5 -71t-154.5 -72t-199 -74.5t-252 -82.5q-4 -46 -4 -66q0 -70 20 -121.5t53 -79t69 -40.5t75 -13q287 0 600 410z
M717 1022q-74 0 -147.5 -75t-124.5 -184.5t-76 -227.5q173 66 271.5 109.5t150 82t64.5 67t13 74.5q0 154 -151 154z" />
    <glyph glyph-name="eacute" unicode="&#xe9;" horiz-adv-x="1214" 
d="M698 1249q-9 -2 -15.5 9t-5 24.5t12.5 17.5q71 39 130.5 84.5t93.5 79.5t64 63t58 44.5t60 15.5q84 0 57 -80q-51 -131 -455 -258zM1169 539q9 8 27.5 -9t11.5 -26q-40 -60 -95 -126t-135 -139.5t-165.5 -130.5t-189.5 -95t-203 -38q-181 0 -281 100t-100 259
q0 108 45.5 223t125 214.5t178.5 179t213.5 125.5t221.5 46q143 0 235.5 -66t92.5 -147q0 -44 -19.5 -83.5t-64.5 -76.5t-105.5 -71t-154.5 -72t-199 -74.5t-252 -82.5q-4 -46 -4 -66q0 -70 20 -121.5t53 -79t69 -40.5t75 -13q287 0 600 410zM717 1022q-74 0 -147.5 -75
t-124.5 -184.5t-76 -227.5q173 66 271.5 109.5t150 82t64.5 67t13 74.5q0 154 -151 154z" />
    <glyph glyph-name="ecircumflex" unicode="&#xea;" horiz-adv-x="1214" 
d="M1233 1284q6 -6 -12 -24.5t-27 -16.5q-27 24 -106 93t-121 108l-375 -201q-7 -1 -12 7t-4.5 18.5t8.5 15.5q41 35 114.5 99t134.5 116.5t115 97.5h148q25 -54 70.5 -160t66.5 -153zM1169 539q9 8 27.5 -9t11.5 -26q-40 -60 -95 -126t-135 -139.5t-165.5 -130.5
t-189.5 -95t-203 -38q-181 0 -281 100t-100 259q0 108 45.5 223t125 214.5t178.5 179t213.5 125.5t221.5 46q143 0 235.5 -66t92.5 -147q0 -44 -19.5 -83.5t-64.5 -76.5t-105.5 -71t-154.5 -72t-199 -74.5t-252 -82.5q-4 -46 -4 -66q0 -70 20 -121.5t53 -79t69 -40.5t75 -13
q287 0 600 410zM717 1022q-74 0 -147.5 -75t-124.5 -184.5t-76 -227.5q173 66 271.5 109.5t150 82t64.5 67t13 74.5q0 154 -151 154z" />
    <glyph glyph-name="edieresis" unicode="&#xeb;" horiz-adv-x="1214" 
d="M690 1274q-64 0 -92.5 38t-9.5 89q18 49 73 87t119 38t93.5 -38t11.5 -87q-19 -51 -75 -89t-120 -38zM1208 1526q64 0 92.5 -38t10.5 -87q-18 -51 -73.5 -89t-121.5 -38q-64 0 -91.5 38t-8.5 89q18 50 72.5 87.5t119.5 37.5zM1169 539q9 8 27.5 -9t11.5 -26
q-40 -60 -95 -126t-135 -139.5t-165.5 -130.5t-189.5 -95t-203 -38q-181 0 -281 100t-100 259q0 108 45.5 223t125 214.5t178.5 179t213.5 125.5t221.5 46q143 0 235.5 -66t92.5 -147q0 -44 -19.5 -83.5t-64.5 -76.5t-105.5 -71t-154.5 -72t-199 -74.5t-252 -82.5
q-4 -46 -4 -66q0 -70 20 -121.5t53 -79t69 -40.5t75 -13q287 0 600 410zM717 1022q-74 0 -147.5 -75t-124.5 -184.5t-76 -227.5q173 66 271.5 109.5t150 82t64.5 67t13 74.5q0 154 -151 154z" />
    <glyph glyph-name="igrave" unicode="&#xec;" horiz-adv-x="841" 
d="M819 1282q9 -5 7.5 -16t-10.5 -20t-17 -5q-196 69 -283.5 131t-87.5 127q0 31 21.5 48.5t56.5 17.5q27 0 47 -16t40.5 -45.5t45 -63.5t71.5 -78t109 -80zM154 244q13 38 114 329t109 314q7 23 2 40.5t-19 16.5q-48 -13 -172 -143q-4 -5 -15.5 2.5t-20.5 19.5t-5 19
q171 206 308 268q34 18 80.5 5.5t83.5 -49t54.5 -94t-5.5 -130.5q-32 -94 -105.5 -311t-113.5 -332q-8 -28 -2.5 -40t18.5 -12q61 12 217 203q8 8 30 -14.5t17 -30.5q-83 -104 -182 -197t-156 -124q-33 -18 -73.5 -13t-74.5 29t-61.5 61.5t-34.5 84.5t7 98z" />
    <glyph glyph-name="iacute" unicode="&#xed;" horiz-adv-x="841" 
d="M397 1300q71 39 130.5 84.5t93.5 79.5t64 63t58 44.5t60 15.5q84 0 57 -80q-51 -131 -454 -258q-9 -2 -15.5 9t-5.5 24.5t12 17.5zM154 244q13 38 114 329t109 314q7 23 2 40.5t-19 16.5q-48 -13 -172 -143q-4 -5 -15.5 2.5t-20.5 19.5t-5 19q171 206 308 268
q34 18 80.5 5.5t83.5 -49t54.5 -94t-5.5 -130.5q-32 -94 -105.5 -311t-113.5 -332q-8 -28 -2.5 -40t18.5 -12q61 12 217 203q8 8 30 -14.5t17 -30.5q-83 -104 -182 -197t-156 -124q-33 -18 -73.5 -13t-74.5 29t-61.5 61.5t-34.5 84.5t7 98z" />
    <glyph glyph-name="icircumflex" unicode="&#xee;" horiz-adv-x="841" 
d="M901 1243q-27 24 -106 93t-121 108l-375 -201q-7 -1 -12 7t-4.5 18.5t8.5 15.5q41 35 114.5 99t134.5 116.5t115 97.5h148q25 -54 70.5 -160t66.5 -153q6 -6 -12 -24.5t-27 -16.5zM154 244q13 38 114 329t109 314q7 23 2 40.5t-19 16.5q-48 -13 -172 -143
q-4 -5 -15.5 2.5t-20.5 19.5t-5 19q171 206 308 268q34 18 80.5 5.5t83.5 -49t54.5 -94t-5.5 -130.5q-32 -94 -105.5 -311t-113.5 -332q-8 -28 -2.5 -40t18.5 -12q61 12 217 203q8 8 30 -14.5t17 -30.5q-83 -104 -182 -197t-156 -124q-33 -18 -73.5 -13t-74.5 29t-61.5 61.5
t-34.5 84.5t7 98z" />
    <glyph glyph-name="idieresis" unicode="&#xef;" horiz-adv-x="841" 
d="M397 1274q-64 0 -92.5 38t-9.5 89q18 49 73 87t119 38t93.5 -38t11.5 -87q-19 -51 -75 -89t-120 -38zM823 1274q-64 0 -91.5 38t-8.5 89q18 50 72.5 87.5t119.5 37.5q64 0 92.5 -38t10.5 -87q-18 -51 -73.5 -89t-121.5 -38zM154 244q13 38 114 329t109 314q7 23 2 40.5
t-19 16.5q-48 -13 -172 -143q-4 -5 -15.5 2.5t-20.5 19.5t-5 19q171 206 308 268q34 18 80.5 5.5t83.5 -49t54.5 -94t-5.5 -130.5q-32 -94 -105.5 -311t-113.5 -332q-8 -28 -2.5 -40t18.5 -12q61 12 217 203q8 8 30 -14.5t17 -30.5q-83 -104 -182 -197t-156 -124
q-33 -18 -73.5 -13t-74.5 29t-61.5 61.5t-34.5 84.5t7 98z" />
    <glyph glyph-name="eth" unicode="&#xf0;" horiz-adv-x="1312" 
d="M965 1481q262 -282 262 -609q0 -130 -39 -260.5t-113 -244.5t-173 -202.5t-227.5 -140t-266.5 -51.5q-183 0 -286.5 90.5t-103.5 245.5q0 85 30 179t82.5 184t129 172t164.5 143.5t193.5 98t211.5 36.5q31 0 105 -20q-5 171 -84 303l-178 -121l-47 57l184 125
q-49 66 -119 142q-14 14 8.5 37.5t44.5 17.5q94 -60 166 -129l219 149l48 -59zM461 47q88 2 173 92.5t147 231t103 312t48 335.5q-104 31 -152 31q-105 -4 -216 -151t-179 -340t-68 -339q0 -175 144 -172z" />
    <glyph glyph-name="ntilde" unicode="&#xf1;" horiz-adv-x="1538" 
d="M1452 1530q-56 -89 -167.5 -167.5t-201.5 -78.5q-43 0 -118 21l-91 24q-59 19 -124 19q-25 0 -41 -5.5t-38.5 -29.5t-45.5 -72q-7 -13 -51 -6q-29 6 -27 14q56 89 168.5 167.5t202.5 78.5q47 0 118 -20l88 -25q62 -18 125 -18q39 0 65 18.5t60 87.5q7 13 50 7
q31 -6 28 -15zM1378 350q4 3 11 0.5t13.5 -8.5t13 -13.5t8 -14t-0.5 -9.5q-82 -105 -179.5 -196.5t-156.5 -124.5q-42 -22 -93.5 -9t-89 52.5t-57 96.5t2.5 122q70 214 162 471q59 165 0 186q-62 -10 -154.5 -89t-175 -184t-131.5 -198q-68 -122 -150 -375q-7 -21 -30 -30
q-112 -47 -291 -47q-23 0 -27.5 6t4.5 28q144 361 318 871q9 26 5 43.5t-18 15.5q-47 -11 -176 -143q-4 -5 -15 2.5t-19.5 19.5t-4.5 19q170 205 306 268q35 18 82 6t84 -48.5t55 -94.5t-4 -131l-60 -170h13q140 177 263 286.5t255 153.5q45 15 89 3t75 -44.5t52.5 -79
t20.5 -100.5t-22 -109q-90 -222 -211 -583q-16 -52 16 -52q61 12 217 203z" />
    <glyph glyph-name="ograve" unicode="&#xf2;" horiz-adv-x="1228" 
d="M1098 1282q9 -5 7 -16t-11 -20t-17 -5q-196 69 -283 131t-87 127q0 31 21 48.5t56 17.5q27 0 47.5 -16t41 -45.5t45 -63.5t71.5 -78t109 -80zM420 -27q-183 0 -286 90.5t-103 245.5q0 85 30 179t82.5 184t128.5 172t164 143.5t193.5 98t212.5 36.5q184 0 287.5 -90.5
t103.5 -247.5q0 -102 -41.5 -216t-118.5 -218.5t-176 -189.5t-224.5 -136t-252.5 -51zM469 47q82 2 169 93t151 220t105.5 270.5t41.5 243.5q0 178 -145 175q-80 -3 -165.5 -93t-149 -217.5t-105 -270t-41.5 -249.5q0 -175 139 -172z" />
    <glyph glyph-name="oacute" unicode="&#xf3;" horiz-adv-x="1228" 
d="M678 1300q86 48 156 105t103 94t70 62.5t76 25.5q40 0 55.5 -20.5t2.5 -59.5q-51 -131 -455 -258q-9 -2 -15.5 9t-5 24.5t12.5 17.5zM420 -27q-183 0 -286 90.5t-103 245.5q0 85 30 179t82.5 184t128.5 172t164 143.5t193.5 98t212.5 36.5q184 0 287.5 -90.5
t103.5 -247.5q0 -102 -41.5 -216t-118.5 -218.5t-176 -189.5t-224.5 -136t-252.5 -51zM469 47q82 2 169 93t151 220t105.5 270.5t41.5 243.5q0 178 -145 175q-80 -3 -165.5 -93t-149 -217.5t-105 -270t-41.5 -249.5q0 -175 139 -172z" />
    <glyph glyph-name="ocircumflex" unicode="&#xf4;" horiz-adv-x="1228" 
d="M1182 1243q-29 26 -108 94.5t-120 106.5l-374 -201q-7 -1 -12 7t-5 18.5t8 15.5q321 276 365 313h147q25 -55 71 -161t67 -152q6 -6 -12 -24.5t-27 -16.5zM420 -27q-183 0 -286 90.5t-103 245.5q0 85 30 179t82.5 184t128.5 172t164 143.5t193.5 98t212.5 36.5
q184 0 287.5 -90.5t103.5 -247.5q0 -102 -41.5 -216t-118.5 -218.5t-176 -189.5t-224.5 -136t-252.5 -51zM469 47q82 2 169 93t151 220t105.5 270.5t41.5 243.5q0 178 -145 175q-80 -3 -165.5 -93t-149 -217.5t-105 -270t-41.5 -249.5q0 -175 139 -172z" />
    <glyph glyph-name="otilde" unicode="&#xf5;" horiz-adv-x="1228" 
d="M1386 1530q-57 -90 -167.5 -168t-200.5 -78q-44 0 -119 21l-90 24q-59 19 -125 19q-25 0 -41 -5.5t-38.5 -29.5t-45.5 -72q-7 -13 -51 -6q-29 6 -27 14q56 89 168.5 167.5t202.5 78.5q48 0 119 -20l88 -25q62 -18 125 -18q39 0 65 18.5t60 87.5q7 13 50 7q30 -6 27 -15z
M420 -27q-183 0 -286 90.5t-103 245.5q0 85 30 179t82.5 184t128.5 172t164 143.5t193.5 98t212.5 36.5q184 0 287.5 -90.5t103.5 -247.5q0 -102 -41.5 -216t-118.5 -218.5t-176 -189.5t-224.5 -136t-252.5 -51zM469 47q82 2 169 93t151 220t105.5 270.5t41.5 243.5
q0 178 -145 175q-80 -3 -165.5 -93t-149 -217.5t-105 -270t-41.5 -249.5q0 -175 139 -172z" />
    <glyph glyph-name="odieresis" unicode="&#xf6;" horiz-adv-x="1228" 
d="M678 1274q-64 0 -93 38t-10 89q18 49 73.5 87t119.5 38t93 -38t11 -87q-19 -51 -74.5 -89t-119.5 -38zM1104 1274q-64 0 -91.5 38t-8.5 89q18 50 72.5 87.5t119.5 37.5q64 0 92 -38t10 -87q-18 -51 -73.5 -89t-120.5 -38zM420 -27q-183 0 -286 90.5t-103 245.5
q0 85 30 179t82.5 184t128.5 172t164 143.5t193.5 98t212.5 36.5q184 0 287.5 -90.5t103.5 -247.5q0 -102 -41.5 -216t-118.5 -218.5t-176 -189.5t-224.5 -136t-252.5 -51zM469 47q82 2 169 93t151 220t105.5 270.5t41.5 243.5q0 178 -145 175q-80 -3 -165.5 -93
t-149 -217.5t-105 -270t-41.5 -249.5q0 -175 139 -172z" />
    <glyph glyph-name="divide" unicode="&#xf7;" horiz-adv-x="880" 
d="M514 709q-74 0 -106.5 47t-10.5 110q24 64 89 110t141 46t108 -46.5t8 -109.5t-89.5 -110t-139.5 -47zM66 520l26 78h750l-27 -78h-749zM289 90q-74 0 -106.5 47.5t-10.5 110.5q23 62 88 107.5t141 45.5t108 -45.5t9 -107.5q-23 -63 -88.5 -110.5t-140.5 -47.5z" />
    <glyph glyph-name="oslash" unicode="&#xf8;" horiz-adv-x="1228" 
d="M1563 1393l-406 -387q76 -88 76 -222q0 -102 -41.5 -216t-118.5 -218.5t-176 -189.5t-224.5 -136t-252.5 -51q-162 0 -266 74l-385 -366l-78 14l415 397q-75 84 -75 217q0 85 30 179t82.5 184t128.5 172t164 143.5t193.5 98t212.5 36.5q163 0 266 -73l377 358zM791 1049
q-72 -3 -149.5 -77t-138.5 -184.5t-106.5 -238t-60.5 -238.5l600 572q-3 169 -145 166zM469 47q74 2 153 77.5t141 187t107 239.5t60 237l-600 -573q0 -171 139 -168z" />
    <glyph glyph-name="ugrave" unicode="&#xf9;" horiz-adv-x="1536" 
d="M1206 1282q9 -5 7.5 -16t-10.5 -20t-17 -5q-196 69 -283.5 131t-87.5 127q0 31 21.5 48.5t56.5 17.5q27 0 47 -16t40.5 -45.5t45 -63.5t71.5 -78t109 -80zM1147 207q-8 -25 -4.5 -43.5t18.5 -18.5q24 6 84 61t133 142q6 6 28.5 -13t16.5 -28q-84 -106 -178 -199
t-166 -128q-34 -17 -81.5 -3.5t-86 51t-58 94.5t2.5 128q11 29 29.5 88.5t27.5 85.5h-10q-138 -172 -263.5 -285t-256.5 -155q-44 -15 -88 -4t-75.5 43t-53 78.5t-20.5 101t22 110.5q31 77 209 578q8 28 3 40.5t-20 12.5q-29 -7 -63.5 -37t-106.5 -106q-10 -9 -28 13t-12 32
q120 151 282 258q33 20 74 17t75.5 -26.5t62 -61t34 -85.5t-7.5 -100q-98 -300 -160 -471q-30 -88 -29.5 -130.5t31.5 -53.5q61 10 153.5 88.5t175 182.5t130.5 195q78 144 149 377q10 23 33 33q125 49 293 45q22 2 25.5 -4t-5.5 -31q-158 -376 -319 -872z" />
    <glyph glyph-name="uacute" unicode="&#xfa;" horiz-adv-x="1536" 
d="M786 1300q71 39 130.5 84.5t93.5 79.5t64 63t58 44.5t60 15.5q84 0 57 -80q-51 -131 -454 -258q-9 -2 -15.5 9t-5.5 24.5t12 17.5zM1147 207q-8 -25 -4.5 -43.5t18.5 -18.5q24 6 84 61t133 142q6 6 28.5 -13t16.5 -28q-84 -106 -178 -199t-166 -128q-34 -17 -81.5 -3.5
t-86 51t-58 94.5t2.5 128q11 29 29.5 88.5t27.5 85.5h-10q-138 -172 -263.5 -285t-256.5 -155q-44 -15 -88 -4t-75.5 43t-53 78.5t-20.5 101t22 110.5q31 77 209 578q8 28 3 40.5t-20 12.5q-29 -7 -63.5 -37t-106.5 -106q-10 -9 -28 13t-12 32q120 151 282 258q33 20 74 17
t75.5 -26.5t62 -61t34 -85.5t-7.5 -100q-98 -300 -160 -471q-30 -88 -29.5 -130.5t31.5 -53.5q61 10 153.5 88.5t175 182.5t130.5 195q78 144 149 377q10 23 33 33q125 49 293 45q22 2 25.5 -4t-5.5 -31q-158 -376 -319 -872z" />
    <glyph glyph-name="ucircumflex" unicode="&#xfb;" horiz-adv-x="1536" 
d="M1288 1243q-27 24 -106 93t-121 108l-375 -201q-7 -1 -12 7t-4.5 18.5t8.5 15.5q41 35 114.5 99t134.5 116.5t115 97.5h148q25 -54 70.5 -160t66.5 -153q6 -6 -12 -24.5t-27 -16.5zM1147 207q-8 -25 -4.5 -43.5t18.5 -18.5q24 6 84 61t133 142q6 6 28.5 -13t16.5 -28
q-84 -106 -178 -199t-166 -128q-34 -17 -81.5 -3.5t-86 51t-58 94.5t2.5 128q11 29 29.5 88.5t27.5 85.5h-10q-138 -172 -263.5 -285t-256.5 -155q-44 -15 -88 -4t-75.5 43t-53 78.5t-20.5 101t22 110.5q31 77 209 578q8 28 3 40.5t-20 12.5q-29 -7 -63.5 -37t-106.5 -106
q-10 -9 -28 13t-12 32q120 151 282 258q33 20 74 17t75.5 -26.5t62 -61t34 -85.5t-7.5 -100q-98 -300 -160 -471q-30 -88 -29.5 -130.5t31.5 -53.5q61 10 153.5 88.5t175 182.5t130.5 195q78 144 149 377q10 23 33 33q125 49 293 45q22 2 25.5 -4t-5.5 -31
q-158 -376 -319 -872z" />
    <glyph glyph-name="udieresis" unicode="&#xfc;" horiz-adv-x="1536" 
d="M784 1274q-64 0 -92.5 38t-9.5 89q18 49 73 87t119 38t93.5 -38t11.5 -87q-19 -51 -75 -89t-120 -38zM1210 1274q-64 0 -91.5 38t-8.5 89q18 50 73 87.5t120 37.5q64 0 92 -38t10 -87q-18 -51 -73.5 -89t-121.5 -38zM1147 207q-8 -25 -4.5 -43.5t18.5 -18.5q24 6 84 61
t133 142q6 6 28.5 -13t16.5 -28q-84 -106 -178 -199t-166 -128q-34 -17 -81.5 -3.5t-86 51t-58 94.5t2.5 128q11 29 29.5 88.5t27.5 85.5h-10q-138 -172 -263.5 -285t-256.5 -155q-44 -15 -88 -4t-75.5 43t-53 78.5t-20.5 101t22 110.5q31 77 209 578q8 28 3 40.5t-20 12.5
q-29 -7 -63.5 -37t-106.5 -106q-10 -9 -28 13t-12 32q120 151 282 258q33 20 74 17t75.5 -26.5t62 -61t34 -85.5t-7.5 -100q-98 -300 -160 -471q-30 -88 -29.5 -130.5t31.5 -53.5q61 10 153.5 88.5t175 182.5t130.5 195q78 144 149 377q10 23 33 33q125 49 293 45
q22 2 25.5 -4t-5.5 -31q-158 -376 -319 -872z" />
    <glyph glyph-name="yacute" unicode="&#xfd;" horiz-adv-x="1355" 
d="M739 1249q-9 -2 -15.5 9t-5 24.5t12.5 17.5q71 39 130.5 84.5t93.5 79.5t64 63t58 44.5t60 15.5q84 0 57 -80q-51 -131 -455 -258zM1202 1122q61 0 107.5 -55.5t46.5 -142.5q0 -136 -58 -274t-154.5 -252.5t-217 -208t-250.5 -154.5q-135 -62 -206 -122t-71 -134
q0 -35 17 -65t39.5 -49.5t59 -38t62.5 -28t62 -20.5q25 -5 25 -31q0 -37 -61.5 -97t-131.5 -60q-85 0 -159 65.5t-74 163.5q0 116 61 206.5t174 166.5q-43 13 -86.5 39t-87.5 67.5t-71.5 106t-26.5 139.5q1 60 10 107t22.5 85.5t42.5 134t58 212.5q16 61 -15 61
q-50 -15 -172 -143q-4 -5 -15.5 3.5t-20 20.5t-5.5 17q172 204 308 268q35 19 82.5 7.5t85.5 -48t55.5 -95.5t-8.5 -134q-133 -390 -133 -580q0 -68 37 -114t100 -60q21 12 47 25q206 95 320 264t114 352q0 137 -115 207q-18 12 -18 33q0 20 32.5 56.5t86.5 67.5t102 31z
" />
    <glyph glyph-name="thorn" unicode="&#xfe;" horiz-adv-x="1282" 
d="M1141 1122q70 0 131 -64t61 -161q0 -89 -44.5 -196.5t-115 -208t-159.5 -197.5t-176.5 -168t-168 -114.5t-132.5 -43.5q-67 0 -230 51l-71 -206q-25 -87 -52 -145.5t-69 -129.5q90 -4 141 -4q9 1 9 -5q-2 -8 -11 -9q-136 -37 -232 -57.5t-215 -32.5q-6 -2 -12 1.5
t-8.5 13t4.5 26.5q53 117 68 159q52 140 194.5 532.5t260.5 717t135 364.5q93 237 122 281q-8 1 -139 -2q-7 0 -9 4.5t1 9.5t10 6q9 2 50 13t50 13t43.5 11t47 11.5t43.5 9t50 9.5t48 8t56.5 8.5t58.5 6.5q34 0 18 -37q-25 -52 -180.5 -468t-167.5 -459h10q317 452 580 452z
M639 88q51 0 118.5 74t124.5 182.5t96.5 242.5t39.5 242q0 34 -23.5 58t-40.5 24q-56 0 -139.5 -66.5t-157.5 -156.5t-132.5 -177.5t-75.5 -133.5l-54 -150q61 -58 135.5 -98.5t108.5 -40.5z" />
    <glyph glyph-name="ydieresis" unicode="&#xff;" horiz-adv-x="1355" 
d="M729 1274q-64 0 -92.5 38t-9.5 89q18 49 73 87t119 38t93.5 -38t11.5 -87q-19 -51 -75 -89t-120 -38zM1155 1274q-64 0 -91.5 38t-8.5 89q18 50 72.5 87.5t119.5 37.5q64 0 92.5 -38t10.5 -87q-18 -51 -73.5 -89t-121.5 -38zM1202 1122q61 0 107.5 -55.5t46.5 -142.5
q0 -136 -58 -274t-154.5 -252.5t-217 -208t-250.5 -154.5q-135 -62 -206 -122t-71 -134q0 -35 17 -65t39.5 -49.5t59 -38t62.5 -28t62 -20.5q25 -5 25 -31q0 -37 -61.5 -97t-131.5 -60q-85 0 -159 65.5t-74 163.5q0 116 61 206.5t174 166.5q-43 13 -86.5 39t-87.5 67.5
t-71.5 106t-26.5 139.5q1 60 10 107t22.5 85.5t42.5 134t58 212.5q16 61 -15 61q-50 -15 -172 -143q-4 -5 -15.5 3.5t-20 20.5t-5.5 17q172 204 308 268q35 19 82.5 7.5t85.5 -48t55.5 -95.5t-8.5 -134q-133 -390 -133 -580q0 -68 37 -114t100 -60q21 12 47 25
q206 95 320 264t114 352q0 137 -115 207q-18 12 -18 33q0 20 32.5 56.5t86.5 67.5t102 31z" />
    <glyph glyph-name="Amacron" unicode="&#x100;" horiz-adv-x="1667" 
d="M975 1810h657l-30 -79h-656zM1501 84q3 0 4.5 -21t1.5 -42t-2 -21h-153h-375h-219q-4 0 -4.5 21t2 42t6.5 21q150 0 187 33t30 192q0 10 -1 32t-1 32h-338h-264l-76 -97q-34 -43 -52.5 -71.5t-26 -51t-1.5 -35t27.5 -21t53.5 -11t83 -2.5q4 0 6.5 -21t2 -42t-4.5 -21
h-256h-108h-166q-2 0 -2 21t1 42t3 21q103 0 172 35t159 149l758 965l-6 182q-3 19 12 23q233 29 322 39q12 3 16 -4l45 -1170q1 -42 3 -72t7.5 -54t9.5 -39t16 -26t20.5 -16t28.5 -8t34.5 -3.5t44.5 -0.5zM674 467h301q-3 113 -23 635l-501 -635h223z" />
    <glyph glyph-name="amacron" unicode="&#x101;" horiz-adv-x="1472" 
d="M1384 1360h-655l29 80h657zM1315 350q6 6 18.5 -3.5t21.5 -23t5 -18.5q-82 -104 -180.5 -196.5t-157.5 -124.5q-41 -22 -92.5 -10.5t-90.5 49.5t-59.5 94t0.5 123l58 180h-13q-136 -203 -291 -327t-270 -124q-77 0 -144 62.5t-67 136.5q0 110 60 245.5t154 257t200.5 225
t209.5 165t171 61.5q24 0 44.5 -2t48.5 -9.5t44.5 -12.5t61 -20t69.5 -23q27 57 29 61q10 11 126 5q131 -8 124 -27q-246 -644 -324 -895q-8 -27 1 -39.5t26 -12.5q61 12 217 203zM438 180q45 0 107 44t121 110.5t115 143t96.5 143.5t58.5 110l55 133q-61 55 -133.5 97.5
t-101.5 42.5q-58 0 -127.5 -73t-126 -180.5t-95 -241t-38.5 -245.5q0 -36 25 -60t44 -24z" />
    <glyph glyph-name="Abreve" unicode="&#x102;" horiz-adv-x="1667" 
d="M1585 1944q2 4 16 6t27 0t12 -8q-29 -102 -94.5 -171.5t-142 -99t-160.5 -29.5q-61 0 -107 17t-75.5 53t-28.5 93t33 137q5 7 18.5 9.5t25 0.5t11.5 -8q-6 -101 39 -138t131 -37t157 37t138 138zM1501 84q3 0 4.5 -21t1.5 -42t-2 -21h-153h-375h-219q-4 0 -4.5 21t2 42
t6.5 21q150 0 187 33t30 192q0 10 -1 32t-1 32h-338h-264l-76 -97q-34 -43 -52.5 -71.5t-26 -51t-1.5 -35t27.5 -21t53.5 -11t83 -2.5q4 0 6.5 -21t2 -42t-4.5 -21h-256h-108h-166q-2 0 -2 21t1 42t3 21q103 0 172 35t159 149l758 965l-6 182q-3 19 12 23q233 29 322 39
q12 3 16 -4l45 -1170q1 -42 3 -72t7.5 -54t9.5 -39t16 -26t20.5 -16t28.5 -8t34.5 -3.5t44.5 -0.5zM674 467h301q-3 113 -23 635l-501 -635h223z" />
    <glyph glyph-name="abreve" unicode="&#x103;" horiz-adv-x="1472" 
d="M1026 1272q-61 0 -107 17t-75.5 53t-28.5 92.5t33 136.5q5 7 18.5 9.5t25 0.5t11.5 -8q-3 -53 8.5 -88.5t36 -53.5t54 -25t71.5 -7q87 0 157.5 36.5t137.5 137.5q2 4 16 6t27 0t12 -8q-29 -102 -94.5 -171.5t-142 -98.5t-160.5 -29zM1315 350q6 6 18.5 -3.5t21.5 -23
t5 -18.5q-82 -104 -180.5 -196.5t-157.5 -124.5q-41 -22 -92.5 -10.5t-90.5 49.5t-59.5 94t0.5 123l58 180h-13q-136 -203 -291 -327t-270 -124q-77 0 -144 62.5t-67 136.5q0 110 60 245.5t154 257t200.5 225t209.5 165t171 61.5q24 0 44.5 -2t48.5 -9.5t44.5 -12.5t61 -20
t69.5 -23q27 57 29 61q10 11 126 5q131 -8 124 -27q-246 -644 -324 -895q-8 -27 1 -39.5t26 -12.5q61 12 217 203zM438 180q45 0 107 44t121 110.5t115 143t96.5 143.5t58.5 110l55 133q-61 55 -133.5 97.5t-101.5 42.5q-58 0 -127.5 -73t-126 -180.5t-95 -241t-38.5 -245.5
q0 -36 25 -60t44 -24z" />
    <glyph glyph-name="Aogonek" unicode="&#x104;" horiz-adv-x="1667" 
d="M1501 84q3 0 4.5 -21t1.5 -42t-2 -21h-139q-66 -44 -101.5 -70.5t-73 -65t-50.5 -73.5q-35 -92 71 -92q66 0 150 61q12 6 24 -13.5t3 -27.5q-29 -23 -64 -45.5t-97 -46.5t-116 -24q-75 0 -105.5 37.5t-7.5 101.5q43 117 279 258h-301h-219q-4 0 -4.5 21t2 42t6.5 21
q150 0 187 33t30 192q0 10 -1 32t-1 32h-338h-264l-76 -97q-34 -43 -52.5 -71.5t-26 -51t-1.5 -35t27.5 -21t53.5 -11t83 -2.5q4 0 6.5 -21t2 -42t-4.5 -21h-256h-108h-166q-2 0 -2 21t1 42t3 21q103 0 172 35t159 149l758 965l-6 182q-3 19 12 23q233 29 322 39q12 3 16 -4
l45 -1170q1 -42 3 -72t7.5 -54t9.5 -39t16 -26t20.5 -16t28.5 -8t34.5 -3.5t44.5 -0.5zM674 467h301q-3 113 -23 635l-501 -635h223z" />
    <glyph glyph-name="aogonek" unicode="&#x105;" horiz-adv-x="1472" 
d="M1395 1094q-246 -644 -324 -895q-8 -27 1 -39.5t26 -12.5q61 12 217 203q6 6 18.5 -3.5t21.5 -23t5 -18.5q-82 -104 -180.5 -196.5t-157.5 -124.5q-17 -9 -29 -11q-90 -61 -141 -106t-68 -92q-35 -92 72 -92q66 0 150 61q12 6 23.5 -13.5t2.5 -27.5q-145 -117 -276 -117
q-75 0 -105.5 38t-7.5 102q25 68 97 129t171 122q-73 25 -115 99.5t-16 163.5l58 180h-13q-136 -203 -291 -327t-270 -124q-77 0 -144 62.5t-67 136.5q0 110 60 245.5t154 257t200.5 225t209.5 165t171 61.5q24 0 44.5 -2t48.5 -9.5t44.5 -12.5t61 -20t69.5 -23q27 57 29 61
q10 11 126 5q131 -8 124 -27zM438 180q45 0 107 44t121 110.5t115 143t96.5 143.5t58.5 110l55 133q-61 55 -133.5 97.5t-101.5 42.5q-58 0 -127.5 -73t-126 -180.5t-95 -241t-38.5 -245.5q0 -36 25 -60t44 -24z" />
    <glyph glyph-name="Cacute" unicode="&#x106;" horiz-adv-x="1550" 
d="M1063 1638q86 48 156 105t103 94t70 62.5t76 25.5q40 0 55.5 -20.5t2.5 -59.5q-51 -131 -455 -258q-9 -2 -15.5 9t-5 24.5t12.5 17.5zM651 -23q-109 0 -206 32t-171 92t-117.5 153.5t-43.5 208.5q0 141 55.5 285.5t158.5 271t238.5 226t308 157t353.5 57.5
q77 0 158 -16.5t106 -16.5q37 0 77 29.5t68 71.5q5 7 45 4q13 -1 13 -4l-156 -658q-2 -7 -29.5 -5.5t-27.5 7.5q6 70 2.5 127t-6 103t-14.5 81.5t-23.5 61.5t-33 45t-43 31t-52.5 19t-63 9.5t-74 2.5q-127 0 -255.5 -79t-224 -199t-155.5 -269.5t-60 -284.5q0 -164 97 -261
t305 -97q272 0 571 303q7 6 21 0t23.5 -16t4.5 -15q-9 -9 -27 -28q-39 -41 -60.5 -62.5t-64.5 -63t-73.5 -66t-79 -60.5t-89.5 -57.5t-97 -47t-109.5 -39.5t-118 -23.5t-131.5 -9.5z" />
    <glyph glyph-name="cacute" unicode="&#x107;" horiz-adv-x="1214" 
d="M688 1300q71 39 130.5 84.5t93.5 79.5t64 63t58 44.5t60 15.5q84 0 57 -80q-51 -131 -455 -258q-9 -2 -15.5 9t-5 24.5t12.5 17.5zM432 -27q-169 0 -281 92t-112 267q0 118 51 238.5t134 217.5t184 173.5t207 118.5t196 42q149 0 243.5 -56t94.5 -142q0 -67 -85.5 -126
t-172.5 -59q-43 0 -43 31q0 134 -37 193t-117 59q-71 0 -151.5 -95t-135.5 -247t-55 -299q0 -120 55 -186t168 -66q71 0 162 38.5t205.5 131.5t214.5 227q7 7 19 2.5t22 -16t6 -18.5q-182 -244 -383.5 -382.5t-388.5 -138.5z" />
    <glyph glyph-name="Ccircumflex" unicode="&#x108;" horiz-adv-x="1550" 
d="M1565 1581q-29 26 -108 94.5t-120 106.5l-374 -201q-7 -1 -12 7t-5 18.5t8 15.5q321 276 365 313h147q25 -55 71 -161t67 -152q6 -6 -12 -24.5t-27 -16.5zM651 -23q-109 0 -206 32t-171 92t-117.5 153.5t-43.5 208.5q0 141 55.5 285.5t158.5 271t238.5 226t308 157
t353.5 57.5q77 0 158 -16.5t106 -16.5q37 0 77 29.5t68 71.5q5 7 45 4q13 -1 13 -4l-156 -658q-2 -7 -29.5 -5.5t-27.5 7.5q6 70 2.5 127t-6 103t-14.5 81.5t-23.5 61.5t-33 45t-43 31t-52.5 19t-63 9.5t-74 2.5q-127 0 -255.5 -79t-224 -199t-155.5 -269.5t-60 -284.5
q0 -164 97 -261t305 -97q272 0 571 303q7 6 21 0t23.5 -16t4.5 -15q-9 -9 -27 -28q-39 -41 -60.5 -62.5t-64.5 -63t-73.5 -66t-79 -60.5t-89.5 -57.5t-97 -47t-109.5 -39.5t-118 -23.5t-131.5 -9.5z" />
    <glyph glyph-name="ccircumflex" unicode="&#x109;" horiz-adv-x="1214" 
d="M1190 1243q-27 24 -106 93t-121 108l-375 -201q-7 -1 -12 7t-4.5 18.5t8.5 15.5q41 35 114.5 99t134.5 116.5t115 97.5h148q25 -54 70.5 -160t66.5 -153q6 -6 -12 -24.5t-27 -16.5zM432 -27q-169 0 -281 92t-112 267q0 118 51 238.5t134 217.5t184 173.5t207 118.5
t196 42q149 0 243.5 -56t94.5 -142q0 -67 -85.5 -126t-172.5 -59q-43 0 -43 31q0 134 -37 193t-117 59q-71 0 -151.5 -95t-135.5 -247t-55 -299q0 -120 55 -186t168 -66q71 0 162 38.5t205.5 131.5t214.5 227q7 7 19 2.5t22 -16t6 -18.5q-182 -244 -383.5 -382.5
t-388.5 -138.5z" />
    <glyph glyph-name="Cdotaccent" unicode="&#x10a;" horiz-adv-x="1550" 
d="M1272 1606q-60 0 -86 35.5t-6 89.5q21 54 71.5 89t110.5 35q61 0 87.5 -35t6.5 -89q-20 -56 -70.5 -90.5t-113.5 -34.5zM651 -23q-109 0 -206 32t-171 92t-117.5 153.5t-43.5 208.5q0 141 55.5 285.5t158.5 271t238.5 226t308 157t353.5 57.5q77 0 158 -16.5t106 -16.5
q37 0 77 29.5t68 71.5q5 7 45 4q13 -1 13 -4l-156 -658q-2 -7 -29.5 -5.5t-27.5 7.5q6 70 2.5 127t-6 103t-14.5 81.5t-23.5 61.5t-33 45t-43 31t-52.5 19t-63 9.5t-74 2.5q-127 0 -255.5 -79t-224 -199t-155.5 -269.5t-60 -284.5q0 -164 97 -261t305 -97q272 0 571 303
q7 6 21 0t23.5 -16t4.5 -15q-9 -9 -27 -28q-39 -41 -60.5 -62.5t-64.5 -63t-73.5 -66t-79 -60.5t-89.5 -57.5t-97 -47t-109.5 -39.5t-118 -23.5t-131.5 -9.5z" />
    <glyph glyph-name="cdotaccent" unicode="&#x10b;" horiz-adv-x="1214" 
d="M897 1268q-60 0 -86 35.5t-6 89.5q21 54 71.5 89.5t110.5 35.5q61 0 87.5 -35.5t6.5 -89.5q-20 -56 -70.5 -90.5t-113.5 -34.5zM432 -27q-169 0 -281 92t-112 267q0 118 51 238.5t134 217.5t184 173.5t207 118.5t196 42q149 0 243.5 -56t94.5 -142q0 -67 -85.5 -126
t-172.5 -59q-43 0 -43 31q0 134 -37 193t-117 59q-71 0 -151.5 -95t-135.5 -247t-55 -299q0 -120 55 -186t168 -66q71 0 162 38.5t205.5 131.5t214.5 227q7 7 19 2.5t22 -16t6 -18.5q-182 -244 -383.5 -382.5t-388.5 -138.5z" />
    <glyph glyph-name="Ccaron" unicode="&#x10c;" horiz-adv-x="1550" 
d="M1702 1958q7 1 12 -7.5t4.5 -19t-8.5 -14.5q-41 -35 -114.5 -99t-134.5 -116.5t-115 -97.5h-148q-25 54 -70.5 160t-66.5 153q-4 7 13 25t26 16l229 -201q61 34 186 100.5t187 100.5zM651 -23q-109 0 -206 32t-171 92t-117.5 153.5t-43.5 208.5q0 141 55.5 285.5
t158.5 271t238.5 226t308 157t353.5 57.5q77 0 158 -16.5t106 -16.5q37 0 77 29.5t68 71.5q5 7 45 4q13 -1 13 -4l-156 -658q-2 -7 -29.5 -5.5t-27.5 7.5q6 70 2.5 127t-6 103t-14.5 81.5t-23.5 61.5t-33 45t-43 31t-52.5 19t-63 9.5t-74 2.5q-127 0 -255.5 -79t-224 -199
t-155.5 -269.5t-60 -284.5q0 -164 97 -261t305 -97q272 0 571 303q7 6 21 0t23.5 -16t4.5 -15q-9 -9 -27 -28q-39 -41 -60.5 -62.5t-64.5 -63t-73.5 -66t-79 -60.5t-89.5 -57.5t-97 -47t-109.5 -39.5t-118 -23.5t-131.5 -9.5z" />
    <glyph glyph-name="ccaron" unicode="&#x10d;" horiz-adv-x="1214" 
d="M1327 1620q7 1 12 -7.5t4.5 -19t-8.5 -14.5q-41 -35 -114.5 -99t-134.5 -116.5t-115 -97.5h-148q-25 54 -70.5 160t-66.5 153q-4 7 13 25t26 16l229 -201q62 34 187 100.5t186 100.5zM432 -27q-169 0 -281 92t-112 267q0 118 51 238.5t134 217.5t184 173.5t207 118.5
t196 42q149 0 243.5 -56t94.5 -142q0 -67 -85.5 -126t-172.5 -59q-43 0 -43 31q0 134 -37 193t-117 59q-71 0 -151.5 -95t-135.5 -247t-55 -299q0 -120 55 -186t168 -66q71 0 162 38.5t205.5 131.5t214.5 227q7 7 19 2.5t22 -16t6 -18.5q-182 -244 -383.5 -382.5
t-388.5 -138.5z" />
    <glyph glyph-name="Dcaron" unicode="&#x10e;" horiz-adv-x="1814" 
d="M1434 1960q7 1 12 -7.5t4.5 -19t-8.5 -14.5q-322 -276 -365 -313h-147q-25 54 -70.5 160t-66.5 153q-4 7 12.5 25t25.5 16l230 -201q61 34 186 100.5t187 100.5zM662 0h-541h-172q-3 0 -3.5 21t1 42t4.5 21h54t42 3t34 6.5t26 13t23 20.5t18.5 31t19.5 42t20 56l336 924
q13 32 20.5 55.5t8 42t-0.5 30.5t-12.5 20t-21 12.5t-34.5 6.5t-43.5 2.5t-55.5 0.5q-4 0 -6 21t-1.5 42t3.5 21h176h586q112 0 211 -18t184.5 -56t147 -94t96.5 -136t35 -178q0 -154 -60 -299t-169 -262t-252 -205.5t-317.5 -137t-356.5 -48.5zM487 94h113q140 0 266 40.5
t220 109.5t169.5 159t123.5 191t73 203t25 198q0 168 -104 255t-337 87h-96q-35 -64 -62 -129t-81 -211l-205 -561q-38 -107 -52.5 -150t-29.5 -95.5t-23 -96.5z" />
    <glyph glyph-name="dcaron" unicode="&#x10f;" horiz-adv-x="1488" 
d="M1692 1249q-6 -11 -42 -9q-21 2 -20 9q33 91 49.5 183t30.5 133q9 26 32.5 41.5t53.5 15.5q29 0 41 -15.5t4 -41.5q-15 -39 -66 -131.5t-83 -184.5zM1552 1579q20 1 25 -9.5t-4 -25.5q-38 -77 -246.5 -636.5t-253.5 -710.5q-6 -20 2 -35t23 -15q62 13 217 203
q6 6 18.5 -3.5t21.5 -23t5 -18.5q-80 -101 -181.5 -197t-156.5 -126q-34 -18 -75.5 -12.5t-76.5 30t-62.5 62t-34 84.5t8.5 96q14 39 60 178h-11q-137 -200 -295.5 -325.5t-273.5 -125.5q-72 0 -140.5 62.5t-68.5 134.5q0 109 60 244.5t154 257.5t200.5 226t208.5 166
t168 62q77 0 235 -45q11 31 32.5 88.5t25.5 67.5q57 161 75 190q-9 1 -18.5 1t-41 -0.5t-71.5 -0.5q-7 -1 -9.5 15t0 33t9.5 18q283 71 471 90zM440 180q44 0 105.5 46t121.5 114.5t116.5 145.5t96 143t54.5 102l53 131q-65 63 -131 102.5t-104 39.5q-55 0 -123.5 -73.5
t-125 -182t-95.5 -241.5t-39 -243q0 -35 26.5 -59.5t44.5 -24.5z" />
    <glyph glyph-name="Dcroat" unicode="&#x110;" horiz-adv-x="1814" 
d="M1143 1434q112 0 211 -18t184.5 -56t147 -94t96.5 -136t35 -178q0 -154 -60 -299t-169 -262t-252 -205.5t-317.5 -137t-356.5 -48.5h-541h-172q-3 0 -3.5 21t1 42t4.5 21h54t42 3t34 6.5t26 13t23 20.5t18.5 31t19.5 42t20 56l150 412h-162l35 96h162l151 416
q13 32 20.5 55.5t8 42t-0.5 30.5t-12.5 20t-21 12.5t-34.5 6.5t-43.5 2.5t-55.5 0.5q-4 0 -6 21t-1.5 42t3.5 21h176h586zM600 94q140 0 266 40.5t220 109.5t169.5 159t123.5 191t73 203t25 198q0 168 -104 255t-337 87h-96q-35 -64 -62 -129t-81 -211l-86 -233h114l-34 -96
h-115l-84 -232q-38 -107 -52.5 -150t-29.5 -95.5t-23 -96.5h113z" />
    <glyph glyph-name="dcroat" unicode="&#x111;" horiz-adv-x="1488" 
d="M1462 1268q-115 -303 -236.5 -635t-152.5 -436q-6 -20 2 -35t23 -15q62 13 217 203q6 6 18.5 -3.5t21.5 -23t5 -18.5q-80 -101 -181.5 -197t-156.5 -126q-34 -18 -75.5 -12.5t-76.5 30t-62.5 62t-34 84.5t8.5 96q14 39 60 178h-11q-137 -200 -295.5 -325.5t-273.5 -125.5
q-72 0 -140.5 62.5t-68.5 134.5q0 109 60 244.5t154 257.5t200.5 226t208.5 166t168 62q77 0 235 -45q11 31 32.5 88.5t25.5 67.5l12 35h-205l35 96h207q11 34 26 59q-9 1 -18.5 1t-41 -0.5t-71.5 -0.5q-7 -1 -9.5 15t0 33t9.5 18q283 71 471 90q20 1 25 -9.5t-4 -25.5
q-8 -16 -74 -180h94l-34 -96h-97zM934 731l53 131q-65 63 -131 102.5t-104 39.5q-55 0 -123.5 -73.5t-125 -182t-95.5 -241.5t-39 -243q0 -35 26.5 -59.5t44.5 -24.5q44 0 105.5 46t121.5 114.5t116.5 145.5t96 143t54.5 102z" />
    <glyph glyph-name="Emacron" unicode="&#x112;" horiz-adv-x="1611" 
d="M1522 1778l-31 -80h-655l28 80h658zM1704 1528q4 4 18 5t26.5 -0.5t12.5 -4.5l-155 -641q-2 -5 -32.5 -11t-31.5 -2q-4 104 -10 172t-20.5 123.5t-33.5 85.5t-53.5 50.5t-77 27t-106.5 6.5h-319l-195 -532h129q106 0 177 25.5t110 71t65 118.5q3 7 26.5 9.5t45.5 0
t20 -9.5l-186 -526q-3 -12 -55 -10q-37 1 -35 10q41 118 -1.5 166.5t-201.5 48.5h-129l-223 -617h354q67 0 115.5 6.5t98.5 28t90.5 51t96.5 87.5t110 125t136 175q5 11 41 2q19 -6 17 -12l-318 -651q-2 -5 -28.5 -6t-28.5 6q-7 47 -45.5 70.5t-142.5 23.5h-844h-176
q-3 0 -3.5 21t1.5 42t6 21h55t42 3t34.5 6.5t26 13t23 20.5t19 31t19.5 42t20 56l336 924q13 32 20.5 55.5t8 42t-0.5 30.5t-12.5 20t-21 12.5t-34.5 6.5t-43.5 2.5t-55.5 0.5q-4 0 -6 21t-1.5 42t3.5 21h176h856q119 0 185.5 24t105.5 70z" />
    <glyph glyph-name="emacron" unicode="&#x113;" horiz-adv-x="1214" 
d="M635 1440h657l-30 -80h-656zM1169 539q9 8 27.5 -9t11.5 -26q-40 -60 -95 -126t-135 -139.5t-165.5 -130.5t-189.5 -95t-203 -38q-181 0 -281 100t-100 259q0 108 45.5 223t125 214.5t178.5 179t213.5 125.5t221.5 46q143 0 235.5 -66t92.5 -147q0 -44 -19.5 -83.5
t-64.5 -76.5t-105.5 -71t-154.5 -72t-199 -74.5t-252 -82.5q-4 -46 -4 -66q0 -70 20 -121.5t53 -79t69 -40.5t75 -13q287 0 600 410zM717 1022q-74 0 -147.5 -75t-124.5 -184.5t-76 -227.5q173 66 271.5 109.5t150 82t64.5 67t13 74.5q0 154 -151 154z" />
    <glyph glyph-name="Ebreve" unicode="&#x114;" horiz-adv-x="1611" 
d="M1130 1610q-61 0 -107 17t-75.5 53t-28.5 92.5t33 136.5q5 7 18.5 9.5t25.5 0.5t12 -8q-3 -53 8.5 -88.5t36 -53.5t54 -25t71.5 -7q87 0 157.5 36.5t137.5 137.5q2 4 16 6t27 0t12 -8q-29 -102 -95 -171.5t-142.5 -98.5t-160.5 -29zM1704 1528q4 4 18 5t26.5 -0.5
t12.5 -4.5l-155 -641q-2 -5 -32.5 -11t-31.5 -2q-4 104 -10 172t-20.5 123.5t-33.5 85.5t-53.5 50.5t-77 27t-106.5 6.5h-319l-195 -532h129q106 0 177 25.5t110 71t65 118.5q3 7 26.5 9.5t45.5 0t20 -9.5l-186 -526q-3 -12 -55 -10q-37 1 -35 10q41 118 -1.5 166.5
t-201.5 48.5h-129l-223 -617h354q67 0 115.5 6.5t98.5 28t90.5 51t96.5 87.5t110 125t136 175q5 11 41 2q19 -6 17 -12l-318 -651q-2 -5 -28.5 -6t-28.5 6q-7 47 -45.5 70.5t-142.5 23.5h-844h-176q-3 0 -3.5 21t1.5 42t6 21h55t42 3t34.5 6.5t26 13t23 20.5t19 31t19.5 42
t20 56l336 924q13 32 20.5 55.5t8 42t-0.5 30.5t-12.5 20t-21 12.5t-34.5 6.5t-43.5 2.5t-55.5 0.5q-4 0 -6 21t-1.5 42t3.5 21h176h856q119 0 185.5 24t105.5 70z" />
    <glyph glyph-name="ebreve" unicode="&#x115;" horiz-adv-x="1214" 
d="M1245 1573q2 4 16 6t27 0t12 -8q-29 -102 -94.5 -171.5t-142 -98.5t-160.5 -29q-61 0 -107 17t-75.5 53t-28.5 92.5t33 136.5q5 7 18.5 9.5t25 0.5t11.5 -8q-3 -53 8.5 -88.5t36 -53.5t54 -25t71.5 -7q87 0 157.5 36.5t137.5 137.5zM1169 539q9 8 27.5 -9t11.5 -26
q-40 -60 -95 -126t-135 -139.5t-165.5 -130.5t-189.5 -95t-203 -38q-181 0 -281 100t-100 259q0 108 45.5 223t125 214.5t178.5 179t213.5 125.5t221.5 46q143 0 235.5 -66t92.5 -147q0 -44 -19.5 -83.5t-64.5 -76.5t-105.5 -71t-154.5 -72t-199 -74.5t-252 -82.5
q-4 -46 -4 -66q0 -70 20 -121.5t53 -79t69 -40.5t75 -13q287 0 600 410zM717 1022q-74 0 -147.5 -75t-124.5 -184.5t-76 -227.5q173 66 271.5 109.5t150 82t64.5 67t13 74.5q0 154 -151 154z" />
    <glyph glyph-name="Edotaccent" unicode="&#x116;" horiz-adv-x="1611" 
d="M1128 1606q-60 0 -86 35.5t-6 89.5q21 53 71.5 88.5t111.5 35.5t87.5 -35t6.5 -89q-20 -56 -71 -90.5t-114 -34.5zM1704 1528q4 4 18 5t26.5 -0.5t12.5 -4.5l-155 -641q-2 -5 -32.5 -11t-31.5 -2q-4 104 -10 172t-20.5 123.5t-33.5 85.5t-53.5 50.5t-77 27t-106.5 6.5
h-319l-195 -532h129q106 0 177 25.5t110 71t65 118.5q3 7 26.5 9.5t45.5 0t20 -9.5l-186 -526q-3 -12 -55 -10q-37 1 -35 10q41 118 -1.5 166.5t-201.5 48.5h-129l-223 -617h354q67 0 115.5 6.5t98.5 28t90.5 51t96.5 87.5t110 125t136 175q5 11 41 2q19 -6 17 -12
l-318 -651q-2 -5 -28.5 -6t-28.5 6q-7 47 -45.5 70.5t-142.5 23.5h-844h-176q-3 0 -3.5 21t1.5 42t6 21h55t42 3t34.5 6.5t26 13t23 20.5t19 31t19.5 42t20 56l336 924q13 32 20.5 55.5t8 42t-0.5 30.5t-12.5 20t-21 12.5t-34.5 6.5t-43.5 2.5t-55.5 0.5q-4 0 -6 21t-1.5 42
t3.5 21h176h856q119 0 185.5 24t105.5 70z" />
    <glyph glyph-name="edotaccent" unicode="&#x117;" horiz-adv-x="1214" 
d="M899 1268q-60 0 -86 35.5t-6 89.5q21 54 71.5 89.5t110.5 35.5q61 0 87.5 -35.5t6.5 -89.5q-20 -56 -70.5 -90.5t-113.5 -34.5zM1169 539q9 8 27.5 -9t11.5 -26q-40 -60 -95 -126t-135 -139.5t-165.5 -130.5t-189.5 -95t-203 -38q-181 0 -281 100t-100 259
q0 108 45.5 223t125 214.5t178.5 179t213.5 125.5t221.5 46q143 0 235.5 -66t92.5 -147q0 -44 -19.5 -83.5t-64.5 -76.5t-105.5 -71t-154.5 -72t-199 -74.5t-252 -82.5q-4 -46 -4 -66q0 -70 20 -121.5t53 -79t69 -40.5t75 -13q287 0 600 410zM717 1022q-74 0 -147.5 -75
t-124.5 -184.5t-76 -227.5q173 66 271.5 109.5t150 82t64.5 67t13 74.5q0 154 -151 154z" />
    <glyph glyph-name="Eogonek" unicode="&#x118;" horiz-adv-x="1611" 
d="M1704 1528q4 4 18 5t26.5 -0.5t12.5 -4.5l-155 -641q-2 -5 -32.5 -11t-31.5 -2q-4 104 -10 172t-20.5 123.5t-33.5 85.5t-53.5 50.5t-77 27t-106.5 6.5h-319l-195 -532h129q106 0 177 25.5t110 71t65 118.5q3 7 26.5 9.5t45.5 0t20 -9.5l-186 -526q-3 -12 -55 -10
q-37 1 -35 10q41 118 -1.5 166.5t-201.5 48.5h-129l-223 -617h354q67 0 115.5 6.5t98.5 28t90.5 51t96.5 87.5t110 125t136 175q5 11 41 2q19 -6 17 -12l-318 -651q-2 -5 -28.5 -6t-28.5 6q-7 47 -45.5 70.5t-142.5 23.5h-844h-176q-3 0 -3.5 21t1.5 42t6 21h55t42 3
t34.5 6.5t26 13t23 20.5t19 31t19.5 42t20 56l336 924q13 32 20.5 55.5t8 42t-0.5 30.5t-12.5 20t-21 12.5t-34.5 6.5t-43.5 2.5t-55.5 0.5q-4 0 -6 21t-1.5 42t3.5 21h176h856q119 0 185.5 24t105.5 70zM1049 -264q12 6 23.5 -13.5t2.5 -27.5q-145 -117 -276 -117
q-75 0 -105.5 37.5t-7.5 101.5q42 118 285 263l86 -3q-67 -44 -104 -71t-75 -65.5t-51 -73.5q-35 -93 72 -93q65 0 150 62z" />
    <glyph glyph-name="eogonek" unicode="&#x119;" horiz-adv-x="1214" 
d="M1169 539q9 8 27.5 -9t11.5 -26q-81 -122 -218 -254.5t-294 -206.5q-158 -106 -186 -182q-35 -92 72 -92q65 0 149 61q12 6 24 -13.5t3 -27.5q-30 -24 -64.5 -46.5t-96.5 -46.5t-116 -24q-75 0 -105 37.5t-7 102.5q32 88 149 172q-74 -9 -98 -9q-181 0 -281 100t-100 259
q0 108 45.5 223t125 214.5t178.5 179t213.5 125.5t221.5 46q143 0 235.5 -66t92.5 -147q0 -44 -19.5 -83.5t-64.5 -76.5t-105.5 -71t-154.5 -72t-199 -74.5t-252 -82.5q-4 -46 -4 -66q0 -70 20 -121.5t53 -79t69 -40.5t75 -13q287 0 600 410zM717 1022q-74 0 -147.5 -75
t-124.5 -184.5t-76 -227.5q173 66 271.5 109.5t150 82t64.5 67t13 74.5q0 154 -151 154z" />
    <glyph glyph-name="Ecaron" unicode="&#x11a;" horiz-adv-x="1611" 
d="M1055 1604q-25 54 -70.5 160t-66.5 153q-4 7 12.5 25t25.5 16l230 -201q62 34 187 100.5t186 100.5q7 1 12 -7.5t4.5 -19t-8.5 -14.5q-322 -276 -365 -313h-147zM1704 1528q4 4 18 5t26.5 -0.5t12.5 -4.5l-155 -641q-2 -5 -32.5 -11t-31.5 -2q-4 104 -10 172t-20.5 123.5
t-33.5 85.5t-53.5 50.5t-77 27t-106.5 6.5h-319l-195 -532h129q106 0 177 25.5t110 71t65 118.5q3 7 26.5 9.5t45.5 0t20 -9.5l-186 -526q-3 -12 -55 -10q-37 1 -35 10q41 118 -1.5 166.5t-201.5 48.5h-129l-223 -617h354q67 0 115.5 6.5t98.5 28t90.5 51t96.5 87.5t110 125
t136 175q5 11 41 2q19 -6 17 -12l-318 -651q-2 -5 -28.5 -6t-28.5 6q-7 47 -45.5 70.5t-142.5 23.5h-844h-176q-3 0 -3.5 21t1.5 42t6 21h55t42 3t34.5 6.5t26 13t23 20.5t19 31t19.5 42t20 56l336 924q13 32 20.5 55.5t8 42t-0.5 30.5t-12.5 20t-21 12.5t-34.5 6.5
t-43.5 2.5t-55.5 0.5q-4 0 -6 21t-1.5 42t3.5 21h176h856q119 0 185.5 24t105.5 70z" />
    <glyph glyph-name="ecaron" unicode="&#x11b;" horiz-adv-x="1214" 
d="M1331 1620q7 1 12 -7.5t4.5 -19t-8.5 -14.5q-41 -35 -114.5 -99t-134.5 -116.5t-115 -97.5h-148q-25 54 -70.5 160t-66.5 153q-4 7 13 25t26 16l229 -201q61 34 186.5 100.5t186.5 100.5zM1169 539q9 8 27.5 -9t11.5 -26q-40 -60 -95 -126t-135 -139.5t-165.5 -130.5
t-189.5 -95t-203 -38q-181 0 -281 100t-100 259q0 108 45.5 223t125 214.5t178.5 179t213.5 125.5t221.5 46q143 0 235.5 -66t92.5 -147q0 -44 -19.5 -83.5t-64.5 -76.5t-105.5 -71t-154.5 -72t-199 -74.5t-252 -82.5q-4 -46 -4 -66q0 -70 20 -121.5t53 -79t69 -40.5t75 -13
q287 0 600 410zM717 1022q-74 0 -147.5 -75t-124.5 -184.5t-76 -227.5q173 66 271.5 109.5t150 82t64.5 67t13 74.5q0 154 -151 154z" />
    <glyph glyph-name="Gcircumflex" unicode="&#x11c;" horiz-adv-x="1753" 
d="M1556 1581q-27 24 -106 93t-121 108l-375 -201q-7 -1 -12 7t-4.5 18.5t8.5 15.5q321 276 365 313h147q25 -54 70.5 -160t66.5 -153q6 -6 -12 -24.5t-27 -16.5zM666 -23q-267 0 -411 131.5t-144 350.5q0 119 41 241t113 232.5t177 207.5t227 167.5t268 111.5t296 41
q96 0 199.5 -16.5t132.5 -16.5q41 0 82.5 28.5t70.5 72.5q2 3 17 4t28.5 0t12.5 -4l-156 -658q-1 -5 -15.5 -7.5t-29 -1.5t-14.5 7q0 184 -39 290.5t-116.5 151t-209.5 44.5q-100 0 -199 -45t-180.5 -121t-151.5 -176.5t-118 -209.5t-75.5 -222t-27.5 -213q0 -139 78 -213
t232 -74q90 0 199.5 35.5t199.5 91.5l78 239q16 45 22.5 74.5t-3 49.5t-21 30.5t-52 15.5t-73 6t-105.5 1q-6 0 -8.5 21t-1.5 42t6 21h256h357h157q3 0 3.5 -21t-1.5 -42t-6 -21q-44 0 -63.5 -0.5t-44.5 -6.5t-35 -14.5t-25.5 -30t-25.5 -47.5t-25 -71l-178 -492
q-3 -7 -32 -7t-29 7q0 5 1 24t0.5 29.5t-3 27t-9 25.5t-19 16t-30.5 7q-24 0 -108 -28t-211.5 -56.5t-257.5 -28.5z" />
    <glyph glyph-name="gcircumflex" unicode="&#x11d;" horiz-adv-x="1331" 
d="M674 1243q-7 -1 -12 7t-4.5 18.5t8.5 15.5q41 35 114.5 99t134.5 116.5t115 97.5h148q25 -54 70.5 -160t66.5 -153q6 -6 -12 -24.5t-27 -16.5q-27 24 -106 93t-121 108zM1157 1116q10 8 127 3q137 -5 129 -25q-290 -720 -387 -1108q-24 -99 -72 -180.5t-112.5 -138
t-139 -98.5t-157 -66t-160 -35t-154.5 -11q-88 0 -157.5 13.5t-111 34t-69 49t-37.5 56t-10 56.5q0 37 23 73t55.5 64t88.5 60.5t101.5 54.5t115.5 55q16 7 24 11q-71 14 -128.5 70t-57.5 120q0 137 92 309t219.5 310.5t267.5 233.5t232 95q73 0 256 -65q12 27 22 59z
M963 715l57 149q-61 61 -136.5 100.5t-117.5 39.5q-57 0 -125.5 -72t-125 -179t-94.5 -239.5t-38 -243.5q0 -36 30.5 -56.5t53.5 -20.5q45 0 107.5 42.5t123 107t116.5 137t95.5 136t53.5 99.5zM707 -106q34 171 67 282.5t92 251.5h-12q-115 -166 -236 -275.5t-229 -150.5
q-18 -14 -60.5 -45.5t-55.5 -41.5t-41 -34t-36.5 -36.5t-22 -33t-17.5 -40t-4 -43.5q0 -81 73 -126.5t199 -45.5q122 0 186.5 81t96.5 257z" />
    <glyph glyph-name="Gbreve" unicode="&#x11e;" horiz-adv-x="1753" 
d="M1266 1610q-83 0 -137 30t-71.5 96.5t29.5 172.5q5 7 18.5 9.5t25.5 0.5t12 -8q-3 -53 8.5 -88.5t36 -53.5t54 -25t71.5 -7q87 0 157.5 36.5t137.5 137.5q2 4 16 6t27 0t12 -8q-29 -102 -94.5 -171.5t-142 -98.5t-160.5 -29zM666 -23q-267 0 -411 131.5t-144 350.5
q0 119 41 241t113 232.5t177 207.5t227 167.5t268 111.5t296 41q96 0 199.5 -16.5t132.5 -16.5q41 0 82.5 28.5t70.5 72.5q2 3 17 4t28.5 0t12.5 -4l-156 -658q-1 -5 -15.5 -7.5t-29 -1.5t-14.5 7q0 184 -39 290.5t-116.5 151t-209.5 44.5q-100 0 -199 -45t-180.5 -121
t-151.5 -176.5t-118 -209.5t-75.5 -222t-27.5 -213q0 -139 78 -213t232 -74q90 0 199.5 35.5t199.5 91.5l78 239q16 45 22.5 74.5t-3 49.5t-21 30.5t-52 15.5t-73 6t-105.5 1q-6 0 -8.5 21t-1.5 42t6 21h256h357h157q3 0 3.5 -21t-1.5 -42t-6 -21q-44 0 -63.5 -0.5
t-44.5 -6.5t-35 -14.5t-25.5 -30t-25.5 -47.5t-25 -71l-178 -492q-3 -7 -32 -7t-29 7q0 5 1 24t0.5 29.5t-3 27t-9 25.5t-19 16t-30.5 7q-24 0 -108 -28t-211.5 -56.5t-257.5 -28.5z" />
    <glyph glyph-name="gbreve" unicode="&#x11f;" horiz-adv-x="1331" 
d="M985 1272q-61 0 -107 17t-75.5 53t-28.5 92.5t33 136.5q5 7 18.5 9.5t25 0.5t11.5 -8q-3 -53 8.5 -88.5t36 -53.5t54 -25t71.5 -7q87 0 157.5 36.5t137.5 137.5q2 4 16 6t27 0t12 -8q-29 -102 -94.5 -171.5t-142 -98.5t-160.5 -29zM1157 1116q10 8 127 3q137 -5 129 -25
q-290 -720 -387 -1108q-24 -99 -72 -180.5t-112.5 -138t-139 -98.5t-157 -66t-160 -35t-154.5 -11q-88 0 -157.5 13.5t-111 34t-69 49t-37.5 56t-10 56.5q0 37 23 73t55.5 64t88.5 60.5t101.5 54.5t115.5 55q16 7 24 11q-71 14 -128.5 70t-57.5 120q0 137 92 309
t219.5 310.5t267.5 233.5t232 95q73 0 256 -65q12 27 22 59zM963 715l57 149q-61 61 -136.5 100.5t-117.5 39.5q-57 0 -125.5 -72t-125 -179t-94.5 -239.5t-38 -243.5q0 -36 30.5 -56.5t53.5 -20.5q45 0 107.5 42.5t123 107t116.5 137t95.5 136t53.5 99.5zM707 -106
q34 171 67 282.5t92 251.5h-12q-115 -166 -236 -275.5t-229 -150.5q-18 -14 -60.5 -45.5t-55.5 -41.5t-41 -34t-36.5 -36.5t-22 -33t-17.5 -40t-4 -43.5q0 -81 73 -126.5t199 -45.5q122 0 186.5 81t96.5 257z" />
    <glyph glyph-name="Gdotaccent" unicode="&#x120;" horiz-adv-x="1753" 
d="M1264 1606q-60 0 -86.5 35.5t-6.5 89.5q21 53 71.5 88.5t111.5 35.5t87.5 -35t6.5 -89q-20 -56 -70.5 -90.5t-113.5 -34.5zM666 -23q-267 0 -411 131.5t-144 350.5q0 119 41 241t113 232.5t177 207.5t227 167.5t268 111.5t296 41q96 0 199.5 -16.5t132.5 -16.5
q41 0 82.5 28.5t70.5 72.5q2 3 17 4t28.5 0t12.5 -4l-156 -658q-1 -5 -15.5 -7.5t-29 -1.5t-14.5 7q0 184 -39 290.5t-116.5 151t-209.5 44.5q-100 0 -199 -45t-180.5 -121t-151.5 -176.5t-118 -209.5t-75.5 -222t-27.5 -213q0 -139 78 -213t232 -74q90 0 199.5 35.5
t199.5 91.5l78 239q16 45 22.5 74.5t-3 49.5t-21 30.5t-52 15.5t-73 6t-105.5 1q-6 0 -8.5 21t-1.5 42t6 21h256h357h157q3 0 3.5 -21t-1.5 -42t-6 -21q-44 0 -63.5 -0.5t-44.5 -6.5t-35 -14.5t-25.5 -30t-25.5 -47.5t-25 -71l-178 -492q-3 -7 -32 -7t-29 7q0 5 1 24
t0.5 29.5t-3 27t-9 25.5t-19 16t-30.5 7q-24 0 -108 -28t-211.5 -56.5t-257.5 -28.5z" />
    <glyph glyph-name="gdotaccent" unicode="&#x121;" horiz-adv-x="1331" 
d="M983 1268q-60 0 -86 35.5t-6 89.5q21 54 71.5 89.5t110.5 35.5q61 0 87.5 -35.5t6.5 -89.5q-20 -56 -70.5 -90.5t-113.5 -34.5zM1157 1116q10 8 127 3q137 -5 129 -25q-290 -720 -387 -1108q-24 -99 -72 -180.5t-112.5 -138t-139 -98.5t-157 -66t-160 -35t-154.5 -11
q-88 0 -157.5 13.5t-111 34t-69 49t-37.5 56t-10 56.5q0 37 23 73t55.5 64t88.5 60.5t101.5 54.5t115.5 55q16 7 24 11q-71 14 -128.5 70t-57.5 120q0 137 92 309t219.5 310.5t267.5 233.5t232 95q73 0 256 -65q12 27 22 59zM963 715l57 149q-61 61 -136.5 100.5
t-117.5 39.5q-57 0 -125.5 -72t-125 -179t-94.5 -239.5t-38 -243.5q0 -36 30.5 -56.5t53.5 -20.5q45 0 107.5 42.5t123 107t116.5 137t95.5 136t53.5 99.5zM707 -106q34 171 67 282.5t92 251.5h-12q-115 -166 -236 -275.5t-229 -150.5q-18 -14 -60.5 -45.5t-55.5 -41.5
t-41 -34t-36.5 -36.5t-22 -33t-17.5 -40t-4 -43.5q0 -81 73 -126.5t199 -45.5q122 0 186.5 81t96.5 257z" />
    <glyph glyph-name="uni0122" unicode="&#x122;" horiz-adv-x="1753" 
d="M666 -23q-267 0 -411 131.5t-144 350.5q0 119 41 241t113 232.5t177 207.5t227 167.5t268 111.5t296 41q96 0 199.5 -16.5t132.5 -16.5q41 0 82.5 28.5t70.5 72.5q2 3 17 4t28.5 0t12.5 -4l-156 -658q-1 -5 -15.5 -7.5t-29 -1.5t-14.5 7q0 184 -39 290.5t-116.5 151
t-209.5 44.5q-100 0 -199 -45t-180.5 -121t-151.5 -176.5t-118 -209.5t-75.5 -222t-27.5 -213q0 -139 78 -213t232 -74q90 0 199.5 35.5t199.5 91.5l78 239q16 45 22.5 74.5t-3 49.5t-21 30.5t-52 15.5t-73 6t-105.5 1q-6 0 -8.5 21t-1.5 42t6 21h256h357h157q3 0 3.5 -21
t-1.5 -42t-6 -21q-44 0 -63.5 -0.5t-44.5 -6.5t-35 -14.5t-25.5 -30t-25.5 -47.5t-25 -71l-178 -492q-3 -7 -32 -7t-29 7q0 5 1 24t0.5 29.5t-3 27t-9 25.5t-19 16t-30.5 7q-24 0 -108 -28t-211.5 -56.5t-257.5 -28.5zM393 -668l-18 39q68 39 165 119.5t124 126.5
q-30 -10 -76 -10q-60 0 -92.5 34.5t-6.5 104.5q18 54 76 95.5t127 41.5q65 0 95.5 -40.5t3.5 -112.5q-40 -118 -153 -221.5t-245 -176.5z" />
    <glyph glyph-name="uni0123" unicode="&#x123;" horiz-adv-x="1331" 
d="M973 1266q-59 0 -86.5 37.5t-3.5 103.5q36 106 137.5 198.5t222.5 159.5l17 -34q-61 -35 -148.5 -108.5t-112.5 -115.5q24 9 68 9q55 0 85 -29t7 -94q-18 -50 -70.5 -88.5t-115.5 -38.5zM1157 1116q10 8 127 3q137 -5 129 -25q-290 -720 -387 -1108q-24 -99 -72 -180.5
t-112.5 -138t-139 -98.5t-157 -66t-160 -35t-154.5 -11q-88 0 -157.5 13.5t-111 34t-69 49t-37.5 56t-10 56.5q0 37 23 73t55.5 64t88.5 60.5t101.5 54.5t115.5 55q16 7 24 11q-71 14 -128.5 70t-57.5 120q0 137 92 309t219.5 310.5t267.5 233.5t232 95q73 0 256 -65
q12 27 22 59zM963 715l57 149q-61 61 -136.5 100.5t-117.5 39.5q-57 0 -125.5 -72t-125 -179t-94.5 -239.5t-38 -243.5q0 -36 30.5 -56.5t53.5 -20.5q45 0 107.5 42.5t123 107t116.5 137t95.5 136t53.5 99.5zM707 -106q34 171 67 282.5t92 251.5h-12q-115 -166 -236 -275.5
t-229 -150.5q-18 -14 -60.5 -45.5t-55.5 -41.5t-41 -34t-36.5 -36.5t-22 -33t-17.5 -40t-4 -43.5q0 -81 73 -126.5t199 -45.5q122 0 186.5 81t96.5 257z" />
    <glyph glyph-name="Hcircumflex" unicode="&#x124;" horiz-adv-x="1929" 
d="M1057 1581q-7 -1 -12 7t-4.5 18.5t8.5 15.5q41 35 114.5 99t134.5 116.5t115 97.5h148q25 -54 70.5 -160t66.5 -153q6 -6 -12 -24.5t-27 -16.5q-27 24 -106 93t-121 108zM2105 1434q4 0 5 -21t-1 -42t-6 -21h-55t-42 -3t-34.5 -6.5t-26 -13t-23 -20.5t-19 -31t-19.5 -42
t-20 -56l-338 -924q-12 -32 -19 -55.5t-7.5 -42t0.5 -30.5t13 -20t21.5 -12.5t34 -6.5t43 -2.5t55.5 -0.5q4 0 6 -21t1 -42t-5 -21h-174h-377h-176q-3 0 -3.5 21t1.5 42t6 21q37 0 55 0.5t42.5 3t34.5 6t26 13t23 20.5t18.5 30.5t20 42t20.5 56.5l157 434h-305h-350
l-158 -436q-17 -43 -25 -71t-3.5 -47.5t12 -29.5t34.5 -15t50 -6t72 -1q4 0 6 -21t1.5 -42t-3.5 -21h-176h-377h-176q-3 0 -3.5 21t1.5 42t6 21h55t42 3t34.5 6.5t26 13t23 20.5t19 31t19.5 42t20 56l336 924q13 32 20.5 55.5t8 42t-0.5 30.5t-12.5 20t-21 12.5t-34.5 6.5
t-43.5 2.5t-55.5 0.5q-4 0 -6 21t-1.5 42t3.5 21h176h377h174q4 0 5 -21t-1 -42t-6 -21q-37 0 -55 -0.5t-42.5 -3t-34.5 -6t-26 -13t-23 -20.5t-18.5 -30.5t-20 -42t-20.5 -56.5l-143 -394h348h307l144 396q17 43 25 71t3.5 47.5t-12 29.5t-34.5 15t-50 6t-72 1q-4 0 -6 21
t-1.5 42t3.5 21h176h377h174z" />
    <glyph glyph-name="hcircumflex" unicode="&#x125;" horiz-adv-x="1490" 
d="M1149 1710q-27 24 -106 93t-121 108l-375 -201q-7 -1 -12 7t-4.5 18.5t8.5 15.5q41 35 114.5 99t134.5 116.5t115 97.5h148q25 -54 70.5 -160t66.5 -153q6 -6 -12 -24.5t-27 -16.5zM1331 350q4 3 11 0.5t13.5 -8.5t13 -13.5t8 -14t-0.5 -9.5q-79 -103 -179.5 -197
t-156.5 -124q-42 -22 -93 -9t-88.5 52.5t-57 96.5t1.5 122q33 105 75.5 222t86.5 249q55 158 0 184q-82 -12 -245 -185t-241 -321q-59 -135 -119 -329q-5 -16 -12 -24t-24 -15q-115 -47 -291 -47q-23 0 -26.5 7t5.5 29q38 90 122.5 322.5t180.5 500.5t127 351q13 36 29 78
t23.5 63.5t16 43t13 32.5t8.5 16q-10 1 -18.5 1t-37.5 -0.5t-66 -0.5q-7 -1 -9 15.5t1.5 34t9.5 18.5q14 4 69.5 17.5t72 17.5t63 14t76 15t76 11.5t95.5 12.5q18 1 24.5 -13.5t-1.5 -31.5q-14 -29 -27.5 -62.5t-38.5 -100.5t-52.5 -142t-85.5 -232t-120 -325h12
q139 176 263 286t256 154q55 19 108 -3.5t85 -73t42.5 -118t-20.5 -139.5q-63 -150 -211 -579q-17 -52 16 -52q61 12 217 203z" />
    <glyph glyph-name="Hbar" unicode="&#x126;" horiz-adv-x="1929" 
d="M2105 1434q4 0 5 -21t-1 -42t-6 -21h-55t-42 -3t-34.5 -6.5t-26 -13t-23 -20.5t-19 -31t-19.5 -42t-20 -56l-338 -924q-12 -32 -19 -55.5t-7.5 -42t0.5 -30.5t13 -20t21.5 -12.5t34 -6.5t43 -2.5t55.5 -0.5q4 0 6 -21t1 -42t-5 -21h-174h-377h-176q-3 0 -3.5 21t1.5 42
t6 21q37 0 55 0.5t42.5 3t34.5 6t26 13t23 20.5t18.5 30.5t20 42t20.5 56.5l157 434h-305h-350l-158 -436q-17 -43 -25 -71t-3.5 -47.5t12 -29.5t34.5 -15t50 -6t72 -1q4 0 6 -21t1.5 -42t-3.5 -21h-176h-377h-176q-3 0 -3.5 21t1.5 42t6 21h55t42 3t34.5 6.5t26 13t23 20.5
t19 31t19.5 42t20 56l336 924q13 32 20.5 55.5t8 42t-0.5 30.5t-12.5 20t-21 12.5t-34.5 6.5t-43.5 2.5t-55.5 0.5q-4 0 -6 21t-1.5 42t3.5 21h176h377h174q4 0 5 -21t-1 -42t-6 -21q-37 0 -55 -0.5t-42.5 -3t-34.5 -6t-26 -13t-23 -20.5t-18.5 -30.5t-20 -42t-20.5 -56.5
l-10 -31h653l13 33q17 43 25 71t3.5 47.5t-12 29.5t-34.5 15t-50 6t-72 1q-4 0 -6 21t-1.5 42t3.5 21h176h377h174zM1071 784h307l103 283h-656l-102 -283h348z" />
    <glyph glyph-name="hbar" unicode="&#x127;" horiz-adv-x="1490" 
d="M1331 350q4 3 11 0.5t13.5 -8.5t13 -13.5t8 -14t-0.5 -9.5q-79 -103 -179.5 -197t-156.5 -124q-42 -22 -93 -9t-88.5 52.5t-57 96.5t1.5 122q33 105 75.5 222t86.5 249q55 158 0 184q-82 -12 -245 -185t-241 -321q-59 -135 -119 -329q-5 -16 -12 -24t-24 -15
q-115 -47 -291 -47q-23 0 -26.5 7t5.5 29q38 90 122.5 322.5t180.5 500.5t127 351q6 14 15 41h-105l35 96h107q31 86 38 96q-10 1 -18.5 1t-37.5 -0.5t-66 -0.5q-7 -1 -9 15.5t1.5 34t9.5 18.5q14 4 69.5 17.5t72 17.5t63 14t76 15t76 11.5t95.5 12.5q18 1 24.5 -13.5
t-1.5 -31.5q-30 -60 -82 -207h196l-34 -96h-199q-19 -54 -47.5 -131t-75 -204t-82.5 -224h12q139 176 263 286t256 154q55 19 108 -3.5t85 -73t42.5 -118t-20.5 -139.5q-63 -150 -211 -579q-17 -52 16 -52q61 12 217 203z" />
    <glyph glyph-name="Itilde" unicode="&#x128;" horiz-adv-x="931" 
d="M1341 1868q-57 -90 -167.5 -168t-200.5 -78q-47 0 -119 20l-90 25q-59 19 -125 19q-25 0 -41 -5.5t-38.5 -29.5t-45.5 -72q-7 -13 -51 -6q-29 6 -27 14q56 89 168.5 167.5t202.5 78.5q44 0 119 -21l88 -24q65 -19 125 -19q39 0 65 19t60 88q7 13 50 7q30 -6 27 -15z
M934 1434h174q4 0 5 -21t-1 -42t-6 -21q-37 0 -55 -0.5t-42.5 -3t-34.5 -6t-26 -13t-23 -20.5t-18.5 -30.5t-20 -42t-20.5 -56.5l-336 -924q-17 -43 -25 -71t-3.5 -47.5t12 -29.5t34.5 -15t50 -6t72 -1q4 0 6 -21t1.5 -42t-3.5 -21h-176h-377h-176q-3 0 -3.5 21t1.5 42t6 21
h55t42 3t34.5 6.5t26 13t23 20.5t19 31t19.5 42t20 56l336 924q13 32 20.5 55.5t8 42t-0.5 30.5t-12.5 20t-21 12.5t-34.5 6.5t-43.5 2.5t-55.5 0.5q-4 0 -6 21t-1.5 42t3.5 21h176h377z" />
    <glyph glyph-name="itilde" unicode="&#x129;" horiz-adv-x="841" 
d="M1106 1530q-56 -89 -167.5 -167.5t-201.5 -78.5q-44 0 -119 21l-90 24q-59 19 -125 19q-38 0 -64 -19t-60 -88q-7 -13 -51 -6q-29 6 -27 14q56 89 168 167.5t202 78.5q48 0 119 -20l88 -25q62 -18 125 -18q39 0 65 18.5t60 87.5q7 13 50 7q31 -6 28 -15zM154 244
q13 38 114 329t109 314q7 23 2 40.5t-19 16.5q-48 -13 -172 -143q-4 -5 -15.5 2.5t-20.5 19.5t-5 19q171 206 308 268q34 18 80.5 5.5t83.5 -49t54.5 -94t-5.5 -130.5q-32 -94 -105.5 -311t-113.5 -332q-8 -28 -2.5 -40t18.5 -12q61 12 217 203q8 8 30 -14.5t17 -30.5
q-83 -104 -182 -197t-156 -124q-33 -18 -73.5 -13t-74.5 29t-61.5 61.5t-34.5 84.5t7 98z" />
    <glyph glyph-name="Imacron" unicode="&#x12a;" horiz-adv-x="931" 
d="M1204 1698h-655l29 80h657zM934 1434h174q4 0 5 -21t-1 -42t-6 -21q-37 0 -55 -0.5t-42.5 -3t-34.5 -6t-26 -13t-23 -20.5t-18.5 -30.5t-20 -42t-20.5 -56.5l-336 -924q-17 -43 -25 -71t-3.5 -47.5t12 -29.5t34.5 -15t50 -6t72 -1q4 0 6 -21t1.5 -42t-3.5 -21h-176h-377
h-176q-3 0 -3.5 21t1.5 42t6 21h55t42 3t34.5 6.5t26 13t23 20.5t19 31t19.5 42t20 56l336 924q13 32 20.5 55.5t8 42t-0.5 30.5t-12.5 20t-21 12.5t-34.5 6.5t-43.5 2.5t-55.5 0.5q-4 0 -6 21t-1.5 42t3.5 21h176h377z" />
    <glyph glyph-name="imacron" unicode="&#x12b;" horiz-adv-x="841" 
d="M969 1360h-656l29 80h657zM154 244q13 38 114 329t109 314q7 23 2 40.5t-19 16.5q-48 -13 -172 -143q-4 -5 -15.5 2.5t-20.5 19.5t-5 19q171 206 308 268q34 18 80.5 5.5t83.5 -49t54.5 -94t-5.5 -130.5q-32 -94 -105.5 -311t-113.5 -332q-8 -28 -2.5 -40t18.5 -12
q61 12 217 203q8 8 30 -14.5t17 -30.5q-83 -104 -182 -197t-156 -124q-33 -18 -73.5 -13t-74.5 29t-61.5 61.5t-34.5 84.5t7 98z" />
    <glyph glyph-name="Ibreve" unicode="&#x12c;" horiz-adv-x="931" 
d="M846 1610q-61 0 -107 17t-75.5 53t-28.5 92.5t33 136.5q5 7 18.5 9.5t25 0.5t11.5 -8q-3 -53 8.5 -88.5t36 -53.5t54 -25t71.5 -7q87 0 157.5 36.5t137.5 137.5q2 4 16 6t27 0t12 -8q-29 -102 -94.5 -171.5t-142 -98.5t-160.5 -29zM934 1434h174q4 0 5 -21t-1 -42t-6 -21
q-37 0 -55 -0.5t-42.5 -3t-34.5 -6t-26 -13t-23 -20.5t-18.5 -30.5t-20 -42t-20.5 -56.5l-336 -924q-17 -43 -25 -71t-3.5 -47.5t12 -29.5t34.5 -15t50 -6t72 -1q4 0 6 -21t1.5 -42t-3.5 -21h-176h-377h-176q-3 0 -3.5 21t1.5 42t6 21h55t42 3t34.5 6.5t26 13t23 20.5t19 31
t19.5 42t20 56l336 924q13 32 20.5 55.5t8 42t-0.5 30.5t-12.5 20t-21 12.5t-34.5 6.5t-43.5 2.5t-55.5 0.5q-4 0 -6 21t-1.5 42t3.5 21h176h377z" />
    <glyph glyph-name="ibreve" unicode="&#x12d;" horiz-adv-x="841" 
d="M610 1272q-61 0 -107 17t-75.5 53t-28.5 92.5t33 136.5q5 7 18.5 9.5t25 0.5t11.5 -8q-3 -53 8.5 -88.5t36 -53.5t54 -25t71.5 -7q87 0 157.5 36.5t137.5 137.5q2 4 16.5 6t27.5 0t12 -8q-29 -102 -95 -171.5t-142.5 -98.5t-160.5 -29zM154 244q13 38 114 329t109 314
q7 23 2 40.5t-19 16.5q-48 -13 -172 -143q-4 -5 -15.5 2.5t-20.5 19.5t-5 19q171 206 308 268q34 18 80.5 5.5t83.5 -49t54.5 -94t-5.5 -130.5q-32 -94 -105.5 -311t-113.5 -332q-8 -28 -2.5 -40t18.5 -12q61 12 217 203q8 8 30 -14.5t17 -30.5q-83 -104 -182 -197
t-156 -124q-33 -18 -73.5 -13t-74.5 29t-61.5 61.5t-34.5 84.5t7 98z" />
    <glyph glyph-name="Iogonek" unicode="&#x12e;" horiz-adv-x="931" 
d="M1108 1434q4 0 5 -21t-1 -42t-6 -21q-37 0 -55 -0.5t-42.5 -3t-34.5 -6t-26 -13t-23 -20.5t-18.5 -30.5t-20 -42t-20.5 -56.5l-336 -924q-17 -43 -25 -71t-3.5 -47.5t12 -29.5t34.5 -15t50 -6t72 -1q4 0 6 -21t1.5 -42t-3.5 -21h-176h-133q-94 -61 -150 -109.5t-74 -97.5
q-35 -92 72 -92q65 0 149 61q12 6 24 -13.5t3 -27.5q-29 -24 -63.5 -46t-96.5 -46t-116 -24q-75 0 -105.5 37.5t-7.5 101.5q42 117 274 256h-153h-176q-3 0 -3.5 21t1.5 42t6 21h55t42 3t34.5 6.5t26 13t23 20.5t19 31t19.5 42t20 56l336 924q13 32 20.5 55.5t8 42
t-0.5 30.5t-12.5 20t-21 12.5t-34.5 6.5t-43.5 2.5t-55.5 0.5q-4 0 -6 21t-1.5 42t3.5 21h176h377h174z" />
    <glyph glyph-name="iogonek" unicode="&#x12f;" horiz-adv-x="841" 
d="M715 1556q78 0 112.5 -45.5t8.5 -117.5q-26 -74 -92.5 -119t-149.5 -45q-79 0 -113.5 46.5t-9.5 117.5q27 70 95 116.5t149 46.5zM682 350q8 8 30 -14.5t17 -30.5q-83 -104 -182 -197t-156 -124q-99 -65 -155 -113t-74 -98q-35 -92 71 -92q66 0 150 61q12 6 24 -13.5
t3 -27.5q-30 -24 -64.5 -46.5t-96.5 -46.5t-116 -24q-75 0 -105.5 38t-7.5 102q25 69 97 130t174 123q-75 24 -120.5 102t-16.5 165q13 38 114 329t109 314q7 23 2 40.5t-19 16.5q-48 -13 -172 -143q-4 -5 -15.5 2.5t-20.5 19.5t-5 19q171 206 308 268q34 18 80.5 5.5
t83.5 -49t54.5 -94t-5.5 -130.5q-32 -94 -105.5 -311t-113.5 -332q-8 -28 -2.5 -40t18.5 -12q61 12 217 203z" />
    <glyph glyph-name="Idotaccent" unicode="&#x130;" horiz-adv-x="931" 
d="M844 1606q-60 0 -86 35.5t-6 89.5q21 54 71.5 89t110.5 35q61 0 87.5 -35t6.5 -89q-20 -56 -70.5 -90.5t-113.5 -34.5zM934 1434h174q4 0 5 -21t-1 -42t-6 -21q-37 0 -55 -0.5t-42.5 -3t-34.5 -6t-26 -13t-23 -20.5t-18.5 -30.5t-20 -42t-20.5 -56.5l-336 -924
q-17 -43 -25 -71t-3.5 -47.5t12 -29.5t34.5 -15t50 -6t72 -1q4 0 6 -21t1.5 -42t-3.5 -21h-176h-377h-176q-3 0 -3.5 21t1.5 42t6 21h55t42 3t34.5 6.5t26 13t23 20.5t19 31t19.5 42t20 56l336 924q13 32 20.5 55.5t8 42t-0.5 30.5t-12.5 20t-21 12.5t-34.5 6.5t-43.5 2.5
t-55.5 0.5q-4 0 -6 21t-1.5 42t3.5 21h176h377z" />
    <glyph glyph-name="dotlessi" unicode="&#x131;" horiz-adv-x="841" 
d="M154 244q13 38 114 329t109 314q7 23 2 40.5t-19 16.5q-48 -13 -172 -143q-4 -5 -15.5 2.5t-20.5 19.5t-5 19q171 206 308 268q34 18 80.5 5.5t83.5 -49t54.5 -94t-5.5 -130.5q-32 -94 -105.5 -311t-113.5 -332q-8 -28 -2.5 -40t18.5 -12q61 12 217 203q8 8 30 -14.5
t17 -30.5q-83 -104 -182 -197t-156 -124q-33 -18 -73.5 -13t-74.5 29t-61.5 61.5t-34.5 84.5t7 98z" />
    <glyph glyph-name="IJ" unicode="&#x132;" horiz-adv-x="1851" 
d="M934 1434h174q4 0 5 -21t-1 -42t-6 -21q-37 0 -55 -0.5t-42.5 -3t-34.5 -6t-26 -13t-23 -20.5t-18.5 -30.5t-20 -42t-20.5 -56.5l-336 -924q-17 -43 -25 -71t-3.5 -47.5t12 -29.5t34.5 -15t50 -6t72 -1q4 0 6 -21t1.5 -42t-3.5 -21h-176h-377h-176q-3 0 -3.5 21t1.5 42
t6 21h55t42 3t34.5 6.5t26 13t23 20.5t19 31t19.5 42t20 56l336 924q13 32 20.5 55.5t8 42t-0.5 30.5t-12.5 20t-21 12.5t-34.5 6.5t-43.5 2.5t-55.5 0.5q-4 0 -6 21t-1.5 42t3.5 21h176h377zM700 -272q-7 -2 -11 11q-11 31 -3 65q3 9 6 12q16 8 47 22.5t49 23.5t48.5 25
t50 29t47.5 33.5t47.5 40.5t43.5 47.5t42.5 57.5t37.5 67.5t34 79.5l329 917q18 47 26.5 77.5t0.5 52t-17.5 32t-48 16t-67.5 6t-98 0.5q-6 0 -8.5 22.5t-1.5 45.5t6 23h239h389h213q4 0 5 -23t-1 -45.5t-6 -22.5h-55t-44.5 -1.5t-38.5 -3.5t-30.5 -7t-26.5 -11t-20.5 -17
t-19.5 -23t-16.5 -31t-18 -40t-17.5 -50l-286 -774q-36 -100 -85.5 -184t-102 -144.5t-119.5 -110.5t-126 -82.5t-134 -60.5t-130.5 -43t-128.5 -32z" />
    <glyph glyph-name="ij" unicode="&#x133;" horiz-adv-x="1560" 
d="M594 1229q-79 0 -113.5 46.5t-9.5 117.5q27 70 95 116.5t149 46.5q78 0 112.5 -45.5t8.5 -117.5q-26 -74 -92.5 -119t-149.5 -45zM1477 1229q-79 0 -113.5 46.5t-9.5 117.5q27 70 94.5 116.5t148.5 46.5q78 0 112.5 -45.5t8.5 -117.5q-26 -74 -92 -119t-149 -45zM154 244
q13 38 114 329t109 314q7 23 2 40.5t-19 16.5q-48 -13 -172 -143q-4 -5 -15.5 2.5t-20.5 19.5t-5 19q171 206 308 268q34 18 80.5 5.5t83.5 -49t54.5 -94t-5.5 -130.5q-32 -94 -105.5 -311t-113.5 -332q-8 -28 -2.5 -40t18.5 -12q61 12 217 203q8 8 30 -14.5t17 -30.5
q-83 -104 -182 -197t-156 -124q-33 -18 -73.5 -13t-74.5 29t-61.5 61.5t-34.5 84.5t7 98zM1305 1110q34 18 81 5.5t84.5 -49.5t55 -94.5t-7.5 -129.5q-84 -235 -297 -817q-82 -230 -259.5 -377.5t-375.5 -147.5q-24 0 -77 8t-123.5 25.5t-121.5 53t-51 81.5q0 34 20 71
t47 63t53 43.5t38 17.5q7 0 15.5 -8t21 -31t20 -37.5t25.5 -52.5q86 -140 202 -140q107 0 193 238q53 150 146.5 410.5t157.5 439.5t71 201q10 28 6 44.5t-19 16.5q-51 -16 -172 -143q-5 -5 -16.5 2.5t-20 19.5t-4.5 19q169 204 308 268z" />
    <glyph glyph-name="Jcircumflex" unicode="&#x134;" horiz-adv-x="919" 
d="M1163 1581q-27 24 -106 93t-121 108l-375 -201q-7 -1 -12 7t-4.5 18.5t8.5 15.5q321 276 365 313h147q25 -54 70.5 -160t66.5 -153q6 -6 -12 -24.5t-27 -16.5zM-231 -272q-7 -2 -11 11q-11 31 -4 65q3 9 6 12q16 8 47 22.5t49 23.5t48.5 25t50 29t47.5 33.5t47.5 40.5
t43.5 47.5t42.5 57.5t37.5 67.5t34 79.5l330 917q18 47 26.5 77.5t0 52t-18 32t-47.5 16t-67.5 6t-98.5 0.5q-6 0 -8.5 22.5t-1.5 45.5t6 23h239h389h213q4 0 5 -23t-1 -45.5t-6 -22.5h-55t-44.5 -1.5t-38.5 -3.5t-30 -7t-26.5 -11t-20.5 -17t-19.5 -23t-16.5 -31t-17.5 -40
t-17.5 -50l-287 -774q-36 -100 -85.5 -184t-102 -144.5t-119.5 -110.5t-125.5 -82.5t-133.5 -60.5t-130.5 -43t-128.5 -32z" />
    <glyph glyph-name="jcircumflex" unicode="&#x135;" horiz-adv-x="718" 
d="M942 1243q-27 24 -106 93t-121 108l-375 -201q-7 -1 -12 7t-4.5 18.5t8.5 15.5q41 35 114.5 99t134.5 116.5t115 97.5h148q25 -54 70.5 -160t66.5 -153q6 -6 -12 -24.5t-27 -16.5zM463 1110q34 18 81 5.5t84.5 -49.5t55 -94.5t-7.5 -129.5q-84 -236 -297 -817
q-82 -230 -259.5 -377.5t-375.5 -147.5q-24 0 -77 8t-123.5 25.5t-121.5 53t-51 81.5q0 34 20 71t47 63t53 43.5t38 17.5q7 0 15.5 -8t21 -31t20 -37.5t25.5 -52.5q86 -140 203 -140q106 0 192 238q53 150 146.5 410.5t157.5 439.5t71 201q10 28 6.5 44.5t-18.5 16.5
q-51 -16 -172 -143q-5 -5 -16.5 2.5t-20 19.5t-4.5 19q170 204 307 268z" />
    <glyph glyph-name="uni0136" unicode="&#x136;" horiz-adv-x="1736" 
d="M1903 1434q3 0 3 -23t-1.5 -45.5t-3.5 -22.5q-128 0 -217.5 -25.5t-213.5 -113.5l-608 -440q127 53 225 53q323 0 314 -360l2 -17q-2 -81 0.5 -136.5t11 -96.5t20.5 -64.5t35 -37.5t48 -18t65 -5q3 0 5 -20.5t2 -41t-3 -20.5h-190h-199q-45 7 -74 31.5t-42 65t-16.5 85.5
t-0.5 105l2 119q2 66 -5.5 111.5t-30 84.5t-67.5 58.5t-114 19.5q-85 0 -186 -64l-129 -352q-10 -27 -17 -47.5t-9.5 -37.5t-3.5 -29.5t4 -22.5t9.5 -16.5t17.5 -11t23 -6.5t31.5 -3.5t36.5 -1.5h45q4 0 6 -22t1.5 -44t-3.5 -22h-174h-379h-176q-3 0 -3.5 21t1.5 42t6 21h55
t42 3t34.5 6.5t26 13t23 20.5t19 31t19.5 42t20 56l334 924q13 32 20.5 55.5t8 42t-0.5 30.5t-12.5 20t-21 12.5t-34.5 6.5t-43.5 2.5t-55.5 0.5q-4 0 -6 21t-1.5 42t3.5 21h176h377h188q4 0 5 -22t-1 -44t-6 -22q-40 0 -59.5 -0.5t-46 -3t-38 -6.5t-28.5 -14t-24.5 -21.5
t-19.5 -32.5t-21 -44t-21 -59l-149 -413l602 436q37 27 61 45.5t41 35.5t23.5 27t3 18.5t-15 13t-36.5 7.5t-55 3.5t-77 0.5q-4 0 -7 23.5t-3 47.5t5 24h306h145h197zM625 -109q65 0 95 -40.5t3 -112.5q-40 -118 -152.5 -221t-244.5 -176l-19 38q68 39 165 119.5t124 126.5
q-30 -10 -76 -10q-60 0 -92 34t-6 105q18 54 76 95.5t127 41.5z" />
    <glyph glyph-name="uni0137" unicode="&#x137;" horiz-adv-x="1396" 
d="M1171 807q-9 0 -14 3t-7 11.5t-2 14.5t0.5 20t0.5 21q0 71 -36.5 107t-100.5 36q-70 0 -201 -141q135 -443 256 -697q10 -25 15.5 -35.5t17 -20t28.5 -9.5q44 36 75.5 68t65 73t46.5 55q8 7 18 0t17.5 -21t3.5 -20q-30 -44 -85.5 -108t-131 -125.5t-121.5 -61.5
q-130 0 -191 152q-84 193 -188 530q-99 -137 -201 -307q-18 -49 -50 -148.5t-50 -148.5q-8 -22 -33 -30q-90 -37 -299 -41q-10 -2 -13 0.5t1 19.5q46 117 138 375t186.5 531t97.5 280q72 200 92 235q-1 0 -34 -1t-89 -1q-7 -1 -7.5 15t3.5 33t10 18q270 69 457 90
q36 3 20 -35q-86 -194 -301 -811q-15 -42 -22 -63h14q87 121 154.5 199t141.5 138.5t150 87.5t164 27q81 0 138.5 -13t86 -35t40.5 -44.5t12 -48.5q0 -61 -90 -117.5t-183 -56.5zM487 -109q65 0 95.5 -40.5t3.5 -112.5q-40 -118 -153 -221t-245 -176l-18 38q68 39 165 119.5
t124 126.5q-30 -10 -76 -10q-60 0 -92 34t-6 105q18 54 75.5 95.5t126.5 41.5z" />
    <glyph glyph-name="kgreenlandic" unicode="&#x138;" horiz-adv-x="1394" 
d="M1167 807q-8 0 -13 3.5t-6.5 11t-1.5 14t0.5 20.5t0.5 21q0 71 -36.5 107t-100.5 36q-69 0 -201 -139q134 -443 256 -699q10 -25 15.5 -35.5t17 -20t28.5 -9.5q44 36 75 68.5t63 72t47 55.5q9 7 19.5 0t18 -21t3.5 -20q-22 -31 -60.5 -76.5t-88.5 -96.5t-102 -86.5
t-87 -35.5q-134 0 -191 152q-77 177 -190 530q-101 -137 -201 -307q-11 -32 -44.5 -136.5t-53.5 -160.5q-8 -22 -33 -30q-90 -37 -299 -41q-6 -1 -9.5 -0.5t-6.5 5t2 15.5q78 198 266 727q19 54 38.5 111.5t28.5 83t15 41.5q-1 0 -34 -1t-89 -1q-7 -1 -7.5 15t3.5 32.5
t10 17.5q270 69 457 90q21 0 25 -9t-5 -26q-14 -49 -78.5 -212t-78.5 -203h14q88 122 155.5 199.5t141.5 138t150 87.5t165 27q81 0 138 -13t85 -35t40 -44.5t12 -48.5q0 -61 -90 -117.5t-183 -56.5z" />
    <glyph glyph-name="Lacute" unicode="&#x139;" horiz-adv-x="1552" 
d="M643 1638q71 39 130.5 84.5t93.5 79.5t64 63t58 44.5t60 15.5q84 0 57 -80q-51 -131 -455 -258q-9 -2 -15.5 9t-5 24.5t12.5 17.5zM477 94h160h80q59 1 105.5 -0.5t90.5 5.5t80.5 17t77 34t79.5 56.5t88 85t103 118.5t123 157q7 11 42 4q20 -5 18 -12l-318 -653
q-5 -8 -29.5 -8.5t-29.5 8.5q-2 20 -10.5 35t-18 25t-28.5 17t-32.5 10t-39.5 5t-38.5 2h-41.5h-16h-793h-174q-4 0 -5 21t1 42t6 21q37 0 55 0.5t42.5 3t35 6t26.5 13t23 20.5t18.5 30.5t20 42t19.5 56.5l335 922q13 32 20 55.5t7.5 42t-0.5 30.5t-13.5 20t-22.5 12.5
t-35.5 6.5t-44.5 2.5t-58 0.5q-4 0 -6 21t-1.5 42t3.5 21h182l385 2h258q5 0 6 -22t-1.5 -44t-8.5 -22q-73 -1 -104.5 -1.5t-73 -7t-56.5 -17t-37 -33.5t-34 -52.5t-29 -79.5z" />
    <glyph glyph-name="lacute" unicode="&#x13a;" horiz-adv-x="786" 
d="M594 1747q86 48 156 105t103 94t70 62.5t76 25.5q40 0 55.5 -20.5t2.5 -59.5q-51 -131 -455 -258q-9 -2 -15.5 9t-5 24.5t12.5 17.5zM393 201q-17 -54 17 -54q62 13 217 203q10 8 31 -14.5t16 -30.5q-84 -106 -181.5 -197.5t-156.5 -123.5q-41 -22 -92.5 -9t-89.5 52
t-58 95.5t2 121.5q52 153 166.5 472t175.5 474q15 40 30 81t22.5 62t15 41t13 31t11.5 18q-10 1 -18.5 1t-37.5 -0.5t-66 -0.5q-7 -1 -9 15.5t1.5 34t9.5 18.5q146 36 240 55t220 33q34 3 21 -35q-23 -45 -103 -257t-161 -434.5t-156.5 -431.5t-79.5 -220z" />
    <glyph glyph-name="uni013B" unicode="&#x13b;" horiz-adv-x="1552" 
d="M477 94h160h80q59 1 105.5 -0.5t90.5 5.5t80.5 17t77 34t79.5 56.5t88 85t103 118.5t123 157q7 11 42 4q20 -5 18 -12l-318 -653q-5 -8 -29.5 -8.5t-29.5 8.5q-2 20 -10.5 35t-18 25t-28.5 17t-32.5 10t-39.5 5t-38.5 2h-41.5h-16h-793h-174q-4 0 -5 21t1 42t6 21
q37 0 55 0.5t42.5 3t35 6t26.5 13t23 20.5t18.5 30.5t20 42t19.5 56.5l335 922q13 32 20 55.5t7.5 42t-0.5 30.5t-13.5 20t-22.5 12.5t-35.5 6.5t-44.5 2.5t-58 0.5q-4 0 -6 21t-1.5 42t3.5 21h182l385 2h258q5 0 6 -22t-1.5 -44t-8.5 -22q-73 -1 -104.5 -1.5t-73 -7
t-56.5 -17t-37 -33.5t-34 -52.5t-29 -79.5zM258 -659l-18 38q67 39 164 119.5t124 126.5q-30 -10 -75 -10q-60 0 -92.5 34.5t-6.5 104.5q18 54 76 95.5t127 41.5q65 0 95 -40.5t3 -112.5q-40 -118 -152.5 -221t-244.5 -176z" />
    <glyph glyph-name="uni013C" unicode="&#x13c;" horiz-adv-x="786" 
d="M393 201q-17 -54 17 -54q62 13 217 203q10 8 31 -14.5t16 -30.5q-84 -106 -181.5 -197.5t-156.5 -123.5q-41 -22 -92.5 -9t-89.5 52t-58 95.5t2 121.5q52 153 166.5 472t175.5 474q15 40 30 81t22.5 62t15 41t13 31t11.5 18q-10 1 -18.5 1t-37.5 -0.5t-66 -0.5
q-7 -1 -9 15.5t1.5 34t9.5 18.5q146 36 240 55t220 33q34 3 21 -35q-23 -45 -103 -257t-161 -434.5t-156.5 -431.5t-79.5 -220zM-145 -659l-19 38q68 39 165 119.5t124 126.5q-30 -10 -76 -10q-60 0 -92 34t-8 105q20 54 78 95.5t127 41.5q65 0 95 -40.5t3 -112.5
q-40 -118 -152.5 -221t-244.5 -176z" />
    <glyph glyph-name="Lcaron" unicode="&#x13d;" horiz-adv-x="1552" 
d="M477 94h160h80q59 1 105.5 -0.5t90.5 5.5t80.5 17t77 34t79.5 56.5t88 85t103 118.5t123 157q7 11 42 4q20 -5 18 -12l-318 -653q-5 -8 -29.5 -8.5t-29.5 8.5q-2 20 -10.5 35t-18 25t-28.5 17t-32.5 10t-39.5 5t-38.5 2h-41.5h-16h-793h-174q-4 0 -5 21t1 42t6 21
q37 0 55 0.5t42.5 3t35 6t26.5 13t23 20.5t18.5 30.5t20 42t19.5 56.5l335 922q13 32 20 55.5t7.5 42t-0.5 30.5t-13.5 20t-22.5 12.5t-35.5 6.5t-44.5 2.5t-58 0.5q-4 0 -6 21t-1.5 42t3.5 21h182l385 2h258q5 0 6 -22t-1.5 -44t-8.5 -22q-73 -1 -104.5 -1.5t-73 -7
t-56.5 -17t-37 -33.5t-34 -52.5t-29 -79.5zM1468 1061q-5 -11 -41 -9q-21 2 -20 9q33 91 49.5 182.5t30.5 132.5q9 26 33 42t53 16t41 -15.5t4 -42.5q-15 -39 -66.5 -131t-83.5 -184z" />
    <glyph glyph-name="lcaron" unicode="&#x13e;" horiz-adv-x="786" 
d="M971 1249q-6 -11 -42 -9q-21 2 -20 9q33 91 49.5 183t30.5 133q9 26 32.5 41.5t53.5 15.5q29 0 41 -15.5t4 -41.5q-15 -39 -66 -131.5t-83 -184.5zM393 201q-17 -54 17 -54q62 13 217 203q10 8 31 -14.5t16 -30.5q-84 -106 -181.5 -197.5t-156.5 -123.5q-41 -22 -92.5 -9
t-89.5 52t-58 95.5t2 121.5q52 153 166.5 472t175.5 474q15 40 30 81t22.5 62t15 41t13 31t11.5 18q-10 1 -18.5 1t-37.5 -0.5t-66 -0.5q-7 -1 -9 15.5t1.5 34t9.5 18.5q146 36 240 55t220 33q34 3 21 -35q-23 -45 -103 -257t-161 -434.5t-156.5 -431.5t-79.5 -220z" />
    <glyph glyph-name="Ldot" unicode="&#x13f;" horiz-adv-x="1552" 
d="M477 94h160h80q59 1 105.5 -0.5t90.5 5.5t80.5 17t77 34t79.5 56.5t88 85t103 118.5t123 157q7 11 42 4q20 -5 18 -12l-318 -653q-5 -8 -29.5 -8.5t-29.5 8.5q-2 20 -10.5 35t-18 25t-28.5 17t-32.5 10t-39.5 5t-38.5 2h-41.5h-16h-793h-174q-4 0 -5 21t1 42t6 21
q37 0 55 0.5t42.5 3t35 6t26.5 13t23 20.5t18.5 30.5t20 42t19.5 56.5l335 922q13 32 20 55.5t7.5 42t-0.5 30.5t-13.5 20t-22.5 12.5t-35.5 6.5t-44.5 2.5t-58 0.5q-4 0 -6 21t-1.5 42t3.5 21h182l385 2h258q5 0 6 -22t-1.5 -44t-8.5 -22q-73 -1 -104.5 -1.5t-73 -7
t-56.5 -17t-37 -33.5t-34 -52.5t-29 -79.5zM971 592q-60 0 -86 34.5t-6 88.5q21 55 71.5 90t112.5 35q60 0 86 -35t6 -90q-20 -56 -70.5 -89.5t-113.5 -33.5z" />
    <glyph glyph-name="ldot" unicode="&#x140;" horiz-adv-x="786" 
d="M393 201q-17 -54 17 -54q62 13 217 203q10 8 31 -14.5t16 -30.5q-84 -106 -181.5 -197.5t-156.5 -123.5q-41 -22 -92.5 -9t-89.5 52t-58 95.5t2 121.5q52 153 166.5 472t175.5 474q15 40 30 81t22.5 62t15 41t13 31t11.5 18q-10 1 -18.5 1t-37.5 -0.5t-66 -0.5
q-7 -1 -9 15.5t1.5 34t9.5 18.5q146 36 240 55t220 33q34 3 21 -35q-23 -45 -103 -257t-161 -434.5t-156.5 -431.5t-79.5 -220zM911 698q-60 0 -86 34.5t-6 88.5q21 55 72 90t113 35q60 0 86 -35t6 -90t-71 -89t-114 -34z" />
    <glyph glyph-name="Lslash" unicode="&#x141;" horiz-adv-x="1552" 
d="M1464 567q7 11 42 4q20 -5 18 -12l-318 -653q-5 -8 -29.5 -8.5t-29.5 8.5q-2 20 -10.5 35t-18 25t-28.5 17t-32.5 10t-39.5 5t-38.5 2h-41.5h-16h-793h-174q-4 0 -5 21t1 42t6 21q37 0 55 0.5t42.5 3t35 6t26.5 13t23 20.5t18.5 30.5t20 42t19.5 56.5l131 358l-121 -41
l-12 70l163 55l174 480q13 32 20 55.5t7.5 42t-0.5 30.5t-13.5 20t-22.5 12.5t-35.5 6.5t-44.5 2.5t-58 0.5q-4 0 -6 21t-1.5 42t3.5 21h182l385 2h258q5 0 6 -22t-1.5 -44t-8.5 -22q-73 -1 -104.5 -1.5t-73 -7t-56.5 -17t-37 -33.5t-34 -52.5t-29 -79.5l-118 -324l120 41
l11 -67l-162 -55l-242 -656h160h80q59 1 105.5 -0.5t90.5 5.5t80.5 17t77 34t79.5 56.5t88 85t103 118.5t123 157z" />
    <glyph glyph-name="lslash" unicode="&#x142;" horiz-adv-x="786" 
d="M872 1579q34 3 21 -35q-34 -67 -223 -581l106 51l19 -68l-158 -76q-51 -138 -109.5 -298.5t-94 -259t-40.5 -111.5q-17 -54 17 -54q62 13 217 203q10 8 31 -14.5t16 -30.5q-84 -106 -181.5 -197.5t-156.5 -123.5q-41 -22 -92.5 -9t-89.5 52t-58 95.5t2 121.5
q86 249 158 446l-106 -51l-21 68l160 75q91 257 151 408q15 40 30 81t22.5 62t15 41t13 31t11.5 18q-10 1 -18.5 1t-37.5 -0.5t-66 -0.5q-7 -1 -9 15.5t1.5 34t9.5 18.5q146 36 240 55t220 33z" />
    <glyph glyph-name="Nacute" unicode="&#x143;" horiz-adv-x="1867" 
d="M1145 1638q86 48 156 105t103 94t70 62.5t76 25.5q40 0 55.5 -20.5t2.5 -59.5q-51 -131 -455 -258q-9 -2 -15.5 9t-5 24.5t12.5 17.5zM1317 0l-647 1212l-322 -880q-28 -79 -33.5 -125t16.5 -73.5t67 -36.5t128 -9q4 0 6.5 -22t2 -44t-4.5 -22h-278h-98h-226
q-4 0 -4.5 21t2 42t6.5 21q135 0 201.5 44.5t118.5 184.5l309 865q10 26 16.5 46t8.5 37t3 29t-6 22t-12.5 16t-21.5 10.5t-28 6.5t-38 3.5t-44 1.5h-54q-4 0 -6 21t-1 42t5 21h207h407l494 -957l229 637q27 76 30.5 120.5t-21.5 71t-73.5 35.5t-137.5 9q-5 0 -8 21t-3 42
t4 21h299h99h196q3 0 3 -21t-2 -42t-5 -21q-115 0 -176 -45t-113 -183l-405 -1118q-5 -14 -42 -15.5t-48 11.5z" />
    <glyph glyph-name="nacute" unicode="&#x144;" horiz-adv-x="1538" 
d="M745 1300q71 39 130.5 84.5t93.5 79.5t64 63t58 44.5t60 15.5q84 0 57 -80q-51 -131 -454 -258q-9 -2 -15.5 9t-5.5 24.5t12 17.5zM1378 350q4 3 11 0.5t13.5 -8.5t13 -13.5t8 -14t-0.5 -9.5q-82 -105 -179.5 -196.5t-156.5 -124.5q-42 -22 -93.5 -9t-89 52.5t-57 96.5
t2.5 122q70 214 162 471q59 165 0 186q-62 -10 -154.5 -89t-175 -184t-131.5 -198q-68 -122 -150 -375q-7 -21 -30 -30q-112 -47 -291 -47q-23 0 -27.5 6t4.5 28q144 361 318 871q9 26 5 43.5t-18 15.5q-47 -11 -176 -143q-4 -5 -15 2.5t-19.5 19.5t-4.5 19q170 205 306 268
q35 18 82 6t84 -48.5t55 -94.5t-4 -131l-60 -170h13q140 177 263 286.5t255 153.5q45 15 89 3t75 -44.5t52.5 -79t20.5 -100.5t-22 -109q-90 -222 -211 -583q-16 -52 16 -52q61 12 217 203z" />
    <glyph glyph-name="uni0145" unicode="&#x145;" horiz-adv-x="1867" 
d="M1317 0l-647 1212l-322 -880q-28 -79 -33.5 -125t16.5 -73.5t67 -36.5t128 -9q4 0 6.5 -22t2 -44t-4.5 -22h-278h-98h-226q-4 0 -4.5 21t2 42t6.5 21q135 0 201.5 44.5t118.5 184.5l309 865q10 26 16.5 46t8.5 37t3 29t-6 22t-12.5 16t-21.5 10.5t-28 6.5t-38 3.5
t-44 1.5h-54q-4 0 -6 21t-1 42t5 21h207h407l494 -957l229 637q27 76 30.5 120.5t-21.5 71t-73.5 35.5t-137.5 9q-5 0 -8 21t-3 42t4 21h299h99h196q3 0 3 -21t-2 -42t-5 -21q-115 0 -176 -45t-113 -183l-405 -1118q-5 -14 -42 -15.5t-48 11.5zM410 -659l-19 38
q68 39 165 119.5t124 126.5q-30 -10 -76 -10q-60 0 -92 34t-6 105q18 54 76 95.5t127 41.5q65 0 95 -40.5t3 -112.5q-40 -118 -152.5 -221t-244.5 -176z" />
    <glyph glyph-name="uni0146" unicode="&#x146;" horiz-adv-x="1538" 
d="M1378 350q4 3 11 0.5t13.5 -8.5t13 -13.5t8 -14t-0.5 -9.5q-82 -105 -179.5 -196.5t-156.5 -124.5q-42 -22 -93.5 -9t-89 52.5t-57 96.5t2.5 122q70 214 162 471q59 165 0 186q-62 -10 -154.5 -89t-175 -184t-131.5 -198q-68 -122 -150 -375q-7 -21 -30 -30
q-112 -47 -291 -47q-23 0 -27.5 6t4.5 28q144 361 318 871q9 26 5 43.5t-18 15.5q-47 -11 -176 -143q-4 -5 -15 2.5t-19.5 19.5t-4.5 19q170 205 306 268q35 18 82 6t84 -48.5t55 -94.5t-4 -131l-60 -170h13q140 177 263 286.5t255 153.5q45 15 89 3t75 -44.5t52.5 -79
t20.5 -100.5t-22 -109q-90 -222 -211 -583q-16 -52 16 -52q61 12 217 203zM225 -659l-18 38q68 39 165 119.5t124 126.5q-30 -10 -76 -10q-60 0 -92 34t-6 105q18 54 75.5 95.5t126.5 41.5q65 0 95.5 -40.5t3.5 -112.5q-40 -118 -153 -221t-245 -176z" />
    <glyph glyph-name="Ncaron" unicode="&#x147;" horiz-adv-x="1867" 
d="M1784 1958q7 1 12 -7.5t4.5 -19t-8.5 -14.5q-321 -276 -365 -313h-147q-25 54 -70.5 160t-66.5 153q-4 7 13 25t26 16l229 -201q62 34 187 100.5t186 100.5zM1317 0l-647 1212l-322 -880q-28 -79 -33.5 -125t16.5 -73.5t67 -36.5t128 -9q4 0 6.5 -22t2 -44t-4.5 -22h-278
h-98h-226q-4 0 -4.5 21t2 42t6.5 21q135 0 201.5 44.5t118.5 184.5l309 865q10 26 16.5 46t8.5 37t3 29t-6 22t-12.5 16t-21.5 10.5t-28 6.5t-38 3.5t-44 1.5h-54q-4 0 -6 21t-1 42t5 21h207h407l494 -957l229 637q27 76 30.5 120.5t-21.5 71t-73.5 35.5t-137.5 9
q-5 0 -8 21t-3 42t4 21h299h99h196q3 0 3 -21t-2 -42t-5 -21q-115 0 -176 -45t-113 -183l-405 -1118q-5 -14 -42 -15.5t-48 11.5z" />
    <glyph glyph-name="ncaron" unicode="&#x148;" horiz-adv-x="1538" 
d="M1384 1620q7 1 12 -7.5t5 -19t-8 -14.5q-322 -276 -365 -313h-147q-25 55 -71 161t-67 152q-4 7 13 25t26 16l230 -201q62 34 186 100.5t186 100.5zM1378 350q4 3 11 0.5t13.5 -8.5t13 -13.5t8 -14t-0.5 -9.5q-82 -105 -179.5 -196.5t-156.5 -124.5q-42 -22 -93.5 -9
t-89 52.5t-57 96.5t2.5 122q70 214 162 471q59 165 0 186q-62 -10 -154.5 -89t-175 -184t-131.5 -198q-68 -122 -150 -375q-7 -21 -30 -30q-112 -47 -291 -47q-23 0 -27.5 6t4.5 28q144 361 318 871q9 26 5 43.5t-18 15.5q-47 -11 -176 -143q-4 -5 -15 2.5t-19.5 19.5
t-4.5 19q170 205 306 268q35 18 82 6t84 -48.5t55 -94.5t-4 -131l-60 -170h13q140 177 263 286.5t255 153.5q45 15 89 3t75 -44.5t52.5 -79t20.5 -100.5t-22 -109q-90 -222 -211 -583q-16 -52 16 -52q61 12 217 203z" />
    <glyph glyph-name="Eng" unicode="&#x14a;" horiz-adv-x="1867" 
d="M2105 1434q3 0 3 -21t-2 -42t-5 -21q-115 0 -176 -45t-113 -183l-352 -975l-49 -135q-33 -89 -80 -164.5t-98 -130t-116.5 -101t-123.5 -77t-132 -57.5t-129.5 -42.5t-127.5 -31.5q-7 -2 -11 11q-11 31 -3 65q2 10 6 12q17 8 58.5 27.5t63 30.5t60.5 33.5t62.5 41.5
t56.5 50t55.5 64.5t46 79.5t41.5 99l121 371l-491 919l-322 -880q-28 -79 -33.5 -125t16.5 -73.5t67 -36.5t128 -9q4 0 6.5 -22t2 -44t-4.5 -22h-278h-98h-226q-4 0 -4.5 21t2 42t6.5 21q135 0 201.5 44.5t118.5 184.5l309 865q10 26 16.5 46t8.5 37t3 29t-6 22t-12.5 16
t-21.5 10.5t-28 6.5t-38 3.5t-44 1.5h-54q-4 0 -6 21t-1 42t5 21h207h407l494 -957l229 637q27 76 30.5 120.5t-21.5 71t-73.5 35.5t-137.5 9q-5 0 -8 21t-3 42t4 21h299h99h196z" />
    <glyph glyph-name="eng" unicode="&#x14b;" horiz-adv-x="1544" 
d="M1141 1112q45 15 89 3t75 -44.5t52.5 -79t20.5 -100.5t-22 -109q-59 -144 -277 -757q-82 -230 -259.5 -377.5t-375.5 -147.5q-24 0 -77 8t-123 25.5t-121 53t-51 81.5q0 34 20 71t46 63t51.5 43.5t37.5 17.5q21 0 77 -115q5 -9 7 -14q82 -140 203 -140q107 0 193 238
q46 139 172 501.5t133 383.5q59 165 0 186q-62 -10 -154.5 -89t-175 -184t-131.5 -198q-68 -122 -150 -375q-7 -21 -30 -30q-112 -47 -291 -47q-23 0 -27.5 6t4.5 28q144 361 318 871q9 26 5 43.5t-18 15.5q-47 -11 -176 -143q-4 -5 -15 2.5t-19.5 19.5t-4.5 19
q170 205 306 268q35 18 82 6t84 -48.5t55 -94.5t-4 -131l-60 -170h13q140 177 263 286.5t255 153.5z" />
    <glyph glyph-name="Omacron" unicode="&#x14c;" horiz-adv-x="1818" 
d="M1653 1698h-656l29 80h657zM700 -27q-277 0 -434 130.5t-157 351.5q0 137 56 281t161 272.5t242 230t313 161.5t360 60q275 0 432.5 -131t157.5 -352q0 -138 -56 -282.5t-161 -272.5t-242 -229t-312.5 -160.5t-359.5 -59.5zM737 82q109 0 212.5 47.5t184.5 126.5
t149.5 180.5t114 210t70.5 214.5t25 194q0 143 -74 220t-217 77q-94 0 -184 -35.5t-164 -96.5t-139.5 -141t-114 -170.5t-83.5 -184t-53 -182.5t-18 -165q0 -142 74.5 -218.5t216.5 -76.5z" />
    <glyph glyph-name="omacron" unicode="&#x14d;" horiz-adv-x="1228" 
d="M1249 1360h-655l29 80h657zM420 -27q-183 0 -286 90.5t-103 245.5q0 85 30 179t82.5 184t128.5 172t164 143.5t193.5 98t212.5 36.5q184 0 287.5 -90.5t103.5 -247.5q0 -102 -41.5 -216t-118.5 -218.5t-176 -189.5t-224.5 -136t-252.5 -51zM469 47q82 2 169 93t151 220
t105.5 270.5t41.5 243.5q0 178 -145 175q-80 -3 -165.5 -93t-149 -217.5t-105 -270t-41.5 -249.5q0 -175 139 -172z" />
    <glyph glyph-name="Obreve" unicode="&#x14e;" horiz-adv-x="1818" 
d="M1294 1610q-61 0 -107 17t-75.5 53t-28.5 92.5t33 136.5q5 7 18.5 9.5t25 0.5t11.5 -8q-3 -53 8.5 -88.5t36 -53.5t54 -25t71.5 -7q87 0 157.5 36.5t137.5 137.5q2 4 16.5 6t27.5 0t12 -8q-29 -102 -95 -171.5t-142.5 -98.5t-160.5 -29zM700 -27q-277 0 -434 130.5
t-157 351.5q0 137 56 281t161 272.5t242 230t313 161.5t360 60q275 0 432.5 -131t157.5 -352q0 -138 -56 -282.5t-161 -272.5t-242 -229t-312.5 -160.5t-359.5 -59.5zM737 82q109 0 212.5 47.5t184.5 126.5t149.5 180.5t114 210t70.5 214.5t25 194q0 143 -74 220t-217 77
q-94 0 -184 -35.5t-164 -96.5t-139.5 -141t-114 -170.5t-83.5 -184t-53 -182.5t-18 -165q0 -142 74.5 -218.5t216.5 -76.5z" />
    <glyph glyph-name="obreve" unicode="&#x14f;" horiz-adv-x="1228" 
d="M891 1272q-61 0 -107 17t-75.5 53t-28.5 92.5t33 136.5q5 7 18.5 9.5t25 0.5t11.5 -8q-3 -53 8.5 -88.5t36 -53.5t54 -25t71.5 -7q87 0 157.5 36.5t137.5 137.5q2 4 16 6t27 0t12 -8q-29 -102 -94.5 -171.5t-142 -98.5t-160.5 -29zM420 -27q-183 0 -286 90.5t-103 245.5
q0 85 30 179t82.5 184t128.5 172t164 143.5t193.5 98t212.5 36.5q184 0 287.5 -90.5t103.5 -247.5q0 -102 -41.5 -216t-118.5 -218.5t-176 -189.5t-224.5 -136t-252.5 -51zM469 47q82 2 169 93t151 220t105.5 270.5t41.5 243.5q0 178 -145 175q-80 -3 -165.5 -93
t-149 -217.5t-105 -270t-41.5 -249.5q0 -175 139 -172z" />
    <glyph glyph-name="Ohungarumlaut" unicode="&#x150;" horiz-adv-x="1818" 
d="M907 1642q80 45 147 96t105 89t72 70.5t66 49.5t69 17q45 0 63 -23.5t1 -66.5q-54 -148 -512 -291q-9 -3 -16.5 10t-7 28.5t12.5 20.5zM1255 1642q80 45 146.5 96t104 89t71.5 70.5t66.5 49.5t70.5 17q45 0 62 -23t2 -67q-54 -147 -514 -291q-9 -3 -16 10t-6 28.5
t13 20.5zM700 -27q-277 0 -434 130.5t-157 351.5q0 137 56 281t161 272.5t242 230t313 161.5t360 60q275 0 432.5 -131t157.5 -352q0 -138 -56 -282.5t-161 -272.5t-242 -229t-312.5 -160.5t-359.5 -59.5zM737 82q109 0 212.5 47.5t184.5 126.5t149.5 180.5t114 210
t70.5 214.5t25 194q0 143 -74 220t-217 77q-94 0 -184 -35.5t-164 -96.5t-139.5 -141t-114 -170.5t-83.5 -184t-53 -182.5t-18 -165q0 -142 74.5 -218.5t216.5 -76.5z" />
    <glyph glyph-name="ohungarumlaut" unicode="&#x151;" horiz-adv-x="1228" 
d="M506 1305q80 45 147 96t105 88.5t72 70t66 49.5t69 17q45 0 62.5 -23.5t0.5 -66.5q-54 -148 -512 -291q-9 -3 -16.5 10t-6.5 29t13 21zM854 1305q80 45 146.5 96t104 88.5t71.5 70t66.5 49.5t70.5 17q45 0 61.5 -23t1.5 -67q-54 -147 -514 -291q-9 -3 -16 10t-5.5 29
t13.5 21zM420 -27q-183 0 -286 90.5t-103 245.5q0 85 30 179t82.5 184t128.5 172t164 143.5t193.5 98t212.5 36.5q184 0 287.5 -90.5t103.5 -247.5q0 -102 -41.5 -216t-118.5 -218.5t-176 -189.5t-224.5 -136t-252.5 -51zM469 47q82 2 169 93t151 220t105.5 270.5
t41.5 243.5q0 178 -145 175q-80 -3 -165.5 -93t-149 -217.5t-105 -270t-41.5 -249.5q0 -175 139 -172z" />
    <glyph glyph-name="OE" unicode="&#x152;" horiz-adv-x="2557" 
d="M2650 1528q4 4 18 5t26.5 -0.5t12.5 -4.5l-155 -641q-2 -5 -32.5 -11t-31.5 -2q-4 104 -10 172t-20.5 123.5t-33.5 85.5t-53.5 50.5t-77 27t-106.5 6.5h-319l-195 -532h129q106 0 177 25.5t110 71t65 118.5q3 7 27 9.5t46 0t20 -9.5l-187 -526q-3 -12 -55 -10
q-37 1 -35 10q41 118 -1.5 166.5t-201.5 48.5h-129l-223 -617h354q67 0 115.5 6.5t99 28t91 51t96 87.5t110 125t136.5 175q5 11 40 2q19 -6 17 -12l-317 -651q-2 -5 -29 -6t-29 6q-7 47 -45.5 70.5t-142.5 23.5h-844h-139q-123 -27 -246 -27q-176 0 -309 54t-206.5 152
t-87.5 235t48 303q77 211 243.5 380.5t391 266t463.5 96.5q113 0 223 -26h55h856q119 0 185.5 24t105.5 70zM485 717q-36 -97 -53.5 -186.5t-12.5 -172t35.5 -143t98.5 -97t168 -36.5q101 0 213 51.5t219 173.5l272 750q13 289 -241 295q-68 0 -136 -16.5t-147.5 -60.5
t-150 -113t-141 -183t-124.5 -262z" />
    <glyph glyph-name="oe" unicode="&#x153;" horiz-adv-x="2037" 
d="M1993 539q9 8 27.5 -9t11.5 -26q-40 -60 -95 -126t-135.5 -139.5t-166 -130.5t-189.5 -95t-203 -38q-126 0 -213.5 50t-130.5 137q-226 -189 -479 -189q-183 0 -286 90.5t-103 245.5q0 85 30 179t82.5 184t128.5 172t164 143.5t193.5 98t212.5 36.5q132 0 223.5 -47.5
t134.5 -134.5q104 85 220 133.5t227 48.5q143 0 235 -66t92 -147q0 -45 -19.5 -84t-64 -76t-105 -71t-154.5 -72t-199 -74.5t-252 -82.5q-4 -46 -4 -66q0 -70 20 -121.5t53 -79t69 -40.5t75 -13q287 0 600 410zM469 47q82 2 169 93t151 220t105.5 270.5t41.5 243.5
q0 178 -145 175q-80 -3 -165.5 -93t-149 -217.5t-105 -270t-41.5 -249.5q0 -175 139 -172zM1540 1022q-74 0 -147.5 -75t-124.5 -184.5t-76 -227.5q139 53 228.5 91.5t145.5 68.5t82.5 59.5t35 53.5t8.5 60q0 154 -152 154z" />
    <glyph glyph-name="Racute" unicode="&#x154;" horiz-adv-x="1820" 
d="M887 1587q-9 -2 -15.5 9t-5 24.5t12.5 17.5q86 48 156 105t103 94t70 62.5t76 25.5q84 0 57 -80q-51 -131 -454 -258zM1784 1161q0 -70 -37.5 -143.5t-108.5 -143.5t-188 -130.5t-264 -98.5q229 -49 237 -209l9 -112q5 -90 12.5 -135.5t35 -68.5t55 -26.5t97.5 -3.5
q3 0 5 -22.5t2 -45t-3 -22.5h-184h-219q-21 2 -39 8t-31 12t-23.5 17.5t-17 19.5t-11.5 25t-8 26t-4.5 30t-2 29.5t-1.5 32t-1 31.5l-7 113q-3 54 -16.5 94.5t-40 67t-57.5 43.5t-78.5 25t-93 11t-111.5 3h-24l-113 -316q-11 -28 -18 -49.5t-8.5 -39.5t-2.5 -31t8 -23.5
t15.5 -17t26 -11t33.5 -7t45 -4t53 -1.5h65q5 0 7.5 -22t1.5 -44t-5 -22h-250h-395q-37 0 -182 8q-4 0 -4 21.5t3 43t7 21.5q39 -2 57.5 -2.5t44.5 1t36.5 4.5t27.5 12t24.5 20t19.5 31t21 42.5t21 57.5l332 914q10 26 16.5 46.5t9 37.5t3.5 29.5t-5 22t-10.5 16t-19 11
t-25 6.5t-33.5 3.5t-39.5 1.5h-48.5q-4 0 -6 21.5t-1.5 43t3.5 21.5h186h668q263 0 406 -69t143 -204zM768 682q133 0 246 29.5t189 78t130 111.5t78.5 129.5t24.5 132.5q0 103 -83 139.5t-284 36.5h-117q-55 -107 -98 -223l-156 -434h70z" />
    <glyph glyph-name="racute" unicode="&#x155;" horiz-adv-x="1245" 
d="M711 1300q86 48 156 105t103 94t70 62.5t76 25.5q40 0 55.5 -20.5t2.5 -59.5q-51 -131 -455 -258q-9 -2 -15.5 9t-5 24.5t12.5 17.5zM1137 1122q58 0 103.5 -20t70 -52t37 -66t12.5 -69q0 -61 -88 -117.5t-174 -56.5q-17 0 -28 12t-11 25q0 146 -101 146
q-48 0 -135.5 -91t-171.5 -216t-137 -236q-42 -88 -117 -322q-10 -23 -32 -32q-118 -47 -293 -47q-21 0 -24.5 7t5.5 29q115 277 312 867q7 19 7.5 33.5t-4 21.5t-12.5 6q-48 -12 -170 -143q-5 -5 -16 2.5t-19 19.5t-4 19q164 203 306 268q34 18 79 6.5t80 -48t51 -94
t-6 -130.5q-8 -24 -19.5 -62.5t-35.5 -115.5h10q285 456 525 456z" />
    <glyph glyph-name="uni0156" unicode="&#x156;" horiz-adv-x="1820" 
d="M1784 1161q0 -70 -37.5 -143.5t-108.5 -143.5t-188 -130.5t-264 -98.5q229 -49 237 -209l9 -112q5 -90 12.5 -135.5t35 -68.5t55 -26.5t97.5 -3.5q3 0 5 -22.5t2 -45t-3 -22.5h-184h-219q-21 2 -39 8t-31 12t-23.5 17.5t-17 19.5t-11.5 25t-8 26t-4.5 30t-2 29.5t-1.5 32
t-1 31.5l-7 113q-3 54 -16.5 94.5t-40 67t-57.5 43.5t-78.5 25t-93 11t-111.5 3h-24l-113 -316q-11 -28 -18 -49.5t-8.5 -39.5t-2.5 -31t8 -23.5t15.5 -17t26 -11t33.5 -7t45 -4t53 -1.5h65q5 0 7.5 -22t1.5 -44t-5 -22h-250h-395q-37 0 -182 8q-4 0 -4 21.5t3 43t7 21.5
q39 -2 57.5 -2.5t44.5 1t36.5 4.5t27.5 12t24.5 20t19.5 31t21 42.5t21 57.5l332 914q10 26 16.5 46.5t9 37.5t3.5 29.5t-5 22t-10.5 16t-19 11t-25 6.5t-33.5 3.5t-39.5 1.5h-48.5q-4 0 -6 21.5t-1.5 43t3.5 21.5h186h668q263 0 406 -69t143 -204zM768 682q133 0 246 29.5
t189 78t130 111.5t78.5 129.5t24.5 132.5q0 103 -83 139.5t-284 36.5h-117q-55 -107 -98 -223l-156 -434h70zM733 -109q65 0 95 -40.5t3 -112.5q-40 -118 -152.5 -221t-244.5 -176l-18 38q68 39 165 119.5t124 126.5q-30 -10 -76 -10q-60 0 -92.5 34.5t-6.5 104.5
q18 54 76 95.5t127 41.5z" />
    <glyph glyph-name="uni0157" unicode="&#x157;" horiz-adv-x="1245" 
d="M1137 1122q58 0 103.5 -20t70 -52t37 -66t12.5 -69q0 -61 -88 -117.5t-174 -56.5q-17 0 -28 12t-11 25q0 146 -101 146q-48 0 -135.5 -91t-171.5 -216t-137 -236q-42 -88 -117 -322q-10 -23 -32 -32q-118 -47 -293 -47q-21 0 -24.5 7t5.5 29q115 277 312 867
q7 19 7.5 33.5t-4 21.5t-12.5 6q-48 -12 -170 -143q-5 -5 -16 2.5t-19 19.5t-4 19q164 203 306 268q34 18 79 6.5t80 -48t51 -94t-6 -130.5q-8 -24 -19.5 -62.5t-35.5 -115.5h10q285 456 525 456zM-129 -662l-18 39q67 39 164 119.5t124 126.5q-30 -10 -75 -10
q-60 0 -92.5 34t-8.5 105q20 54 78 95.5t127 41.5q65 0 95 -40.5t3 -112.5q-40 -118 -153 -221.5t-244 -176.5z" />
    <glyph glyph-name="Rcaron" unicode="&#x158;" horiz-adv-x="1820" 
d="M1016 1604q-25 54 -70.5 160t-66.5 153q-4 7 13 25t26 16l229 -201q61 34 186.5 100.5t186.5 100.5q7 1 12 -7.5t4.5 -19t-8.5 -14.5q-322 -276 -365 -313h-147zM1784 1161q0 -70 -37.5 -143.5t-108.5 -143.5t-188 -130.5t-264 -98.5q229 -49 237 -209l9 -112
q5 -90 12.5 -135.5t35 -68.5t55 -26.5t97.5 -3.5q3 0 5 -22.5t2 -45t-3 -22.5h-184h-219q-21 2 -39 8t-31 12t-23.5 17.5t-17 19.5t-11.5 25t-8 26t-4.5 30t-2 29.5t-1.5 32t-1 31.5l-7 113q-3 54 -16.5 94.5t-40 67t-57.5 43.5t-78.5 25t-93 11t-111.5 3h-24l-113 -316
q-11 -28 -18 -49.5t-8.5 -39.5t-2.5 -31t8 -23.5t15.5 -17t26 -11t33.5 -7t45 -4t53 -1.5h65q5 0 7.5 -22t1.5 -44t-5 -22h-250h-395q-37 0 -182 8q-4 0 -4 21.5t3 43t7 21.5q39 -2 57.5 -2.5t44.5 1t36.5 4.5t27.5 12t24.5 20t19.5 31t21 42.5t21 57.5l332 914
q10 26 16.5 46.5t9 37.5t3.5 29.5t-5 22t-10.5 16t-19 11t-25 6.5t-33.5 3.5t-39.5 1.5h-48.5q-4 0 -6 21.5t-1.5 43t3.5 21.5h186h668q263 0 406 -69t143 -204zM768 682q133 0 246 29.5t189 78t130 111.5t78.5 129.5t24.5 132.5q0 103 -83 139.5t-284 36.5h-117
q-55 -107 -98 -223l-156 -434h70z" />
    <glyph glyph-name="rcaron" unicode="&#x159;" horiz-adv-x="1245" 
d="M1350 1620q7 1 12 -7.5t4.5 -19t-8.5 -14.5q-321 -276 -365 -313h-147q-25 54 -70.5 160t-66.5 153q-4 7 13 25t26 16l229 -201q61 34 186 100.5t187 100.5zM1137 1122q58 0 103.5 -20t70 -52t37 -66t12.5 -69q0 -61 -88 -117.5t-174 -56.5q-17 0 -28 12t-11 25
q0 146 -101 146q-48 0 -135.5 -91t-171.5 -216t-137 -236q-42 -88 -117 -322q-10 -23 -32 -32q-118 -47 -293 -47q-21 0 -24.5 7t5.5 29q115 277 312 867q7 19 7.5 33.5t-4 21.5t-12.5 6q-48 -12 -170 -143q-5 -5 -16 2.5t-19 19.5t-4 19q164 203 306 268q34 18 79 6.5
t80 -48t51 -94t-6 -130.5q-8 -24 -19.5 -62.5t-35.5 -115.5h10q285 456 525 456z" />
    <glyph glyph-name="Sacute" unicode="&#x15a;" horiz-adv-x="1394" 
d="M887 1638q86 48 156 105t103 94t70 62.5t76 25.5q40 0 55.5 -20.5t2.5 -59.5q-51 -131 -455 -258q-9 -2 -15.5 9t-5 24.5t12.5 17.5zM590 -27q-129 0 -257 16.5t-165 16.5q-38 0 -65.5 -24t-61.5 -74q-3 -5 -31 -6t-28 6l174 610q2 5 18 10t29.5 5.5t15.5 -3.5
q-4 -115 12.5 -197t47.5 -131.5t84 -78t111 -38t140 -9.5q107 0 188.5 25.5t126.5 66.5t67 86t22 90q0 76 -92.5 134.5t-304.5 131.5q-166 62 -238 140t-72 180q0 71 25.5 144t80.5 142.5t132 123.5t189 87t243 33q92 0 209 -16.5t143 -16.5q19 0 36 6.5t32 20.5t23 22.5
t21.5 28.5t14.5 21q3 4 18 5t29 -0.5t13 -4.5l-168 -598q-3 -6 -34 -12.5t-32 -0.5q9 127 -14.5 215.5t-77 137t-122.5 69.5t-163 21q-85 0 -151 -24.5t-102.5 -63.5t-55 -81.5t-18.5 -84.5q0 -64 67.5 -107t270.5 -116q179 -64 277.5 -155.5t98.5 -209.5q0 -101 -60 -201
t-157.5 -174.5t-227 -121t-261.5 -46.5z" />
    <glyph glyph-name="sacute" unicode="&#x15b;" horiz-adv-x="1064" 
d="M586 1300q86 48 156 105t103 94t70 62.5t76 25.5q40 0 55.5 -20.5t2.5 -59.5q-51 -131 -455 -258q-9 -2 -15.5 9t-5 24.5t12.5 17.5zM412 -27q-100 0 -189.5 24t-150 74t-60.5 115q0 52 63 99t148 47q16 0 21.5 -6.5t5.5 -22.5q6 -59 17 -97.5t35.5 -72t69 -49.5
t111.5 -16q84 0 138 40t55 107q0 52 -36 89.5t-120 88.5l-69 45q-4 3 -35 21.5t-37.5 23t-33.5 22.5t-35.5 25.5t-30 25.5t-29 29.5t-22 30.5t-20 36t-10.5 38t-5 43q-2 98 67.5 188t187.5 145.5t250 55.5q93 0 175.5 -23t137 -69t54.5 -106q0 -52 -63.5 -99t-147.5 -47
q-27 0 -27 25q-5 59 -16 97.5t-35 68.5t-64.5 43.5t-101.5 13.5q-64 0 -114 -37t-50 -98q-3 -98 144 -191l90 -53q59 -38 98 -67.5t77 -67t57 -78.5t20 -86q1 -118 -72.5 -205t-190 -128.5t-257.5 -41.5z" />
    <glyph glyph-name="Scircumflex" unicode="&#x15c;" horiz-adv-x="1394" 
d="M1391 1581q-29 26 -108 94.5t-120 106.5l-375 -201q-7 -1 -12 7t-4.5 18.5t8.5 15.5q322 276 365 313h147q25 -55 71 -161t67 -152q6 -6 -12 -24.5t-27 -16.5zM590 -27q-129 0 -257 16.5t-165 16.5q-38 0 -65.5 -24t-61.5 -74q-3 -5 -31 -6t-28 6l174 610q2 5 18 10
t29.5 5.5t15.5 -3.5q-4 -115 12.5 -197t47.5 -131.5t84 -78t111 -38t140 -9.5q107 0 188.5 25.5t126.5 66.5t67 86t22 90q0 76 -92.5 134.5t-304.5 131.5q-166 62 -238 140t-72 180q0 71 25.5 144t80.5 142.5t132 123.5t189 87t243 33q92 0 209 -16.5t143 -16.5q19 0 36 6.5
t32 20.5t23 22.5t21.5 28.5t14.5 21q3 4 18 5t29 -0.5t13 -4.5l-168 -598q-3 -6 -34 -12.5t-32 -0.5q9 127 -14.5 215.5t-77 137t-122.5 69.5t-163 21q-85 0 -151 -24.5t-102.5 -63.5t-55 -81.5t-18.5 -84.5q0 -64 67.5 -107t270.5 -116q179 -64 277.5 -155.5t98.5 -209.5
q0 -101 -60 -201t-157.5 -174.5t-227 -121t-261.5 -46.5z" />
    <glyph glyph-name="scircumflex" unicode="&#x15d;" horiz-adv-x="1064" 
d="M1090 1243q-29 26 -108 94.5t-120 106.5l-375 -201q-7 -1 -12 7t-4.5 18.5t8.5 15.5q321 276 365 313h147q25 -54 70.5 -160t66.5 -153q6 -6 -11.5 -24.5t-26.5 -16.5zM412 -27q-100 0 -189.5 24t-150 74t-60.5 115q0 52 63 99t148 47q16 0 21.5 -6.5t5.5 -22.5
q6 -59 17 -97.5t35.5 -72t69 -49.5t111.5 -16q84 0 138 40t55 107q0 52 -36 89.5t-120 88.5l-69 45q-4 3 -35 21.5t-37.5 23t-33.5 22.5t-35.5 25.5t-30 25.5t-29 29.5t-22 30.5t-20 36t-10.5 38t-5 43q-2 98 67.5 188t187.5 145.5t250 55.5q93 0 175.5 -23t137 -69
t54.5 -106q0 -52 -63.5 -99t-147.5 -47q-27 0 -27 25q-5 59 -16 97.5t-35 68.5t-64.5 43.5t-101.5 13.5q-64 0 -114 -37t-50 -98q-3 -98 144 -191l90 -53q59 -38 98 -67.5t77 -67t57 -78.5t20 -86q1 -118 -72.5 -205t-190 -128.5t-257.5 -41.5z" />
    <glyph glyph-name="Scedilla" unicode="&#x15e;" horiz-adv-x="1394" 
d="M1460 1526q3 4 18 5t29 -0.5t13 -4.5l-168 -598q-3 -6 -34 -12.5t-32 -0.5q9 127 -14.5 215.5t-77 137t-122.5 69.5t-163 21q-85 0 -151 -24.5t-102.5 -63.5t-55 -81.5t-18.5 -84.5q0 -64 67.5 -107t270.5 -116q179 -64 277.5 -155.5t98.5 -209.5q0 -101 -60 -201
t-157.5 -174.5t-227 -121t-261.5 -46.5q-72 0 -103 2l-77 -77q92 -36 122.5 -70.5t12.5 -87.5q-28 -76 -119 -140.5t-188 -64.5q-76 0 -128.5 28t-37.5 68q9 26 33.5 45t52.5 19q21 0 32.5 -14.5t16.5 -32.5t27.5 -32.5t64.5 -14.5q43 0 72.5 20.5t40.5 50.5q7 13 3.5 28
t-17.5 30.5t-54.5 36.5t-107.5 45l182 168q-41 4 -124.5 15t-125.5 11q-38 0 -65.5 -24t-61.5 -74q-3 -5 -31 -6t-28 6l174 610q2 5 18 10t29.5 5.5t15.5 -3.5q-4 -115 12.5 -197t47.5 -131.5t84 -78t111 -38t140 -9.5q107 0 188.5 25.5t126.5 66.5t67 86t22 90
q0 76 -92.5 134.5t-304.5 131.5q-166 62 -238 140t-72 180q0 71 25.5 144t80.5 142.5t132 123.5t189 87t243 33q92 0 209 -16.5t143 -16.5q19 0 36 6.5t32 20.5t23 22.5t21.5 28.5t14.5 21z" />
    <glyph glyph-name="scedilla" unicode="&#x15f;" horiz-adv-x="1064" 
d="M610 1026q-64 0 -114 -37t-50 -98q-3 -98 144 -191l90 -53q59 -38 98 -67.5t77 -67t57 -78.5t20 -86q1 -118 -72.5 -205t-190 -128.5t-257.5 -41.5q-42 0 -62 2l-78 -77q93 -36 123.5 -70.5t12.5 -87.5q-28 -76 -119.5 -140.5t-188.5 -64.5q-76 0 -128.5 28t-37.5 68
q9 26 33.5 45t52.5 19q18 0 28 -9.5t15.5 -23.5t14 -28t29.5 -23.5t55 -9.5q43 0 71.5 20.5t40.5 50.5q7 13 3.5 28t-17.5 30.5t-54.5 36.5t-107.5 45l187 172q-118 22 -195.5 74.5t-77.5 127.5q0 52 63 99t148 47q16 0 21.5 -6.5t5.5 -22.5q6 -59 17 -97.5t35.5 -72
t69 -49.5t111.5 -16q84 0 138 40t55 107q0 52 -36 89.5t-120 88.5l-69 45q-4 3 -35 21.5t-37.5 23t-33.5 22.5t-35.5 25.5t-30 25.5t-29 29.5t-22 30.5t-20 36t-10.5 38t-5 43q-2 98 67.5 188t187.5 145.5t250 55.5q93 0 175.5 -23t137 -69t54.5 -106q0 -52 -63.5 -99
t-147.5 -47q-27 0 -27 25q-5 59 -16 97.5t-35 68.5t-64.5 43.5t-101.5 13.5z" />
    <glyph glyph-name="Scaron" unicode="&#x160;" horiz-adv-x="1394" 
d="M1528 1958q7 1 12 -7.5t4.5 -19t-8.5 -14.5q-321 -276 -365 -313h-147q-25 54 -70.5 160t-66.5 153q-4 7 13 25t26 16l229 -201q61 34 186.5 100.5t186.5 100.5zM590 -27q-129 0 -257 16.5t-165 16.5q-38 0 -65.5 -24t-61.5 -74q-3 -5 -31 -6t-28 6l174 610q2 5 18 10
t29.5 5.5t15.5 -3.5q-4 -115 12.5 -197t47.5 -131.5t84 -78t111 -38t140 -9.5q107 0 188.5 25.5t126.5 66.5t67 86t22 90q0 76 -92.5 134.5t-304.5 131.5q-166 62 -238 140t-72 180q0 71 25.5 144t80.5 142.5t132 123.5t189 87t243 33q92 0 209 -16.5t143 -16.5q19 0 36 6.5
t32 20.5t23 22.5t21.5 28.5t14.5 21q3 4 18 5t29 -0.5t13 -4.5l-168 -598q-3 -6 -34 -12.5t-32 -0.5q9 127 -14.5 215.5t-77 137t-122.5 69.5t-163 21q-85 0 -151 -24.5t-102.5 -63.5t-55 -81.5t-18.5 -84.5q0 -64 67.5 -107t270.5 -116q179 -64 277.5 -155.5t98.5 -209.5
q0 -101 -60 -201t-157.5 -174.5t-227 -121t-261.5 -46.5z" />
    <glyph glyph-name="scaron" unicode="&#x161;" horiz-adv-x="1064" 
d="M1227 1620q7 1 12 -7.5t4.5 -19t-8.5 -14.5q-321 -276 -365 -313h-147q-25 54 -70.5 160t-66.5 153q-4 7 13 25t26 16l229 -201q61 34 186.5 100.5t186.5 100.5zM412 -27q-100 0 -189.5 24t-150 74t-60.5 115q0 52 63 99t148 47q16 0 21.5 -6.5t5.5 -22.5q6 -59 17 -97.5
t35.5 -72t69 -49.5t111.5 -16q84 0 138 40t55 107q0 52 -36 89.5t-120 88.5l-69 45q-4 3 -35 21.5t-37.5 23t-33.5 22.5t-35.5 25.5t-30 25.5t-29 29.5t-22 30.5t-20 36t-10.5 38t-5 43q-2 98 67.5 188t187.5 145.5t250 55.5q93 0 175.5 -23t137 -69t54.5 -106
q0 -52 -63.5 -99t-147.5 -47q-27 0 -27 25q-5 59 -16 97.5t-35 68.5t-64.5 43.5t-101.5 13.5q-64 0 -114 -37t-50 -98q-3 -98 144 -191l90 -53q59 -38 98 -67.5t77 -67t57 -78.5t20 -86q1 -118 -72.5 -205t-190 -128.5t-257.5 -41.5z" />
    <glyph glyph-name="uni0162" unicode="&#x162;" horiz-adv-x="1572" 
d="M1735 1528q5 5 19.5 6.5t26.5 -0.5t11 -6l-156 -641q0 -4 -16 -9t-29.5 -6t-15.5 2q0 146 -14 238t-47.5 142t-77.5 67.5t-115 17.5h-70l-377 -1048q-19 -50 -28 -82.5t-0.5 -55t18 -33.5t48.5 -16.5t69 -6.5t100 -1q5 0 7.5 -24t1.5 -48t-5 -24h-243h-232l-102 -102
q92 -36 122.5 -70.5t12.5 -87.5q-28 -76 -119 -140.5t-188 -64.5q-76 0 -128.5 28t-37.5 68q9 26 33.5 45t52.5 19q21 0 32.5 -14.5t16.5 -32.5t27.5 -32.5t64.5 -14.5q43 0 72.5 20.5t40.5 50.5q7 13 3.5 28t-17.5 30.5t-54.5 36.5t-107.5 45l205 188h-93h-256q-5 0 -6 24
t2 48t9 24h66t53 1.5t46 3.5t35.5 7.5t31 12t24 18.5t22.5 25t18.5 34t19.5 43t19 54l385 1044h-67q-94 0 -170 -33.5t-179 -135.5t-245 -296q-6 -8 -39 3q-15 6 -14 10l311 641q3 6 29 7t28 -5q6 -56 61 -76t208 -20h573q147 0 213 21t111 73z" />
    <glyph glyph-name="uni0163" unicode="&#x163;" horiz-adv-x="888" 
d="M760 1096h305l-35 -78h-305q-67 -170 -160 -436.5t-137 -382.5q-9 -28 -4 -40t20 -12q63 13 218 203q10 9 30.5 -14t14.5 -31q-82 -105 -179.5 -197t-156.5 -124q-57 -29 -131 4l-90 -90q92 -36 122.5 -70.5t12.5 -87.5q-28 -76 -119.5 -140.5t-188.5 -64.5
q-76 0 -128 28t-37 68q9 26 33.5 45t52.5 19q21 0 32.5 -14.5t16.5 -32.5t27.5 -32.5t64.5 -14.5q43 0 72.5 20.5t40.5 50.5q7 13 3.5 28t-17.5 30.5t-55 36t-108 45.5l213 196l25 -4q-55 40 -80 105t0 135q66 176 139 400t127 374h-149l29 76q178 45 312 142.5t249 246.5
q6 9 44 6q16 -2 15 -6z" />
    <glyph glyph-name="Tcaron" unicode="&#x164;" horiz-adv-x="1572" 
d="M1624 1958q7 1 12 -7.5t4.5 -19t-8.5 -14.5q-41 -35 -114.5 -99t-134.5 -116.5t-115 -97.5h-148q-25 54 -70.5 160t-66.5 153q-4 7 13 25t26 16l229 -201q61 34 186.5 100.5t186.5 100.5zM446 0h-256q-5 0 -6 24t2 48t9 24h66t53 1.5t46 3.5t35.5 7.5t31 12t24 18.5
t22.5 25t18.5 34t19.5 43t19 54l385 1044h-67q-94 0 -170 -33.5t-179 -135.5t-245 -296q-6 -8 -39 3q-15 6 -14 10l311 641q3 6 29 7t28 -5q6 -56 61 -76t208 -20h573q147 0 213 21t111 73q5 5 19.5 6.5t26.5 -0.5t11 -6l-156 -641q0 -4 -16 -9t-29.5 -6t-15.5 2
q0 146 -14 238t-47.5 142t-77.5 67.5t-115 17.5h-70l-377 -1048q-19 -50 -28 -82.5t-0.5 -55t18 -33.5t48.5 -16.5t69 -6.5t100 -1q5 0 7.5 -24t1.5 -48t-5 -24h-243h-396z" />
    <glyph glyph-name="tcaron" unicode="&#x165;" horiz-adv-x="888" 
d="M1053 1176q-6 -11 -42 -9q-21 2 -20 9q33 91 49.5 182.5t30.5 132.5q9 26 32.5 41.5t53.5 15.5q29 0 41 -15.5t4 -41.5q-15 -39 -66 -131t-83 -184zM428 199q-9 -28 -4 -40t20 -12q63 13 218 203q10 9 30.5 -14t14.5 -31q-82 -105 -179.5 -197t-156.5 -124
q-41 -22 -93.5 -9t-91 52t-58 96t4.5 121q66 176 139 400t127 374h-149l29 76q178 45 312 142.5t249 246.5q6 9 44 6q16 -2 15 -6l-139 -387h305l-35 -78h-305q-67 -170 -160 -436.5t-137 -382.5z" />
    <glyph glyph-name="Tbar" unicode="&#x166;" horiz-adv-x="1572" 
d="M1735 1528q5 5 19.5 6.5t26.5 -0.5t11 -6l-156 -641q0 -4 -16 -9t-29.5 -6t-15.5 2q0 146 -14 238t-47.5 142t-77.5 67.5t-115 17.5h-70l-207 -575h152l-35 -96h-151l-136 -377q-19 -50 -28 -82.5t-0.5 -55t18 -33.5t48.5 -16.5t69 -6.5t100 -1q5 0 7.5 -24t1.5 -48
t-5 -24h-243h-396h-256q-5 0 -6 24t2 48t9 24h66t53 1.5t46 3.5t35.5 7.5t31 12t24 18.5t22.5 25t18.5 34t19.5 43t19 54l138 373h-121l35 96h120l213 575h-67q-94 0 -170 -33.5t-179 -135.5t-245 -296q-6 -8 -39 3q-15 6 -14 10l311 641q3 6 29 7t28 -5q6 -56 61 -76
t208 -20h573q147 0 213 21t111 73z" />
    <glyph glyph-name="tbar" unicode="&#x167;" horiz-adv-x="888" 
d="M1030 1018h-305q-64 -163 -121 -328h168l-35 -96h-168q-103 -296 -141 -395q-9 -28 -4 -40t20 -12q63 13 218 203q10 9 30.5 -14t14.5 -31q-82 -105 -179.5 -197t-156.5 -124q-41 -22 -93.5 -9t-91 52t-58 96t4.5 121q64 170 123 350h-133l35 96h129q91 271 112 328h-149
l29 76q178 45 312 142.5t249 246.5q6 9 44 6q16 -2 15 -6l-139 -387h305z" />
    <glyph glyph-name="Utilde" unicode="&#x168;" horiz-adv-x="1769" 
d="M1808 1868q-57 -90 -167.5 -168t-200.5 -78q-47 0 -119 20l-90 25q-59 19 -125 19q-25 0 -41 -5.5t-38.5 -29.5t-45.5 -72q-7 -13 -51 -6q-29 6 -27 14q56 89 168.5 167.5t202.5 78.5q44 0 119 -21l88 -24q65 -19 125 -19q39 0 65 19t60 88q7 13 50 7q30 -6 27 -15z
M760 -18q-87 0 -160.5 12.5t-142 41t-113 79t-68 121t-12.5 173.5t58 230l194 541q12 32 19 55.5t7.5 42t-0.5 30.5t-13 20t-21.5 12.5t-34 6.5t-43 2.5t-55.5 0.5q-4 0 -6 21t-1 42t5 21h174h377h176q3 0 3.5 -21t-1.5 -42t-6 -21q-37 0 -55 -0.5t-42.5 -3t-34.5 -6
t-26 -13t-23 -20.5t-18.5 -30.5t-20 -42t-20.5 -56.5l-192 -521q-23 -63 -38.5 -115t-28 -113.5t-13 -109t12 -94.5t40.5 -77t79.5 -49t123.5 -19q215 0 381 158.5t262 420.5l162 441q29 80 34 126.5t-20 74t-73 36.5t-138 9q-4 0 -7 22t-2.5 44t5.5 22h297h100h176
q2 0 2 -20t-1.5 -40t-4.5 -20q-104 0 -158 -41t-102 -170l-182 -500q-35 -95 -90 -188t-132.5 -179t-167 -151t-199 -104t-222.5 -39z" />
    <glyph glyph-name="utilde" unicode="&#x169;" horiz-adv-x="1536" 
d="M1493 1530q-56 -89 -167.5 -167.5t-201.5 -78.5q-43 0 -118 21l-91 24q-59 19 -124 19q-25 0 -41 -5.5t-38.5 -29.5t-45.5 -72q-7 -13 -51 -6q-29 6 -27 14q56 89 168 167.5t202 78.5q48 0 119 -20l88 -25q62 -18 125 -18q39 0 65 18.5t60 87.5q7 13 50 7q31 -6 28 -15z
M1147 207q-8 -25 -4.5 -43.5t18.5 -18.5q24 6 84 61t133 142q6 6 28.5 -13t16.5 -28q-84 -106 -178 -199t-166 -128q-34 -17 -81.5 -3.5t-86 51t-58 94.5t2.5 128q11 29 29.5 88.5t27.5 85.5h-10q-138 -172 -263.5 -285t-256.5 -155q-44 -15 -88 -4t-75.5 43t-53 78.5
t-20.5 101t22 110.5q31 77 209 578q8 28 3 40.5t-20 12.5q-29 -7 -63.5 -37t-106.5 -106q-10 -9 -28 13t-12 32q120 151 282 258q33 20 74 17t75.5 -26.5t62 -61t34 -85.5t-7.5 -100q-98 -300 -160 -471q-30 -88 -29.5 -130.5t31.5 -53.5q61 10 153.5 88.5t175 182.5
t130.5 195q78 144 149 377q10 23 33 33q125 49 293 45q22 2 25.5 -4t-5.5 -31q-158 -376 -319 -872z" />
    <glyph glyph-name="Umacron" unicode="&#x16a;" horiz-adv-x="1769" 
d="M1673 1698h-655l29 80h657zM760 -18q-87 0 -160.5 12.5t-142 41t-113 79t-68 121t-12.5 173.5t58 230l194 541q12 32 19 55.5t7.5 42t-0.5 30.5t-13 20t-21.5 12.5t-34 6.5t-43 2.5t-55.5 0.5q-4 0 -6 21t-1 42t5 21h174h377h176q3 0 3.5 -21t-1.5 -42t-6 -21
q-37 0 -55 -0.5t-42.5 -3t-34.5 -6t-26 -13t-23 -20.5t-18.5 -30.5t-20 -42t-20.5 -56.5l-192 -521q-23 -63 -38.5 -115t-28 -113.5t-13 -109t12 -94.5t40.5 -77t79.5 -49t123.5 -19q215 0 381 158.5t262 420.5l162 441q29 80 34 126.5t-20 74t-73 36.5t-138 9q-4 0 -7 22
t-2.5 44t5.5 22h297h100h176q2 0 2 -20t-1.5 -40t-4.5 -20q-104 0 -158 -41t-102 -170l-182 -500q-35 -95 -90 -188t-132.5 -179t-167 -151t-199 -104t-222.5 -39z" />
    <glyph glyph-name="umacron" unicode="&#x16b;" horiz-adv-x="1536" 
d="M1356 1360h-656l29 80h657zM1147 207q-8 -25 -4.5 -43.5t18.5 -18.5q24 6 84 61t133 142q6 6 28.5 -13t16.5 -28q-84 -106 -178 -199t-166 -128q-34 -17 -81.5 -3.5t-86 51t-58 94.5t2.5 128q11 29 29.5 88.5t27.5 85.5h-10q-138 -172 -263.5 -285t-256.5 -155
q-44 -15 -88 -4t-75.5 43t-53 78.5t-20.5 101t22 110.5q31 77 209 578q8 28 3 40.5t-20 12.5q-29 -7 -63.5 -37t-106.5 -106q-10 -9 -28 13t-12 32q120 151 282 258q33 20 74 17t75.5 -26.5t62 -61t34 -85.5t-7.5 -100q-98 -300 -160 -471q-30 -88 -29.5 -130.5t31.5 -53.5
q61 10 153.5 88.5t175 182.5t130.5 195q78 144 149 377q10 23 33 33q125 49 293 45q22 2 25.5 -4t-5.5 -31q-158 -376 -319 -872z" />
    <glyph glyph-name="Ubreve" unicode="&#x16c;" horiz-adv-x="1769" 
d="M1313 1610q-61 0 -107 17t-75.5 53t-28.5 92.5t33 136.5q5 7 18.5 9.5t25 0.5t11.5 -8q-3 -53 8.5 -88.5t36 -53.5t54 -25t71.5 -7q87 0 157.5 36.5t137.5 137.5q2 4 16 6t27 0t12 -8q-29 -102 -94.5 -171.5t-142 -98.5t-160.5 -29zM760 -18q-87 0 -160.5 12.5t-142 41
t-113 79t-68 121t-12.5 173.5t58 230l194 541q12 32 19 55.5t7.5 42t-0.5 30.5t-13 20t-21.5 12.5t-34 6.5t-43 2.5t-55.5 0.5q-4 0 -6 21t-1 42t5 21h174h377h176q3 0 3.5 -21t-1.5 -42t-6 -21q-37 0 -55 -0.5t-42.5 -3t-34.5 -6t-26 -13t-23 -20.5t-18.5 -30.5t-20 -42
t-20.5 -56.5l-192 -521q-23 -63 -38.5 -115t-28 -113.5t-13 -109t12 -94.5t40.5 -77t79.5 -49t123.5 -19q215 0 381 158.5t262 420.5l162 441q29 80 34 126.5t-20 74t-73 36.5t-138 9q-4 0 -7 22t-2.5 44t5.5 22h297h100h176q2 0 2 -20t-1.5 -40t-4.5 -20q-104 0 -158 -41
t-102 -170l-182 -500q-35 -95 -90 -188t-132.5 -179t-167 -151t-199 -104t-222.5 -39z" />
    <glyph glyph-name="ubreve" unicode="&#x16d;" horiz-adv-x="1536" 
d="M997 1272q-61 0 -107 17t-75.5 53t-28.5 92.5t33 136.5q5 7 18.5 9.5t25 0.5t11.5 -8q-3 -53 8.5 -88.5t36 -53.5t54 -25t71.5 -7q87 0 157.5 36.5t137.5 137.5q2 4 16.5 6t27.5 0t12 -8q-29 -102 -95 -171.5t-142.5 -98.5t-160.5 -29zM1147 207q-8 -25 -4.5 -43.5
t18.5 -18.5q24 6 84 61t133 142q6 6 28.5 -13t16.5 -28q-84 -106 -178 -199t-166 -128q-34 -17 -81.5 -3.5t-86 51t-58 94.5t2.5 128q11 29 29.5 88.5t27.5 85.5h-10q-138 -172 -263.5 -285t-256.5 -155q-44 -15 -88 -4t-75.5 43t-53 78.5t-20.5 101t22 110.5q31 77 209 578
q8 28 3 40.5t-20 12.5q-29 -7 -63.5 -37t-106.5 -106q-10 -9 -28 13t-12 32q120 151 282 258q33 20 74 17t75.5 -26.5t62 -61t34 -85.5t-7.5 -100q-98 -300 -160 -471q-30 -88 -29.5 -130.5t31.5 -53.5q61 10 153.5 88.5t175 182.5t130.5 195q78 144 149 377q10 23 33 33
q125 49 293 45q22 2 25.5 -4t-5.5 -31q-158 -376 -319 -872z" />
    <glyph glyph-name="Uring" unicode="&#x16e;" horiz-adv-x="1769" 
d="M1309 1587q-83 0 -121.5 56.5t-9.5 136.5t108.5 136t163.5 56q79 0 114.5 -56t6.5 -136t-106 -136.5t-156 -56.5zM1423 1903q-54 0 -104.5 -35.5t-67.5 -85.5q-19 -52 4.5 -88.5t79.5 -36.5q51 0 99 37t67 88q19 48 -3.5 84.5t-74.5 36.5zM760 -18q-87 0 -160.5 12.5
t-142 41t-113 79t-68 121t-12.5 173.5t58 230l194 541q12 32 19 55.5t7.5 42t-0.5 30.5t-13 20t-21.5 12.5t-34 6.5t-43 2.5t-55.5 0.5q-4 0 -6 21t-1 42t5 21h174h377h176q3 0 3.5 -21t-1.5 -42t-6 -21q-37 0 -55 -0.5t-42.5 -3t-34.5 -6t-26 -13t-23 -20.5t-18.5 -30.5
t-20 -42t-20.5 -56.5l-192 -521q-23 -63 -38.5 -115t-28 -113.5t-13 -109t12 -94.5t40.5 -77t79.5 -49t123.5 -19q215 0 381 158.5t262 420.5l162 441q29 80 34 126.5t-20 74t-73 36.5t-138 9q-4 0 -7 22t-2.5 44t5.5 22h297h100h176q2 0 2 -20t-1.5 -40t-4.5 -20
q-104 0 -158 -41t-102 -170l-182 -500q-35 -95 -90 -188t-132.5 -179t-167 -151t-199 -104t-222.5 -39z" />
    <glyph glyph-name="uring" unicode="&#x16f;" horiz-adv-x="1536" 
d="M993 1249q-83 0 -121.5 56.5t-9.5 136.5t108.5 136t164.5 56q79 0 114 -56t6 -136t-106 -136.5t-156 -56.5zM1108 1565q-54 0 -104.5 -35.5t-67.5 -85.5q-19 -52 4.5 -88.5t79.5 -36.5q51 0 99 37t67 88q19 48 -3.5 84.5t-74.5 36.5zM1147 207q-8 -25 -4.5 -43.5
t18.5 -18.5q24 6 84 61t133 142q6 6 28.5 -13t16.5 -28q-84 -106 -178 -199t-166 -128q-34 -17 -81.5 -3.5t-86 51t-58 94.5t2.5 128q11 29 29.5 88.5t27.5 85.5h-10q-138 -172 -263.5 -285t-256.5 -155q-44 -15 -88 -4t-75.5 43t-53 78.5t-20.5 101t22 110.5q31 77 209 578
q8 28 3 40.5t-20 12.5q-29 -7 -63.5 -37t-106.5 -106q-10 -9 -28 13t-12 32q120 151 282 258q33 20 74 17t75.5 -26.5t62 -61t34 -85.5t-7.5 -100q-98 -300 -160 -471q-30 -88 -29.5 -130.5t31.5 -53.5q61 10 153.5 88.5t175 182.5t130.5 195q78 144 149 377q10 23 33 33
q125 49 293 45q22 2 25.5 -4t-5.5 -31q-158 -376 -319 -872z" />
    <glyph glyph-name="Uhungarumlaut" unicode="&#x170;" horiz-adv-x="1769" 
d="M928 1642q80 45 147 96t104.5 89t71.5 70.5t66 49.5t69 17q45 0 63 -23.5t1 -66.5q-54 -148 -512 -291q-9 -3 -16.5 10t-6.5 28.5t13 20.5zM1276 1642q80 45 146.5 96t104 89t71.5 70.5t66.5 49.5t70.5 17q45 0 61.5 -23t1.5 -67q-54 -147 -514 -291q-9 -3 -16 10
t-5.5 28.5t13.5 20.5zM760 -18q-87 0 -160.5 12.5t-142 41t-113 79t-68 121t-12.5 173.5t58 230l194 541q12 32 19 55.5t7.5 42t-0.5 30.5t-13 20t-21.5 12.5t-34 6.5t-43 2.5t-55.5 0.5q-4 0 -6 21t-1 42t5 21h174h377h176q3 0 3.5 -21t-1.5 -42t-6 -21q-37 0 -55 -0.5
t-42.5 -3t-34.5 -6t-26 -13t-23 -20.5t-18.5 -30.5t-20 -42t-20.5 -56.5l-192 -521q-23 -63 -38.5 -115t-28 -113.5t-13 -109t12 -94.5t40.5 -77t79.5 -49t123.5 -19q215 0 381 158.5t262 420.5l162 441q29 80 34 126.5t-20 74t-73 36.5t-138 9q-4 0 -7 22t-2.5 44t5.5 22
h297h100h176q2 0 2 -20t-1.5 -40t-4.5 -20q-104 0 -158 -41t-102 -170l-182 -500q-35 -95 -90 -188t-132.5 -179t-167 -151t-199 -104t-222.5 -39z" />
    </font>
</defs>
</svg>
